<svg width="23" height="24" viewBox="0 0 23 24" fill="none" xmlns="http://www.w3.org/2000/svg">
<path d="M9.69409 12.6085C10.8013 13.2475 11.3549 13.5671 11.9629 13.5676C12.5709 13.5681 13.1251 13.2496 14.2334 12.6125L21.2985 8.55127C21.6174 8.36794 21.814 8.02811 21.814 7.66021C21.814 7.29232 21.6174 6.95249 21.2985 6.76916L14.2309 2.70647C13.1237 2.07005 12.5701 1.75184 11.9627 1.75208C11.3553 1.75231 10.802 2.07095 9.69536 2.70824L3.61958 6.20707C3.57453 6.23301 3.55203 6.246 3.53104 6.25827C1.4556 7.47324 0.173324 9.69136 0.156179 12.0962C0.156006 12.1205 0.156006 12.1465 0.156006 12.1985C0.156006 12.2503 0.156006 12.2763 0.156179 12.3006C0.173287 14.7027 1.4527 16.9188 3.52444 18.1347C3.54537 18.147 3.56788 18.16 3.61282 18.1859L7.41868 20.3833C9.63634 21.6637 10.7452 22.3039 11.9628 22.3043C13.1805 22.3047 14.2898 21.6653 16.5083 20.3864L20.5259 18.0703C21.6367 17.4299 22.1922 17.1098 22.4972 16.5819C22.8021 16.054 22.8021 15.4129 22.8021 14.1307V11.6537C22.8021 11.298 22.6095 10.9702 22.2987 10.7971C21.998 10.6296 21.6315 10.6321 21.333 10.8036L13.0949 15.5392C12.5422 15.8569 12.2658 16.0158 11.9626 16.0159C11.6593 16.0159 11.3828 15.8572 10.8299 15.5399L5.25413 12.3393C4.97484 12.1789 4.83518 12.0988 4.72301 12.0843C4.46729 12.0513 4.2214 12.1945 4.12398 12.4333C4.08127 12.538 4.08212 12.699 4.08386 13.0211C4.08513 13.2581 4.08577 13.3767 4.10792 13.4857C4.15756 13.7299 4.28601 13.951 4.47358 14.115C4.55734 14.1883 4.65999 14.2476 4.86536 14.3661L10.8267 17.8067C11.3811 18.1267 11.6583 18.2867 11.9626 18.2868C12.267 18.2868 12.5443 18.127 13.0988 17.8074L20.4057 13.5954C20.5951 13.4862 20.6899 13.4316 20.7609 13.4726C20.8319 13.5137 20.8319 13.623 20.8319 13.8416V14.9651C20.8319 15.2857 20.8319 15.446 20.7556 15.5779C20.6794 15.7099 20.5405 15.7899 20.2628 15.95L14.236 19.4241C13.1265 20.0637 12.5717 20.3835 11.9628 20.3832C11.3538 20.3829 10.7993 20.0626 9.69041 19.422L4.05184 16.1649C4.03393 16.1545 4.02498 16.1493 4.01663 16.1445C2.83437 15.4536 2.10486 14.1897 2.09802 12.8204C2.09797 12.8108 2.09797 12.8004 2.09797 12.7797V11.7484C2.09797 10.9925 2.50057 10.2938 3.15456 9.91471C3.73245 9.57976 4.44528 9.57908 5.02378 9.91297L9.69409 12.6085Z" fill="#DBDBDB"/>
</svg>
