<svg width="137" height="36" viewBox="0 0 137 36" fill="none" xmlns="http://www.w3.org/2000/svg">
<path d="M0 10C0 4.47715 4.47715 0 10 0H126.386C131.909 0 136.386 4.47715 136.386 10V26C136.386 31.5228 131.909 36 126.386 36H10C4.47716 36 0 31.5228 0 26V10Z" fill="#171717"/>
<path d="M121.486 26.3343H118.5V14.6202H119.222L120.206 16.0093C120.688 15.5718 121.234 15.2364 121.847 15.0031C122.459 14.7624 123.094 14.6421 123.75 14.6421H126.386V17.6171H123.75C123.436 17.6171 123.141 17.6754 122.864 17.7921C122.587 17.9088 122.346 18.0692 122.142 18.2734C121.938 18.4775 121.778 18.7182 121.661 18.9952C121.544 19.2723 121.486 19.5676 121.486 19.8812V26.3343Z" fill="white"/>
<path d="M111.391 23.4688C111.507 23.5052 111.624 23.5307 111.741 23.5453C111.857 23.5526 111.974 23.5562 112.091 23.5562C112.382 23.5562 112.663 23.5161 112.933 23.4359C113.203 23.3557 113.454 23.2427 113.687 23.0969C113.928 22.9437 114.14 22.7615 114.322 22.55C114.511 22.3312 114.665 22.0906 114.781 21.8281L116.969 24.0266C116.692 24.4203 116.371 24.774 116.006 25.0875C115.649 25.401 115.259 25.6672 114.836 25.8859C114.42 26.1047 113.979 26.2688 113.512 26.3781C113.053 26.4948 112.579 26.5531 112.091 26.5531C111.267 26.5531 110.49 26.4 109.761 26.0938C109.039 25.7875 108.405 25.3609 107.858 24.8141C107.318 24.2672 106.892 23.6182 106.578 22.8672C106.265 22.1089 106.108 21.2776 106.108 20.3734C106.108 19.4474 106.265 18.6016 106.578 17.8359C106.892 17.0703 107.318 16.4177 107.858 15.8781C108.405 15.3385 109.039 14.9193 109.761 14.6203C110.49 14.3214 111.267 14.1719 112.091 14.1719C112.579 14.1719 113.057 14.2302 113.523 14.3469C113.99 14.4635 114.431 14.6312 114.847 14.85C115.27 15.0687 115.664 15.3385 116.028 15.6594C116.393 15.9729 116.714 16.3266 116.991 16.7203L111.391 23.4688ZM112.922 17.3109C112.783 17.2599 112.645 17.2271 112.506 17.2125C112.375 17.1979 112.236 17.1906 112.091 17.1906C111.682 17.1906 111.296 17.2672 110.931 17.4203C110.574 17.5661 110.26 17.7776 109.991 18.0547C109.728 18.3318 109.52 18.6672 109.367 19.0609C109.214 19.4474 109.137 19.8849 109.137 20.3734C109.137 20.4828 109.141 20.6068 109.148 20.7453C109.163 20.8839 109.181 21.026 109.203 21.1719C109.232 21.3104 109.265 21.4453 109.302 21.5766C109.338 21.7078 109.385 21.8245 109.444 21.9266L112.922 17.3109Z" fill="white"/>
<path d="M98.0359 26.3344H95.0281V9.96094H98.0359V20.2859L102.488 14.6422H105.922L102.039 19.5203L105.922 26.3344H102.488L100.114 22.0797L98.0359 24.8359V26.3344Z" fill="white"/>
<path d="M93.5625 16.95L91.375 19.1484C91.2656 18.8422 91.1161 18.5687 90.9266 18.3281C90.737 18.0802 90.5219 17.8724 90.2812 17.7047C90.0479 17.537 89.7927 17.4094 89.5156 17.3219C89.2385 17.2344 88.9542 17.1906 88.6625 17.1906C88.2542 17.1906 87.8677 17.2745 87.5031 17.4422C87.1458 17.6099 86.8323 17.8469 86.5625 18.1531C86.3 18.4521 86.0922 18.8094 85.9391 19.225C85.7859 19.6406 85.7094 20.1 85.7094 20.6031C85.7094 21.0115 85.7859 21.3943 85.9391 21.7516C86.0922 22.1089 86.3 22.4224 86.5625 22.6922C86.8323 22.962 87.1458 23.1734 87.5031 23.3266C87.8677 23.4797 88.2542 23.5562 88.6625 23.5562C88.9542 23.5562 89.2349 23.5161 89.5047 23.4359C89.7745 23.3557 90.026 23.2427 90.2594 23.0969C90.5 22.9437 90.7115 22.7615 90.8938 22.55C91.0833 22.3312 91.2365 22.0906 91.3531 21.8281L93.5406 24.0266C93.2635 24.4203 92.9427 24.774 92.5781 25.0875C92.2208 25.401 91.8307 25.6672 91.4078 25.8859C90.9922 26.1047 90.551 26.2688 90.0844 26.3781C89.625 26.4948 89.151 26.5531 88.6625 26.5531C87.8385 26.5531 87.062 26.4 86.3328 26.0938C85.6109 25.7802 84.9766 25.3536 84.4297 24.8141C83.8901 24.2745 83.4635 23.6438 83.15 22.9219C82.8365 22.2 82.6797 21.4271 82.6797 20.6031C82.6797 19.7062 82.8365 18.8677 83.15 18.0875C83.4635 17.3073 83.8901 16.6292 84.4297 16.0531C84.9766 15.4698 85.6109 15.0104 86.3328 14.675C87.062 14.3396 87.8385 14.1719 88.6625 14.1719C89.151 14.1719 89.6286 14.2339 90.0953 14.3578C90.5693 14.4818 91.0177 14.6641 91.4406 14.9047C91.8708 15.138 92.2646 15.426 92.6219 15.7687C92.9865 16.1115 93.3 16.5052 93.5625 16.95Z" fill="white"/>
<path d="M81.6735 20.3734C81.6735 21.2484 81.5167 22.0651 81.2031 22.8234C80.8896 23.5745 80.463 24.2271 79.9235 24.7812C79.3839 25.3281 78.7495 25.762 78.0203 26.0828C77.2985 26.3964 76.5219 26.5531 75.6906 26.5531C74.8667 26.5531 74.0901 26.3964 73.361 26.0828C72.6391 25.762 72.0047 25.3281 71.4578 24.7812C70.9182 24.2271 70.4917 23.5745 70.1781 22.8234C69.8646 22.0651 69.7078 21.2484 69.7078 20.3734C69.7078 19.4839 69.8646 18.6599 70.1781 17.9016C70.4917 17.1432 70.9182 16.4906 71.4578 15.9437C72.0047 15.3896 72.6391 14.9557 73.361 14.6422C74.0901 14.3286 74.8667 14.1719 75.6906 14.1719C76.5219 14.1719 77.2985 14.3214 78.0203 14.6203C78.7495 14.912 79.3839 15.3312 79.9235 15.8781C80.463 16.4177 80.8896 17.0703 81.2031 17.8359C81.5167 18.5943 81.6735 19.4401 81.6735 20.3734ZM78.6656 20.3734C78.6656 19.8922 78.5854 19.4583 78.425 19.0719C78.2719 18.6781 78.0604 18.3427 77.7906 18.0656C77.5208 17.7813 77.2037 17.5661 76.8391 17.4203C76.4818 17.2672 76.099 17.1906 75.6906 17.1906C75.2823 17.1906 74.8958 17.2672 74.5313 17.4203C74.174 17.5661 73.8604 17.7813 73.5906 18.0656C73.3281 18.3427 73.1203 18.6781 72.9672 19.0719C72.8141 19.4583 72.7375 19.8922 72.7375 20.3734C72.7375 20.8255 72.8141 21.2448 72.9672 21.6313C73.1203 22.0177 73.3281 22.3531 73.5906 22.6375C73.8604 22.9219 74.174 23.1479 74.5313 23.3156C74.8958 23.476 75.2823 23.5562 75.6906 23.5562C76.099 23.5562 76.4818 23.4797 76.8391 23.3266C77.2037 23.1734 77.5208 22.9583 77.7906 22.6812C78.0604 22.4042 78.2719 22.0687 78.425 21.675C78.5854 21.2812 78.6656 20.8474 78.6656 20.3734Z" fill="white"/>
<path d="M69.336 26.3344H58.3547V10.65H61.4938V23.1953H69.336V26.3344Z" fill="white"/>
<path d="M50.9281 23.4688C51.0448 23.5052 51.1615 23.5307 51.2781 23.5453C51.3948 23.5526 51.5115 23.5562 51.6281 23.5562C51.9198 23.5562 52.2005 23.5161 52.4703 23.4359C52.7401 23.3557 52.9917 23.2427 53.225 23.0969C53.4656 22.9437 53.6771 22.7615 53.8594 22.55C54.049 22.3312 54.2021 22.0906 54.3188 21.8281L56.5063 24.0266C56.2292 24.4203 55.9083 24.774 55.5438 25.0875C55.1865 25.401 54.7964 25.6672 54.3735 25.8859C53.9578 26.1047 53.5167 26.2688 53.05 26.3781C52.5906 26.4948 52.1167 26.5531 51.6281 26.5531C50.8042 26.5531 50.0276 26.4 49.2985 26.0938C48.5766 25.7875 47.9422 25.3609 47.3953 24.8141C46.8557 24.2672 46.4292 23.6182 46.1156 22.8672C45.8021 22.1089 45.6453 21.2776 45.6453 20.3734C45.6453 19.4474 45.8021 18.6016 46.1156 17.8359C46.4292 17.0703 46.8557 16.4177 47.3953 15.8781C47.9422 15.3385 48.5766 14.9193 49.2985 14.6203C50.0276 14.3214 50.8042 14.1719 51.6281 14.1719C52.1167 14.1719 52.5943 14.2302 53.061 14.3469C53.5276 14.4635 53.9688 14.6312 54.3844 14.85C54.8073 15.0687 55.2011 15.3385 55.5656 15.6594C55.9302 15.9729 56.2511 16.3266 56.5281 16.7203L50.9281 23.4688ZM52.4594 17.3109C52.3208 17.2599 52.1823 17.2271 52.0438 17.2125C51.9125 17.1979 51.774 17.1906 51.6281 17.1906C51.2198 17.1906 50.8333 17.2672 50.4688 17.4203C50.1115 17.5661 49.7979 17.7776 49.5281 18.0547C49.2656 18.3318 49.0578 18.6672 48.9047 19.0609C48.7516 19.4474 48.675 19.8849 48.675 20.3734C48.675 20.4828 48.6787 20.6068 48.686 20.7453C48.7005 20.8839 48.7188 21.026 48.7406 21.1719C48.7698 21.3104 48.8026 21.4453 48.8391 21.5766C48.8755 21.7078 48.9229 21.8245 48.9813 21.9266L52.4594 17.3109Z" fill="white"/>
<path d="M44.0813 26.3344H41.1063V18.8969C41.1063 18.6927 41.0662 18.4995 40.986 18.3172C40.913 18.1349 40.8073 17.9745 40.6688 17.8359C40.5302 17.6974 40.3698 17.5916 40.1875 17.5187C40.0052 17.4385 39.812 17.3984 39.6078 17.3984C39.4037 17.3984 39.2104 17.4385 39.0281 17.5187C38.8531 17.5916 38.6964 17.6974 38.5578 17.8359C38.4266 17.9745 38.3208 18.1349 38.2406 18.3172C38.1677 18.4995 38.1313 18.6927 38.1313 18.8969V26.3344H35.1453V18.8969C35.1453 18.6927 35.1052 18.4995 35.025 18.3172C34.9521 18.1349 34.8464 17.9745 34.7078 17.8359C34.5693 17.6974 34.4089 17.5916 34.2266 17.5187C34.0443 17.4385 33.8511 17.3984 33.6469 17.3984C33.4427 17.3984 33.2495 17.4385 33.0672 17.5187C32.8922 17.5916 32.7354 17.6974 32.5969 17.8359C32.4656 17.9745 32.3599 18.1349 32.2797 18.3172C32.2068 18.4995 32.1703 18.6927 32.1703 18.8969V26.3344H29.1844V14.6203H29.9063L30.7156 15.5172C31.1313 15.1672 31.587 14.8974 32.0828 14.7078C32.5859 14.5109 33.1073 14.4125 33.6469 14.4125C34.1938 14.4125 34.7261 14.5146 35.2438 14.7187C35.7688 14.9229 36.2281 15.2765 36.6219 15.7797C36.8042 15.5317 37.012 15.3203 37.2453 15.1453C37.4787 14.9703 37.7229 14.8281 37.9781 14.7187C38.2406 14.6094 38.5104 14.5328 38.7875 14.489C39.0646 14.438 39.338 14.4125 39.6078 14.4125C40.2276 14.4125 40.8073 14.5291 41.3469 14.7625C41.8938 14.9958 42.3677 15.3166 42.7688 15.725C43.1771 16.126 43.4979 16.6 43.7313 17.1469C43.9646 17.6937 44.0813 18.2771 44.0813 18.8969V26.3344Z" fill="white"/>
<path d="M27.4125 11.4375C27.4125 11.7146 27.3578 11.9735 27.2484 12.2141C27.1464 12.4547 27.0042 12.6662 26.8219 12.8485C26.6396 13.0235 26.4245 13.1656 26.1766 13.275C25.9359 13.3771 25.6771 13.4281 25.4 13.4281C25.1229 13.4281 24.8604 13.3771 24.6125 13.275C24.3719 13.1656 24.1604 13.0235 23.9781 12.8485C23.8031 12.6662 23.6609 12.4547 23.5516 12.2141C23.4495 11.9735 23.3984 11.7146 23.3984 11.4375C23.3984 11.1677 23.4495 10.9125 23.5516 10.6719C23.6609 10.424 23.8031 10.2125 23.9781 10.0375C24.1604 9.85523 24.3719 9.71305 24.6125 9.61096C24.8604 9.50159 25.1229 9.4469 25.4 9.4469C25.6771 9.4469 25.9359 9.50159 26.1766 9.61096C26.4245 9.71305 26.6396 9.85523 26.8219 10.0375C27.0042 10.2125 27.1464 10.424 27.2484 10.6719C27.3578 10.9125 27.4125 11.1677 27.4125 11.4375ZM26.8984 26.3344H23.8906V14.6203H26.8984V26.3344Z" fill="white"/>
<path d="M17.8422 26.3344H14.7141V13.7891H10V10.65H22.5453V13.7891H17.8422V26.3344Z" fill="white"/>
</svg>
