<svg width="16" height="15" viewBox="0 0 16 15" fill="none" xmlns="http://www.w3.org/2000/svg">
<path d="M3.84091 12.25L0.5 14.875V1C0.5 0.58579 0.83579 0.25 1.25 0.25H14.75C15.1642 0.25 15.5 0.58579 15.5 1V11.5C15.5 11.9142 15.1642 12.25 14.75 12.25H3.84091ZM7.25 8.5V10H8.75V8.5H7.25ZM5.42548 4.6101L6.8966 4.90433C6.9992 4.38867 7.45423 4 8 4C8.6213 4 9.125 4.50368 9.125 5.125C9.125 5.7463 8.6213 6.25 8 6.25H7.25V7.75H8C9.44975 7.75 10.625 6.57475 10.625 5.125C10.625 3.67525 9.44975 2.5 8 2.5C6.7265 2.5 5.66478 3.40689 5.42548 4.6101Z" fill="#7B7B7B"/>
</svg>
