<?xml version="1.0" standalone="no"?><!DOCTYPE svg PUBLIC "-//W3C//DTD SVG 1.1//EN" "http://www.w3.org/Graphics/SVG/1.1/DTD/svg11.dtd"><svg t="1756543697407" class="icon" viewBox="0 0 1024 1024" version="1.1" xmlns="http://www.w3.org/2000/svg" p-id="23199" width="32" height="32" xmlns:xlink="http://www.w3.org/1999/xlink"><path d="M239.0016 732.3648a39.03488 39.03488 0 0 0 39.15776-38.95296 39.03488 39.03488 0 0 0-39.15776-38.912 37.76512 37.76512 0 0 1-37.84704-37.6832V279.3472c0-20.76672 16.95744-37.64224 37.84704-37.64224h339.27168c20.8896 0 37.84704 16.87552 37.84704 37.6832 0 21.46304 17.53088 38.912 39.15776 38.912a39.03488 39.03488 0 0 0 39.1168-38.912A116.08064 116.08064 0 0 0 578.27328 163.84H239.0016A116.08064 116.08064 0 0 0 122.88 279.3472v337.46944a116.08064 116.08064 0 0 0 116.1216 115.5072zM412.59008 901.12h324.89472A122.18368 122.18368 0 0 0 860.16 779.42784v-324.8128a122.18368 122.18368 0 0 0-122.30656-122.0608H412.59008a122.18368 122.18368 0 0 0-122.6752 122.0608v324.4032C288.60416 846.6432 344.71936 901.12 412.59008 901.12z m324.89472-490.7008a43.90912 43.90912 0 0 1 44.40064 43.4176V779.0592a43.90912 43.90912 0 0 1-43.66336 44.15488h-325.632a43.90912 43.90912 0 0 1-44.40064-43.4176V454.57408a43.90912 43.90912 0 0 1 43.66336-44.15488h325.632z" fill="#ffffff" p-id="23200"></path></svg>