<svg width="24" height="24" viewBox="0 0 24 24" fill="none" xmlns="http://www.w3.org/2000/svg">
<g id="fi-bs-sign-in" clip-path="url(#clip0_6531_6534)">
<path id="Vector" d="M3 21L3 16L-3.49691e-07 16L-1.31134e-07 21C-9.63552e-08 21.7956 0.31607 22.5587 0.87868 23.1213C1.44129 23.6839 2.20435 24 3 24L21 24C21.7956 24 22.5587 23.6839 23.1213 23.1213C23.6839 22.5587 24 21.7956 24 21L24 16L21 16L21 21L3 21Z" fill="white"/>
<path id="Vector_2" d="M13.4985 -0.000294459L10.4985 -0.000294328L10.5245 14.6907L7.0595 11.2257L4.9375 13.3497L9.5235 17.9347C9.84851 18.2598 10.2344 18.5176 10.659 18.6935C11.0837 18.8694 11.5388 18.96 11.9985 18.96C12.4582 18.96 12.9133 18.8694 13.338 18.6935C13.7626 18.5176 14.1485 18.2598 14.4735 17.9347L19.0595 13.3497L16.9375 11.2287L13.5245 14.6407L13.4985 -0.000294459Z" fill="white"/>
</g>
<defs>
<clipPath id="clip0_6531_6534">
<rect width="24" height="24" fill="white" transform="translate(0 24) rotate(-90)"/>
</clipPath>
</defs>
</svg>
