<?xml version="1.0" standalone="no"?><!DOCTYPE svg PUBLIC "-//W3C//DTD SVG 1.1//EN" "http://www.w3.org/Graphics/SVG/1.1/DTD/svg11.dtd"><svg t="1730863512053" class="icon" viewBox="0 0 1024 1024" version="1.1" xmlns="http://www.w3.org/2000/svg" p-id="5245" xmlns:xlink="http://www.w3.org/1999/xlink" width="128" height="128"><path d="M720 688c68.53 0 125.88 47.872 140.432 112H928c17.673 0 32 14.327 32 32 0 17.673-14.327 32-32 32l-67.569 0.001C845.88 928.128 788.531 976 720 976c-68.53 0-125.88-47.872-140.431-111.999L96 864c-17.673 0-32-14.327-32-32 0-17.673 14.327-32 32-32h483.568C594.12 735.872 651.47 688 720 688zM304 368c68.53 0 125.88 47.872 140.432 112H928c17.673 0 32 14.327 32 32 0 17.673-14.327 32-32 32l-483.569 0.001C429.88 608.128 372.531 656 304 656c-68.53 0-125.88-47.872-140.431-111.999L96 544c-17.673 0-32-14.327-32-32 0-17.673 14.327-32 32-32h67.568C178.12 415.872 235.47 368 304 368zM720 48c68.53 0 125.88 47.872 140.432 112H928c17.673 0 32 14.327 32 32 0 17.673-14.327 32-32 32l-67.569 0.001C845.88 288.128 788.531 336 720 336c-68.53 0-125.88-47.872-140.431-111.999L96 224c-17.673 0-32-14.327-32-32 0-17.673 14.327-32 32-32h483.568C594.12 95.872 651.47 48 720 48z" fill="#000000" p-id="5246"></path></svg>