<svg width="171" height="128" viewBox="0 0 171 128" fill="none" xmlns="http://www.w3.org/2000/svg">
<path d="M111.872 92.1611C102.592 100.929 90.112 104.193 78.464 102.081L73.984 104.513C87.744 108.353 103.04 105.089 114.176 94.6571C119.36 89.7931 123.2 83.6491 125.376 76.8651L120.896 79.2971C118.784 84.1611 115.712 88.5131 111.872 92.1611ZM122.176 96.5771L119.872 94.0811L118.72 97.4091L115.648 99.0091L118.336 101.057L118.72 104.513L121.536 102.465L124.864 103.041L123.904 99.7131L125.568 96.5771H122.176ZM100.032 114.881L102.912 116.673L103.36 113.217L106.048 111.041L102.976 109.697L101.824 106.497L99.392 109.057L96 109.313L97.6 112.321L96.64 115.649L100.032 114.881ZM69.248 114.433L72.448 115.713L73.792 118.849L76.096 116.225L79.616 115.969L77.824 113.089L78.656 109.825L75.2 110.657L72.192 108.865H72.256L71.936 112.257L69.248 114.433ZM48.256 28.2891H51.648L54.016 30.7851L55.168 27.4571L58.24 25.8571L55.552 23.8091L55.168 20.2891L52.352 22.3371L48.96 21.8251L49.92 25.1531L48.256 28.2891ZM49.728 48.7691C51.84 43.9051 54.912 39.4891 58.752 35.8411C68.032 27.0731 80.512 23.8091 92.16 25.9211L96.64 23.4891C82.88 19.6491 67.584 22.9131 56.448 33.4091C51.264 38.2731 47.424 44.4171 45.248 51.2011L49.728 48.7691Z" fill="#0075FF"/>
<path d="M126.849 108.098C106.433 127.298 76.225 129.602 53.505 115.586L50.113 117.442C74.305 133.442 107.137 131.33 129.153 110.594C142.529 97.9858 149.249 81.0258 149.249 64.0658L145.857 65.9218C145.409 81.2818 139.009 96.6418 126.849 108.098ZM43.777 19.9698C64.193 0.769808 94.401 -1.53419 117.121 12.5458L120.513 10.6898C96.321 -5.31019 63.489 -3.19819 41.473 17.5378C28.097 30.1458 21.377 47.1058 21.377 64.0658L24.769 62.2098C25.217 46.7218 31.617 31.4258 43.777 19.9698Z" fill="#0075FF"/>
<path d="M37.8246 49.4723L40.8326 51.1363L40.8966 47.6163L43.3286 45.1843L40.1926 43.9683L38.7206 40.8323L36.6726 43.6483L33.2806 44.1603L35.2006 47.0403L34.6246 50.5603L37.8246 49.4723ZM98.6246 15.6163L101.249 13.2483L97.8566 12.2243L96.3206 9.15233L94.2086 11.9043L90.6886 12.4163L92.7366 15.1683L92.0966 18.4963L95.4886 17.4723L98.5606 19.0083L98.6246 15.6163ZM75.2006 11.0723L72.3206 9.28032L71.8726 12.7363L69.1206 14.9763L72.2566 16.3203L73.4086 19.5203L75.7766 16.8323L79.2326 16.5763L77.6326 13.6323L78.5926 10.3043L75.2006 11.0723ZM167.425 42.7523L148.289 7.23233C146.497 3.96833 142.465 2.75233 139.201 4.48033L5.88858 76.2243C2.62458 77.9523 1.40858 82.0483 3.13658 85.3123L22.2726 120.896C24.0646 124.16 28.0966 125.376 31.3606 123.648L164.737 51.8403C168.001 50.0483 169.217 46.0163 167.425 42.7523ZM161.665 49.6643L31.3606 119.872C28.9286 121.216 25.8566 120.256 24.5126 117.824L6.97657 85.2483C5.63257 82.8163 6.59258 79.7443 9.02458 78.4003L139.329 8.19233C141.761 6.91233 144.833 7.80833 146.113 10.2403L163.649 42.8163C164.993 45.2483 164.097 48.3203 161.665 49.6643ZM134.913 76.6083L131.969 74.9443L131.841 78.4643L129.473 80.8963L132.609 82.0483L134.081 85.2483L136.065 82.4323L139.393 81.9203L137.537 79.0403L138.113 75.5843L134.913 76.6083Z" fill="#0075FF"/>
<path d="M32.2152 85.373L35.4863 103.691L31.3715 105.906L28.2422 83.3691L30.8607 81.9599L32.2152 85.373ZM44.8381 98.6582L31.3381 85.8451L29.1967 82.8554L31.841 81.4323L48.9657 96.4367L44.8381 98.6582ZM40.8433 91.7919L42.4747 94.8231L32.5553 100.162L30.9239 97.1303L40.8433 91.7919Z" fill="#0075FF"/>
<path d="M56.473 92.3964L52.384 94.5971L50.7853 91.5648L54.8485 89.3781C55.8632 88.8319 56.5962 88.1436 57.0475 87.3129C57.4941 86.4737 57.6554 85.5163 57.5312 84.4409C57.4157 83.3607 57.0201 82.1929 56.3444 80.9374L55.8515 80.0216C55.3332 79.0585 54.7741 78.267 54.1744 77.6471C53.5832 77.0226 52.9556 76.5674 52.2916 76.2816C51.6276 75.9957 50.9404 75.8831 50.2301 75.9438C49.5151 75.9959 48.7835 76.2233 48.0354 76.6259L43.8303 78.889L42.1989 75.8578L46.404 73.5946C47.6595 72.919 48.9232 72.5161 50.1951 72.3861C51.471 72.2428 52.7045 72.3608 53.8956 72.74C55.0868 73.1193 56.1849 73.7482 57.1901 74.6268C58.1992 75.4921 59.0647 76.5955 59.7867 77.937L60.2657 78.827C60.9831 80.1599 61.4273 81.4901 61.5983 82.8176C61.7779 84.1405 61.6979 85.4034 61.3584 86.6065C61.0228 87.7963 60.4418 88.8908 59.6155 89.89C58.7932 90.876 57.7457 91.7115 56.473 92.3964ZM44.4691 74.636L54.5768 93.4169L50.7071 95.4995L40.5994 76.7186L44.4691 74.636Z" fill="#0075FF"/>
<path d="M78.0259 68.1209L78.5049 69.0109C79.2732 70.4384 79.7693 71.8239 79.9932 73.1672C80.2171 74.5106 80.1917 75.7719 79.917 76.9511C79.6376 78.1218 79.1212 79.1816 78.3676 80.1306C77.6227 81.0749 76.6568 81.8664 75.4701 82.5051C74.292 83.1391 73.0994 83.5093 71.8923 83.6155C70.6938 83.7171 69.5248 83.5644 68.3853 83.1574C67.2411 82.7418 66.1658 82.0728 65.1593 81.1506C64.1615 80.2238 63.2784 79.0466 62.5102 77.6191L62.0311 76.7291C61.2583 75.293 60.7622 73.9076 60.5429 72.5728C60.3189 71.2294 60.3443 69.9681 60.6191 68.7889C60.9024 67.605 61.4165 66.5409 62.1615 65.5966C62.915 64.6476 63.8809 63.8561 65.059 63.222C66.2457 62.5834 67.4383 62.2132 68.6368 62.1116C69.8439 62.0054 71.0152 62.1624 72.1508 62.5826C73.2949 62.9983 74.3659 63.6695 75.3638 64.5963C76.3657 65.51 77.253 66.6848 78.0259 68.1209ZM74.5965 71.1144L74.1036 70.1986C73.5668 69.201 73.0044 68.3725 72.4166 67.7129C71.8287 67.0534 71.2196 66.5605 70.5894 66.2343C69.9591 65.9081 69.3209 65.7525 68.6747 65.7676C68.0239 65.7741 67.3717 65.9532 66.7181 66.3049C66.0646 66.6566 65.5559 67.1023 65.192 67.642C64.8321 68.1684 64.6147 68.7844 64.5398 69.4901C64.4735 70.1912 64.5537 70.9687 64.7804 71.8227C65.007 72.6766 65.3888 73.6023 65.9257 74.5998L66.4185 75.5157C66.9508 76.5046 67.5131 77.3331 68.1056 78.0013C68.6935 78.6608 69.3048 79.158 69.9397 79.4928C70.57 79.819 71.2105 79.9789 71.8614 79.9724C72.5122 79.9659 73.1644 79.7868 73.8179 79.4351C74.4715 79.0834 74.9802 78.6377 75.3441 78.0981C75.708 77.5584 75.9231 76.9381 75.9893 76.237C76.051 75.5273 75.9685 74.7455 75.7418 73.8916C75.5105 73.029 75.1287 72.1033 74.5965 71.1144Z" fill="#0075FF"/>
<path d="M89.8127 65.8197L85.0272 68.3952L83.4028 65.3769L88.1883 62.8013C88.9278 62.4033 89.465 61.959 89.7998 61.4683C90.1299 60.969 90.2845 60.4422 90.2634 59.8879C90.2424 59.3337 90.0838 58.7814 89.7876 58.231C89.4867 57.672 89.0993 57.2096 88.6251 56.8438C88.1509 56.4779 87.603 56.2737 86.9813 56.2313C86.3596 56.1888 85.6789 56.3666 84.9394 56.7646L81.4954 58.6181L89.9717 74.3678L86.102 76.4504L75.9943 57.6695L83.308 53.7333C84.7785 52.9419 86.1818 52.5305 87.5178 52.4991C88.8579 52.4544 90.0573 52.746 91.1161 53.3739C92.1748 54.0018 93.0259 54.9134 93.6692 56.1087C94.3217 57.3212 94.6069 58.5207 94.5246 59.7073C94.4424 60.8938 94.0019 62.0125 93.2034 63.0633C92.4135 64.1095 91.2832 65.0283 89.8127 65.8197Z" fill="#0075FF"/>
<path d="M101.418 43.9867L111.526 62.7676L107.669 64.8433L97.5614 46.0623L101.418 43.9867ZM107.197 40.8766L108.828 43.9079L93.5043 52.1551L91.8729 49.1238L107.197 40.8766Z" fill="#0075FF"/>
<path d="M130.488 48.6697L132.113 51.688L122.116 57.0681L120.492 54.0498L130.488 48.6697ZM113.272 37.6069L123.38 56.3878L119.51 58.4704L109.403 39.6895L113.272 37.6069ZM124.819 41.2573L126.402 44.1983L117.708 48.8773L116.125 45.9363L124.819 41.2573ZM121.992 32.914L123.624 35.9453L113.64 41.3185L112.008 38.2872L121.992 32.914Z" fill="#0075FF"/>
<path d="M140.136 47.3701L136.047 49.5707L134.448 46.5384L138.511 44.3517C139.526 43.8056 140.259 43.1172 140.71 42.2866C141.157 41.4473 141.318 40.49 141.194 39.4145C141.079 38.3344 140.683 37.1666 140.007 35.9111L139.514 34.9952C138.996 34.0321 138.437 33.2406 137.837 32.6207C137.246 31.9962 136.619 31.5411 135.955 31.2552C135.291 30.9693 134.603 30.8567 133.893 30.9174C133.178 30.9695 132.446 31.1969 131.698 31.5995L127.493 33.8627L125.862 30.8314L130.067 28.5683C131.322 27.8926 132.586 27.4897 133.858 27.3597C135.134 27.2164 136.367 27.3344 137.559 27.7137C138.75 28.0929 139.848 28.7218 140.853 29.6004C141.862 30.4657 142.728 31.5691 143.45 32.9106L143.929 33.8007C144.646 35.1336 145.09 36.4638 145.261 37.7913C145.441 39.1141 145.361 40.3771 145.021 41.5801C144.686 42.7699 144.105 43.8644 143.278 44.8636C142.456 45.8496 141.409 46.6851 140.136 47.3701ZM128.132 29.6096L138.24 48.3905L134.37 50.4732L124.262 31.6922L128.132 29.6096Z" fill="#0075FF"/>
</svg>
