<?xml version="1.0" standalone="no"?><!DOCTYPE svg PUBLIC "-//W3C//DTD SVG 1.1//EN" "http://www.w3.org/Graphics/SVG/1.1/DTD/svg11.dtd"><svg t="1758683606104" class="icon" viewBox="0 0 1024 1024" version="1.1" xmlns="http://www.w3.org/2000/svg" p-id="2035" xmlns:xlink="http://www.w3.org/1999/xlink" width="48" height="48"><path d="M653.865 377.607H370.129c-20.619 0-37.334 16.714-37.334 37.334 0 20.618 16.714 37.334 37.334 37.334h283.736c20.619 0 37.334-16.715 37.334-37.334 0-20.619-16.715-37.334-37.334-37.334zM534.397 571.742H370.129c-20.619 0-37.334 16.714-37.334 37.334 0 20.619 16.714 37.334 37.334 37.334h164.268c20.619 0 37.334-16.714 37.334-37.334 0-20.619-16.714-37.334-37.334-37.334z" fill="#cdcdcd" p-id="2036"></path><path d="M511.997 64.005c-18.749 0-37.749 1.15-56.969 3.519C253.888 92.322 92.617 253.792 67.554 454.9c-7.776 62.395-2.538 122.539 13.228 178.282 22.345 79.003 26.19 162.08 5.466 241.524l-4.02 15.406c-7.576 29.042 14.785 56.14 43.152 56.14a45.71 45.71 0 0 0 9.335-0.973c44.469-9.264 89.793-14.27 135.021-14.27 45.672 0 91.246 5.101 135.784 16.074C439.72 955.507 475.465 960 512.272 960c15.319 0 30.818-0.777 46.472-2.374C771.982 935.88 942.017 761.501 958.608 547.8 979.071 284.225 771.244 64.005 511.997 64.005z m372.168 478.016c-13.712 176.625-156.87 323.362-332.997 341.323a384.896 384.896 0 0 1-38.897 1.989c-30.027 0-59.934-3.617-88.891-10.751-49.133-12.104-100.826-18.241-153.645-18.241-34.369 0-69.375 2.596-104.537 7.737 15.63-80.31 11.389-166.513-12.568-251.218-13.596-48.067-17.291-98.106-10.983-148.726 20.736-166.388 156.374-302.02 322.517-322.503 15.924-1.963 32.017-2.959 47.833-2.959 103.704 0 203.605 43.684 274.088 119.85 71.447 77.21 106.279 177.891 98.08 283.499z" fill="#cdcdcd" p-id="2037"></path></svg>