<?xml version="1.0" standalone="no"?><!DOCTYPE svg PUBLIC "-//W3C//DTD SVG 1.1//EN" "http://www.w3.org/Graphics/SVG/1.1/DTD/svg11.dtd"><svg t="1729668943553" class="icon" viewBox="0 0 1024 1024" version="1.1" xmlns="http://www.w3.org/2000/svg" p-id="82837" xmlns:xlink="http://www.w3.org/1999/xlink" width="128" height="128"><path d="M841.568 137.02l-211.104 70.44L512 347.604 398.92 212.852 182.76 137.368a8 8 0 0 0-10.232 10.08l70.24 210.932L393.536 482.348l-75.384 107.8-70-75.46-80.768 75.464 75.384 75.46-75.384 75.46-37.692-37.732L92 741.076l150.768 150.92 37.692-37.732-37.692-37.728 75.384-75.464 75.384 75.464 75.388-75.464-70-70.068L512 579.372l113.08 91.632-70 70.068 75.384 75.464 75.384-75.46 75.384 75.46-37.692 37.728 37.692 37.736L932 741.076l-37.692-37.732-37.692 37.732-75.384-75.46 75.384-75.46-75.384-75.46-70 70.068-80.768-97.016 150.768-123.976 70.48-216.688a8 8 0 0 0-10.144-10.064z" fill="#000000" p-id="82838"></path></svg>