<?xml version="1.0" standalone="no"?><!DOCTYPE svg PUBLIC "-//W3C//DTD SVG 1.1//EN" "http://www.w3.org/Graphics/SVG/1.1/DTD/svg11.dtd"><svg t="1733991595717" class="icon" viewBox="0 0 1024 1024" version="1.1" xmlns="http://www.w3.org/2000/svg" p-id="8310" xmlns:xlink="http://www.w3.org/1999/xlink" width="128" height="128"><path d="M512 2.27555555C230.51377778 2.27555555 2.27555555 230.51377778 2.27555555 512s228.23822222 509.72444445 509.72444445 509.72444445 509.72444445-228.23822222 509.72444445-509.72444445S793.48622222 2.27555555 512 2.27555555z m0 919.32444445c-226.19022222 0-409.6-183.40977778-409.6-409.6s183.40977778-409.6 409.6-409.6 409.6 183.40977778 409.6 409.6-183.40977778 409.6-409.6 409.6z" p-id="8311"></path><path d="M649.89866667 373.98755555C590.16533333 314.25422222 544.19911111 245.87377778 512 172.94222222c-32.19911111 72.93155555-78.16533333 141.312-137.89866667 201.04533333-59.84711111 59.84711111-128.22755555 105.81333333-201.15911111 138.01244445 72.93155555 32.19911111 141.312 78.16533333 201.04533333 138.01244445 59.84711111 59.73333333 105.81333333 128.11377778 138.01244445 201.04533333 32.19911111-72.93155555 78.16533333-141.312 137.89866667-201.15911111C709.74577778 590.16533333 778.12622222 544.19911111 851.05777778 512c-72.93155555-32.19911111-141.312-78.16533333-201.15911111-138.01244445zM579.12888889 579.12888889c-24.23466667 24.23466667-46.64888889 49.72088889-67.12888889 76.68622222-20.59377778-26.85155555-43.008-52.45155555-67.12888889-76.68622222-24.23466667-24.23466667-49.83466667-46.64888889-76.68622222-67.12888889 26.85155555-20.59377778 52.45155555-43.008 76.68622222-67.12888889 24.23466667-24.23466667 46.64888889-49.72088889 67.12888889-76.68622222 20.59377778 26.85155555 43.008 52.45155555 67.12888889 76.68622222 24.23466667 24.23466667 49.83466667 46.64888889 76.68622222 67.12888889-26.85155555 20.59377778-52.45155555 43.008-76.68622222 67.12888889z" p-id="8312"></path></svg>