<svg width="42" height="56" viewBox="0 0 42 56" fill="none" xmlns="http://www.w3.org/2000/svg">
<g id="Frame 1000006110">
<rect id="Rectangle 34625519" width="42" height="56" rx="6" fill="#7000FF"/>
<g id="Frame">
<path id="Vector" d="M20.9786 17.3877C15.6678 17.3877 11.363 21.6925 11.363 27.0034C11.363 32.3136 15.6678 36.6191 20.9786 36.6191C26.2889 36.6191 30.5943 32.3136 30.5943 27.0034C30.5943 21.6925 26.2889 17.3877 20.9786 17.3877ZM20.9786 35.2366C16.4316 35.2366 12.7454 31.5499 12.7454 27.0034C12.7454 22.4563 16.4316 18.7702 20.9786 18.7702C25.5257 18.7702 29.2118 22.4563 29.2118 27.0034C29.2118 31.5499 25.5257 35.2366 20.9786 35.2366ZM25.1759 24.2869C24.9271 24.2869 24.7011 24.3879 24.5377 24.5514L19.7671 29.3328L16.8115 26.3663C16.648 26.2029 16.4226 26.1019 16.1732 26.1019C15.6756 26.1019 15.2718 26.5052 15.2718 27.0034C15.2718 27.2522 15.3721 27.477 15.535 27.6398L19.1289 31.2457C19.2917 31.4086 19.5177 31.5101 19.7671 31.5101C20.0165 31.5101 20.2419 31.4092 20.4053 31.2457V31.2463L25.8141 25.8249C25.9764 25.662 26.0774 25.4366 26.0774 25.1878C26.0773 24.6902 25.6735 24.2869 25.1759 24.2869Z" fill="white"/>
</g>
</g>
</svg>
