<?xml version="1.0" standalone="no"?><!DOCTYPE svg PUBLIC "-//W3C//DTD SVG 1.1//EN" "http://www.w3.org/Graphics/SVG/1.1/DTD/svg11.dtd"><svg t="1732865932545" class="icon" viewBox="0 0 1067 1024" version="1.1" xmlns="http://www.w3.org/2000/svg" p-id="10314" xmlns:xlink="http://www.w3.org/1999/xlink" width="133.375" height="128"><path d="M854.169505 910.222222H171.502839c-31.37837 0-56.893687-25.524913-56.893687-56.893687V170.661869c0-31.37837 25.515317-56.893687 56.893687-56.893687h682.666666c31.359178 0 56.893687 25.515317 56.893687 56.893687v682.666666c0 31.368774-25.534508 56.893687-56.893687 56.893687zM171.502839 170.661869h-0.038384l0.038384 682.666666h682.666666V170.661869H171.502839z" p-id="10315"></path><path d="M313.722662 540.446843c15.708377 0 28.442045 12.733669 28.442045 28.442046v142.219823c0 15.708377-12.733669 28.442045-28.442045 28.442046s-28.442045-12.733669-28.442046-28.442046V568.888889c0-15.708377 12.733669-28.442045 28.442046-28.442046zM512.836172 227.555556c15.708377 0 28.442045 12.733669 28.442045 28.442045v455.111111c0 15.708377-12.733669 28.442045-28.442045 28.442046s-28.442045-12.733669-28.442046-28.442046V255.997601c0-15.708377 12.733669-28.442045 28.442046-28.442045zM711.949682 426.669066c15.708377 0 28.442045 12.733669 28.442045 28.442045v255.997601c0 15.708377-12.733669 28.442045-28.442045 28.442046s-28.442045-12.733669-28.442046-28.442046V455.111111c0-15.708377 12.733669-28.442045 28.442046-28.442045z" p-id="10316"></path></svg>
