<?xml version="1.0" standalone="no"?><!DOCTYPE svg PUBLIC "-//W3C//DTD SVG 1.1//EN" "http://www.w3.org/Graphics/SVG/1.1/DTD/svg11.dtd"><svg t="1731576774028" class="icon" viewBox="0 0 1024 1024" version="1.1" xmlns="http://www.w3.org/2000/svg" p-id="4482" xmlns:xlink="http://www.w3.org/1999/xlink" width="128" height="128"><path d="M554.666667 42.569344C554.666667 19.058944 535.728427 0 512 0L512 0C488.43584 0 469.333333 19.255509 469.333333 42.570368L469.333333 882.615125 218.411008 631.6928C201.803136 615.084885 174.948437 615.012907 158.169899 631.791445L158.169899 631.791445C141.507499 648.453803 141.600597 675.561899 158.182016 692.14336L474.943232 1008.904576C483.129771 1017.091072 499.405824 1024 510.960768 1024 524.629675 1024 540.698496 1017.241557 549.035477 1008.904576L865.796693 692.14336C882.465749 675.474261 882.587349 648.569984 865.808811 631.791445L865.808811 631.791445C849.146453 615.129088 822.08704 615.173419 805.569963 631.690496L554.666667 882.593835 554.666667 42.569344Z" fill="#000000" p-id="4483"></path></svg>