<?xml version="1.0" standalone="no"?><!DOCTYPE svg PUBLIC "-//W3C//DTD SVG 1.1//EN" "http://www.w3.org/Graphics/SVG/1.1/DTD/svg11.dtd"><svg t="1730686113469" class="icon" viewBox="0 0 1024 1024" version="1.1" xmlns="http://www.w3.org/2000/svg" p-id="16041" xmlns:xlink="http://www.w3.org/1999/xlink" width="128" height="128"><path d="M512 398.336c-75.776 0-137.216 61.44-137.216 137.216s61.44 137.216 137.216 137.216 137.216-61.44 137.216-137.216-61.44-137.216-137.216-137.216z m0 205.824c-37.888 0-68.608-30.72-68.608-68.608s30.72-68.608 68.608-68.608 68.608 30.72 68.608 68.608c0.512 37.376-30.72 68.608-68.608 68.608z m0-369.664c-278.016 0-479.744 179.712-479.744 300.544 0 118.784 215.04 300.544 479.744 300.544 262.144 0 474.624-181.76 474.624-300.544S774.144 234.496 512 234.496z m0 532.992c-237.568 0-411.136-162.816-411.136-232.448 0-79.36 173.568-232.448 411.136-232.448 235.008 0 406.528 162.816 406.528 232.448s-171.52 232.448-406.528 232.448z" p-id="16042"></path></svg>