<?xml version="1.0" standalone="no"?><!DOCTYPE svg PUBLIC "-//W3C//DTD SVG 1.1//EN" "http://www.w3.org/Graphics/SVG/1.1/DTD/svg11.dtd"><svg t="1733883264262" class="icon" viewBox="0 0 1432 1024" version="1.1" xmlns="http://www.w3.org/2000/svg" p-id="39328" xmlns:xlink="http://www.w3.org/1999/xlink" width="179" height="128"><path d="M421.825 764.341V193.54a29.867 29.867 0 0 0-30.353-28.825 31.117 31.117 0 0 0-21.532 8.404 27.714 27.714 0 0 0-8.89 20.42v571.15l-80.571-76.195a31.812 31.812 0 0 0-43.203-0.348 27.991 27.991 0 0 0 0.278 41.05l128.358 121.411c7.223 6.946 17.156 9.655 26.532 8.335a31.742 31.742 0 0 0 24.38-8.543L545.18 728.918a27.991 27.991 0 0 0 0.348-40.98 31.534 31.534 0 0 0-21.74-8.335 31.047 31.047 0 0 0-21.532 8.613l-80.432 76.125z m231.918-513.29c0-15.906 13.545-28.756 30.214-28.756h486.62c16.67 0 30.213 12.71 30.213 28.755a29.52 29.52 0 0 1-30.214 28.756H683.957a30.84 30.84 0 0 1-21.393-8.474 27.783 27.783 0 0 1-8.82-20.282z m0 258.867c0-15.905 13.197-28.755 30.631-28.755h364.235a30.909 30.909 0 0 1 27.297 14.03 27.505 27.505 0 0 1 0 29.45 30.909 30.909 0 0 1-27.297 14.03H684.374a30.909 30.909 0 0 1-21.601-8.334 27.991 27.991 0 0 1-9.03-20.42z m0 258.938a29.728 29.728 0 0 1 30.214-28.825h243.449c16.739 0 30.283 12.78 30.283 28.825a29.797 29.797 0 0 1-30.283 28.755H683.957a31.117 31.117 0 0 1-21.393-8.474 27.783 27.783 0 0 1-8.82-20.281z" p-id="39329"></path></svg>