<?xml version="1.0" standalone="no"?><!DOCTYPE svg PUBLIC "-//W3C//DTD SVG 1.1//EN" "http://www.w3.org/Graphics/SVG/1.1/DTD/svg11.dtd"><svg t="1730685836948" class="icon" viewBox="0 0 1280 1024" version="1.1" xmlns="http://www.w3.org/2000/svg" p-id="4284" xmlns:xlink="http://www.w3.org/1999/xlink" width="160" height="128"><path d="M1200 0H80A80 80 0 0 0 0 80v864a80 80 0 0 0 80 80h1120a80 80 0 0 0 17.6-2 40 40 0 0 0 27.2-10.4v-2.4A80 80 0 0 0 1280 944V80a80 80 0 0 0-80-80zM640 584L90 90h1103.2zM80 188.4L448.8 520 80 887.6zM508.4 572l106.4 95.6a40 40 0 0 0 53.2 0l113.2-101.2L1128 944H136.4zM840 512.8l360-320v712z" p-id="4285"></path></svg>