<svg width="193" height="22" viewBox="0 0 193 22" fill="none" xmlns="http://www.w3.org/2000/svg">
<g id="Frame 1000006103">
<path id="Event Rules" d="M51.472 5.8H59.472V7.416H53.36V10.568H58.832V12.168H53.36V15.384H59.664V17H51.472V5.8ZM60.516 8.504H62.436L64.804 15.304L67.14 8.504H68.98L65.716 17H63.812L60.516 8.504ZM75.8418 12.136C75.8204 11.656 75.7084 11.2507 75.5058 10.92C75.3138 10.5787 75.0418 10.3173 74.6898 10.136C74.3378 9.944 73.9324 9.848 73.4738 9.848C72.9618 9.848 72.5138 9.96533 72.1298 10.2C71.7564 10.4347 71.4631 10.7653 71.2498 11.192C71.0364 11.608 70.9298 12.0987 70.9298 12.664C70.9298 13.272 71.0418 13.8 71.2658 14.248C71.5004 14.696 71.8204 15.0427 72.2258 15.288C72.6418 15.5333 73.1164 15.656 73.6498 15.656C74.5991 15.656 75.3991 15.32 76.0498 14.648L77.0258 15.624C76.6098 16.0827 76.1031 16.44 75.5058 16.696C74.9084 16.9413 74.2418 17.064 73.5058 17.064C72.6311 17.064 71.8684 16.8827 71.2178 16.52C70.5671 16.1573 70.0604 15.656 69.6978 15.016C69.3351 14.3653 69.1538 13.6133 69.1538 12.76C69.1538 11.9067 69.3351 11.16 69.6978 10.52C70.0604 9.86933 70.5671 9.36267 71.2178 9C71.8684 8.63733 72.6151 8.45067 73.4578 8.44C74.4604 8.44 75.2658 8.648 75.8738 9.064C76.4818 9.46933 76.9138 10.0453 77.1698 10.792C77.4258 11.5387 77.5164 12.424 77.4418 13.448H70.6418V12.136H75.8418ZM85.664 12.2C85.664 11.5387 85.4827 11.0213 85.12 10.648C84.7573 10.264 84.256 10.072 83.616 10.072C82.8587 10.0827 82.2613 10.3493 81.824 10.872C81.3973 11.3947 81.184 12.0453 81.184 12.824H80.672C80.672 11.768 80.8213 10.92 81.12 10.28C81.4187 9.64 81.84 9.176 82.384 8.888C82.9387 8.58933 83.5893 8.44 84.336 8.44C84.9973 8.44 85.5627 8.57333 86.032 8.84C86.512 9.10667 86.8747 9.48533 87.12 9.976C87.376 10.456 87.504 11.0373 87.504 11.72V17H85.664V12.2ZM79.36 8.504H81.2V17H79.36V8.504ZM92.1294 14.312C92.1294 14.7707 92.2094 15.0853 92.3694 15.256C92.5294 15.416 92.7534 15.496 93.0414 15.496C93.2334 15.496 93.4307 15.464 93.6334 15.4C93.8467 15.336 94.076 15.24 94.3214 15.112L94.7854 16.44C94.4547 16.6427 94.1134 16.8027 93.7614 16.92C93.4094 17.0267 93.052 17.08 92.6894 17.08C92.2627 17.08 91.868 17 91.5054 16.84C91.1427 16.6693 90.8494 16.4027 90.6254 16.04C90.412 15.6773 90.3054 15.208 90.3054 14.632V6.488H92.1294V14.312ZM89.1054 8.808H94.6414V10.12H89.1054V8.808ZM105.454 5.8C106.894 5.8 108.003 6.136 108.782 6.808C109.571 7.46933 109.966 8.40267 109.966 9.608C109.966 10.8667 109.571 11.848 108.782 12.552C108.003 13.2453 106.894 13.592 105.454 13.592H102.798V17H100.91V5.8H105.454ZM105.454 11.976C106.318 11.976 106.984 11.7893 107.454 11.416C107.934 11.032 108.174 10.4453 108.174 9.656C108.174 8.89867 107.934 8.33867 107.454 7.976C106.984 7.60267 106.318 7.416 105.454 7.416H102.798V11.976H105.454ZM105.518 12.856H107.374L110.158 17H108.014L105.518 12.856ZM113.928 13.304C113.928 13.9653 114.104 14.488 114.456 14.872C114.808 15.2453 115.293 15.432 115.912 15.432C116.648 15.4107 117.219 15.1387 117.624 14.616C118.04 14.0933 118.248 13.448 118.248 12.68H118.744C118.744 13.7253 118.6 14.568 118.312 15.208C118.024 15.848 117.613 16.3173 117.08 16.616C116.557 16.904 115.933 17.0533 115.208 17.064C114.557 17.064 113.997 16.9307 113.528 16.664C113.069 16.3973 112.712 16.0187 112.456 15.528C112.211 15.0373 112.088 14.456 112.088 13.784V8.504H113.928V13.304ZM118.248 8.504H120.088V17H118.248V8.504ZM122.893 5.128H124.733V17H122.893V5.128ZM133.42 12.136C133.399 11.656 133.287 11.2507 133.084 10.92C132.892 10.5787 132.62 10.3173 132.268 10.136C131.916 9.944 131.511 9.848 131.052 9.848C130.54 9.848 130.092 9.96533 129.708 10.2C129.335 10.4347 129.041 10.7653 128.828 11.192C128.615 11.608 128.508 12.0987 128.508 12.664C128.508 13.272 128.62 13.8 128.844 14.248C129.079 14.696 129.399 15.0427 129.804 15.288C130.22 15.5333 130.695 15.656 131.228 15.656C132.177 15.656 132.977 15.32 133.628 14.648L134.604 15.624C134.188 16.0827 133.681 16.44 133.084 16.696C132.487 16.9413 131.82 17.064 131.084 17.064C130.209 17.064 129.447 16.8827 128.796 16.52C128.145 16.1573 127.639 15.656 127.276 15.016C126.913 14.3653 126.732 13.6133 126.732 12.76C126.732 11.9067 126.913 11.16 127.276 10.52C127.639 9.86933 128.145 9.36267 128.796 9C129.447 8.63733 130.193 8.45067 131.036 8.44C132.039 8.44 132.844 8.648 133.452 9.064C134.06 9.46933 134.492 10.0453 134.748 10.792C135.004 11.5387 135.095 12.424 135.02 13.448H128.22V12.136H133.42ZM141.786 10.568C141.413 10.344 141.002 10.168 140.554 10.04C140.117 9.90133 139.711 9.832 139.338 9.832C138.975 9.832 138.677 9.90133 138.442 10.04C138.207 10.1787 138.09 10.408 138.09 10.728C138.09 10.9947 138.197 11.208 138.41 11.368C138.634 11.5173 138.917 11.6453 139.258 11.752C139.599 11.8587 139.962 11.9707 140.346 12.088C140.73 12.2053 141.093 12.36 141.434 12.552C141.786 12.7333 142.069 12.984 142.282 13.304C142.495 13.624 142.602 14.0453 142.602 14.568C142.602 15.144 142.447 15.6187 142.138 15.992C141.839 16.3547 141.439 16.6267 140.938 16.808C140.447 16.9787 139.914 17.064 139.338 17.064C138.719 17.064 138.101 16.9627 137.482 16.76C136.863 16.5573 136.341 16.264 135.914 15.88L136.57 14.632C136.943 14.9627 137.397 15.224 137.93 15.416C138.463 15.5973 138.959 15.688 139.418 15.688C139.685 15.688 139.919 15.656 140.122 15.592C140.335 15.5173 140.501 15.4107 140.618 15.272C140.746 15.1333 140.81 14.952 140.81 14.728C140.81 14.4293 140.703 14.1947 140.49 14.024C140.277 13.8533 139.999 13.7147 139.658 13.608C139.317 13.4907 138.954 13.3787 138.57 13.272C138.186 13.1547 137.823 13.0053 137.482 12.824C137.151 12.6427 136.879 12.3973 136.666 12.088C136.453 11.7787 136.346 11.368 136.346 10.856C136.346 10.28 136.495 9.816 136.794 9.464C137.093 9.10133 137.477 8.84 137.946 8.68C138.426 8.50933 138.938 8.424 139.482 8.424C140.015 8.424 140.549 8.49867 141.082 8.648C141.615 8.79733 142.074 9.00533 142.458 9.272L141.786 10.568Z" fill="#7000FF"/>
<circle id="Ellipse 1697" cx="37" cy="11" r="3" fill="#7000FF"/>
<circle id="Ellipse 1698" cx="156" cy="11" r="3" fill="#7000FF"/>
<path id="Line 5" d="M34 11.5L0 11.5" stroke="#7000FF"/>
<path id="Line 6" d="M193 11.5L159 11.5" stroke="#7000FF"/>
</g>
</svg>
