<?xml version="1.0" standalone="no"?><!DOCTYPE svg PUBLIC "-//W3C//DTD SVG 1.1//EN" "http://www.w3.org/Graphics/SVG/1.1/DTD/svg11.dtd"><svg t="1737611172585" class="icon" viewBox="0 0 1024 1024" version="1.1" xmlns="http://www.w3.org/2000/svg" p-id="5194" id="mx_n_1737611172586" width="128" height="128" xmlns:xlink="http://www.w3.org/1999/xlink"><path d="M512 992C246.9032 992 32 777.0968 32 512S246.9032 32 512 32s480 214.9032 480 480-214.9032 480-480 480z m265.5312-670.5912c-14.9952-14.9952-39.3096-14.9952-54.3048 0L422.8472 621.788l-122.1888-122.1888c-14.9952-14.9952-39.3096-14.9952-54.3048 0-14.9976 14.9976-14.9976 39.3096 0 54.3072l149.34 149.34c14.9952 14.9976 39.3096 14.9976 54.3072 0l327.5304-327.5304c14.9976-14.9976 14.9976-39.3096 0-54.3072z" p-id="5195"></path></svg>