<?xml version="1.0" standalone="no"?><!DOCTYPE svg PUBLIC "-//W3C//DTD SVG 1.1//EN" "http://www.w3.org/Graphics/SVG/1.1/DTD/svg11.dtd"><svg t="1732152795801" class="icon" viewBox="0 0 1172 1024" version="1.1" xmlns="http://www.w3.org/2000/svg" p-id="12007" xmlns:xlink="http://www.w3.org/1999/xlink" width="146.5" height="128"><path d="M1157.411876 1010.257482h-1142.818052c-8.026603 0-14.593824-6.567221-14.593824-14.593824v-29.309264c0-8.026603 6.567221-14.593824 14.593824-14.593824h102.521615V424.193824c0-32.349644 26.268884-58.618527 58.618528-58.618527h234.474109v-117.237055c0-32.349644 26.268884-58.618527 58.618527-58.618527h234.47411V72.604276c0-32.349644 26.268884-58.618527 58.618527-58.618528h234.474109c32.349644 0 58.618527 26.268884 58.618527 58.618528v879.034679h102.521616c8.026603 0 14.593824 6.567221 14.593824 14.593824v29.309264c-0.121615 8.148219-6.688836 14.715439-14.71544 14.715439zM410.208076 424.193824H175.733967v527.445131h234.474109V424.193824z m292.971021-175.733967H468.826603v703.300713h234.47411V248.459857z m293.092637-175.855581H761.797625v879.034679h234.474109V72.604276z m0 0" p-id="12008"></path></svg>