<?xml version="1.0" standalone="no"?><!DOCTYPE svg PUBLIC "-//W3C//DTD SVG 1.1//EN" "http://www.w3.org/Graphics/SVG/1.1/DTD/svg11.dtd"><svg t="1732080362082" class="icon" viewBox="0 0 1117 1024" version="1.1" xmlns="http://www.w3.org/2000/svg" p-id="5275" xmlns:xlink="http://www.w3.org/1999/xlink" width="139.625" height="128"><path d="M977.454545 162.909091H605.090909h32.581818l27.927273-46.545455c9.309091-13.963636 23.272727-23.272727 39.563636-23.272727 6.981818 0 16.290909 2.327273 23.272728 6.981818l60.509091 34.909091c11.636364 4.654545 18.618182 16.290909 20.945454 27.927273h93.090909c0-9.309091-2.327273-16.290909-4.654545-25.6-9.309091-34.909091-32.581818-65.163636-65.163637-83.781818L772.654545 18.618182c-20.945455-11.636364-44.218182-18.618182-69.818181-18.618182-48.872727 0-95.418182 25.6-121.018182 69.818182l-23.272727 44.218182L532.945455 69.818182c-25.6-41.890909-72.145455-69.818182-121.018182-69.818182-23.272727 0-48.872727 6.981818-69.818182 18.618182l-60.509091 34.909091c-32.581818 18.618182-55.854545 48.872727-65.163636 83.781818-2.327273 9.309091-4.654545 16.290909-4.654546 25.6h93.090909c2.327273-11.636364 11.636364-23.272727 20.945455-27.927273l60.509091-34.909091c9.309091-4.654545 16.290909-6.981818 25.6-6.981818 16.290909 0 32.581818 9.309091 39.563636 23.272727l27.927273 46.545455H512 139.636364C62.836364 162.909091 0 225.745455 0 302.545455v93.090909c0 51.2 27.927273 95.418182 69.818182 121.018181V837.818182c0 102.4 83.781818 186.181818 186.181818 186.181818h605.090909c102.4 0 186.181818-83.781818 186.181818-186.181818V516.654545c41.890909-23.272727 69.818182-69.818182 69.818182-121.018181v-93.090909c0-76.8-62.836364-139.636364-139.636364-139.636364z m0 93.090909c25.6 0 46.545455 20.945455 46.545455 46.545455v93.090909c0 25.6-20.945455 46.545455-46.545455 46.545454H605.090909v-186.181818h372.363636zM93.090909 302.545455c0-25.6 20.945455-46.545455 46.545455-46.545455h372.363636v186.181818H139.636364c-25.6 0-46.545455-20.945455-46.545455-46.545454v-93.090909z m768 628.363636H256c-51.2 0-93.090909-41.890909-93.090909-93.090909V535.272727h349.090909v395.636364h93.090909V535.272727h349.090909v302.545455c0 51.2-41.890909 93.090909-93.090909 93.090909z" p-id="5276"></path></svg>
