<?xml version="1.0" standalone="no"?><!DOCTYPE svg PUBLIC "-//W3C//DTD SVG 1.1//EN" "http://www.w3.org/Graphics/SVG/1.1/DTD/svg11.dtd"><svg t="1758423072885" class="icon" viewBox="0 0 1024 1024" version="1.1" xmlns="http://www.w3.org/2000/svg" p-id="169246" xmlns:xlink="http://www.w3.org/1999/xlink" width="48" height="48"><path d="M512.84 64.56L125.32 288.3v447.47l387.52 223.74 387.53-223.74V288.3z" fill="#5D11A0" p-id="169247"></path><path d="M363.86 709.96c0 66.41 14.33 129.37 39.62 186.41l109.37 63.14 387.52-223.74V288.3l-66.77-38.55c-3.05-0.06-6-0.46-9.07-0.46-254.42 0-460.67 206.25-460.67 460.67z" fill="#7A28BF" p-id="169248"></path><path d="M875.35 273.86c1.2 13.52 2.07 27.13 2.07 40.96 0 253.32-205.36 458.68-458.68 458.68-111.63 0-213.88-39.95-293.41-106.24v68.51l387.52 223.74 387.52-223.74V288.3l-25.02-14.44z" fill="#7214AC" p-id="169249"></path><path d="M512.62 959.51L124.87 735.66V287.92L512.62 64.03l387.75 223.89v447.74L512.62 959.51zM160.69 714.98l351.93 203.17 351.93-203.17V308.6L512.62 105.39 160.69 308.6v406.38z" fill="#9E4AD1" p-id="169250"></path><path d="M733.39 425.89v281.92c0 20.33-16.39 37.02-36.72 37.02h-367.8c-17.3 0-31.86-11.84-35.81-27.92-0.91-3.04-1.22-6.07-1.22-9.11V315.42c0-20.33 16.69-36.72 37.02-36.72h294.36c20.33 0 36.72 16.39 36.72 36.72v73.44h36.72c20.34 0 36.73 16.7 36.73 37.03z" fill="#FD6800" p-id="169251"></path><path d="M733.39 425.89v215.46c-78.3 53.71-190.58 87.4-315.61 87.4-43.4 0-85.27-3.95-124.72-11.83-0.91-3.04-1.22-6.07-1.22-9.11V315.42c0-20.33 16.69-36.72 37.02-36.72h294.36c20.33 0 36.72 16.39 36.72 36.72v73.44h36.72c20.34 0 36.73 16.7 36.73 37.03z" fill="#FEA13C" p-id="169252"></path><path d="M733.39 425.89v215.46c-78.3 53.71-190.58 87.4-315.61 87.4-43.4 0-85.27-3.95-124.72-11.83-0.91-3.04-1.22-6.07-1.22-9.11V361.55c56.45-35.2 128.06-56.14 206.36-56.14 58.87 0 113.8 11.84 161.75 32.77v50.68h36.72c20.33 0 36.72 16.7 36.72 37.03z" fill="#FF812A" p-id="169253"></path><path d="M659.9 646.59v42.93c0 9.48 7.2 17.4 16.63 18.31l1.77 0.09c9.48 0 17.4-7.2 18.31-16.63l0.09-1.77V438.08c0-6.77-5.49-12.27-12.27-12.27H659.9v220.78zM567.91 609.79H383.93c-10.16 0.01-18.39 8.25-18.39 18.41 0 9.47 7.2 17.39 16.62 18.3l1.77 0.09h183.98c10.16 0 18.4-8.24 18.4-18.4s-8.24-18.4-18.4-18.4zM567.91 511.67H383.93c-10.16 0.01-18.39 8.25-18.39 18.41 0 9.47 7.2 17.39 16.62 18.3l1.77 0.09h183.98c10.16 0 18.4-8.24 18.4-18.4s-8.24-18.4-18.4-18.4zM488.18 376.75H377.79c-6.22 0-11.45 4.65-12.18 10.83l-0.09 1.44v49.06c0 6.22 4.65 11.45 10.83 12.18l1.44 0.09h110.39c6.22 0 11.45-4.65 12.18-10.83l0.09-1.44v-49.06c0-6.78-5.49-12.27-12.27-12.27z" fill="#FFFFFF" p-id="169254"></path></svg>