<?xml version="1.0" standalone="no"?><!DOCTYPE svg PUBLIC "-//W3C//DTD SVG 1.1//EN" "http://www.w3.org/Graphics/SVG/1.1/DTD/svg11.dtd"><svg t="1758420785937" class="icon" viewBox="0 0 1024 1024" version="1.1" xmlns="http://www.w3.org/2000/svg" p-id="18930" xmlns:xlink="http://www.w3.org/1999/xlink" width="48" height="48"><path d="M512.84 64.56L125.32 288.3v447.47l387.52 223.74 387.53-223.74V288.3z" fill="#5D11A0" p-id="18931"></path><path d="M363.86 709.96c0 66.41 14.33 129.37 39.62 186.41l109.37 63.14 387.52-223.74V288.3l-66.77-38.55c-3.05-0.06-6-0.46-9.07-0.46-254.42 0-460.67 206.25-460.67 460.67z" fill="#7A28BF" p-id="18932"></path><path d="M875.35 273.86c1.2 13.52 2.07 27.13 2.07 40.96 0 253.32-205.36 458.68-458.68 458.68-111.63 0-213.88-39.95-293.41-106.24v68.51l387.52 223.74 387.52-223.74V288.3l-25.02-14.44z" fill="#7214AC" p-id="18933"></path><path d="M512.62 959.51L124.87 735.66V287.92L512.62 64.03l387.75 223.89v447.74L512.62 959.51zM160.69 714.98l351.93 203.17 351.93-203.17V308.6L512.62 105.39 160.69 308.6v406.38z" fill="#9E4AD1" p-id="18934"></path><path d="M735.99 432.55v158.43c0 25.37-13.92 48.57-36.13 60.51l-116.78 62.88-37.91 20.43a68.656 68.656 0 0 1-65.15 0l-154.67-83.3c-22.21-11.94-36.13-35.24-36.13-60.51V432.55c0-3.75 0.3-7.5 0.89-11.15 3.45-20.83 16.39-39.19 35.24-49.36l154.68-83.31a68.656 68.656 0 0 1 65.15 0l154.68 83.31c22.21 11.95 36.13 35.24 36.13 60.51z" fill="#FF812A" p-id="18935"></path><path d="M583.08 714.38l-37.91 20.43a68.656 68.656 0 0 1-65.15 0L325.35 651.5c-22.21-11.94-36.13-35.24-36.13-60.51V432.55c0-3.75 0.3-7.5 0.89-11.15l292.97 292.98z" fill="#FD6800" p-id="18936"></path><path d="M480.04 288.76a68.73 68.73 0 0 1 65.16 0l168.12 90.54c20.98 11.29 28.83 37.46 17.54 58.44-4 7.44-10.1 13.54-17.54 17.54l-168.1 90.52a68.73 68.73 0 0 1-65.16 0l-168.13-90.55c-20.98-11.29-28.83-37.46-17.54-58.44 4-7.44 10.1-13.54 17.54-17.54l168.1-90.52 0.01 0.01z" fill="#FEA13C" p-id="18937"></path><path d="M504.87 407.76c2.05-4.28 7.18-6.09 11.46-4.04 1.77 0.85 3.19 2.27 4.04 4.04l24.9 52.13a8.592 8.592 0 0 0 6.63 4.81l57.29 7.56c4.7 0.63 8 4.95 7.37 9.66a8.611 8.611 0 0 1-2.6 5.09l-41.89 39.78a8.6 8.6 0 0 0-2.54 7.8l10.53 56.81c0.86 4.67-2.23 9.15-6.9 10-1.93 0.35-3.92 0.04-5.65-0.9l-50.78-27.56a8.603 8.603 0 0 0-8.21 0l-50.78 27.56c-4.17 2.26-9.39 0.71-11.65-3.46a8.655 8.655 0 0 1-0.9-5.65l10.52-56.81c0.53-2.86-0.42-5.8-2.53-7.8L411.31 487c-3.44-3.27-3.58-8.71-0.31-12.15a8.583 8.583 0 0 1 5.09-2.6l57.29-7.56a8.592 8.592 0 0 0 6.63-4.81l24.88-52.13-0.02 0.01z" fill="#FFFFFF" p-id="18938"></path></svg>