<svg width="34" height="34" viewBox="0 0 34 34" fill="none" xmlns="http://www.w3.org/2000/svg">
<g id="Frame 1000006114">
<rect id="Rectangle 34625525" width="34" height="34" rx="8" fill="#7000FF"/>
<g id="Frame">
<path id="Vector" d="M8.409 12.1034C8.409 12.6832 8.63121 13.2573 9.06295 13.7929C9.49469 14.3286 10.1275 14.8153 10.9253 15.2252C11.723 15.6352 12.6701 15.9604 13.7124 16.1823C14.7547 16.4042 15.8718 16.5184 17 16.5184C18.1282 16.5184 19.2454 16.4042 20.2877 16.1823C21.33 15.9604 22.277 15.6352 23.0748 15.2252C23.8726 14.8153 24.5054 14.3286 24.9371 13.7929C25.3688 13.2573 25.5911 12.6832 25.5911 12.1034C25.5911 10.9325 24.6859 9.80954 23.0748 8.98158C21.4637 8.15362 19.2785 7.68848 17 7.68848C14.7215 7.68848 12.5364 8.15362 10.9253 8.98158C9.31412 9.80954 8.409 10.9325 8.409 12.1034Z" fill="white"/>
<path id="Vector_2" d="M17 17.8466C13.4909 17.8466 10.4732 16.7654 9.13954 15.2158C8.66996 15.7614 8.409 16.365 8.409 17C8.409 19.4383 12.2553 21.4149 17 21.4149C21.7447 21.4149 25.5911 19.4383 25.5911 17C25.5911 16.365 25.3301 15.7614 24.8605 15.2158C23.5268 16.7654 20.5092 17.8466 17 17.8466Z" fill="white"/>
<path id="Vector_3" d="M17 22.8645C13.445 22.8645 10.3945 21.7549 9.08806 20.1729C8.65084 20.7023 8.40894 21.2847 8.40894 21.8961C8.40894 24.3344 12.2553 26.311 17 26.311C21.7447 26.311 25.591 24.3344 25.591 21.8961C25.591 21.2847 25.3491 20.7023 24.9119 20.1729C23.6055 21.7549 20.5549 22.8645 17 22.8645Z" fill="white"/>
</g>
</g>
</svg>
