<svg width="34" height="34" viewBox="0 0 34 34" fill="none" xmlns="http://www.w3.org/2000/svg">
<g id="Frame 1000006113">
<rect id="Rectangle 34625525" width="34" height="34" rx="8" fill="#7000FF"/>
<g id="Frame" clip-path="url(#clip0_6828_20675)">
<path id="Vector" d="M25.8555 13.6945C25.4745 12.674 24.923 11.7332 24.2165 10.8983C23.8597 10.4767 23.2287 10.4242 22.8071 10.7809C22.3855 11.1377 22.333 11.7687 22.6898 12.1903C23.8249 13.5316 24.45 15.2397 24.45 16.9998C24.45 21.1077 21.1079 24.4498 17 24.4498C12.892 24.4498 9.54999 21.1077 9.54999 16.9998C9.54999 12.8919 12.892 9.5498 17 9.5498C18.1814 9.5498 19.3107 9.8179 20.3565 10.3467C20.8492 10.5958 21.4509 10.3984 21.7001 9.9055C21.9493 9.41265 21.7518 8.81108 21.2589 8.56188C19.9307 7.8903 18.4978 7.5498 17 7.5498C15.7247 7.5498 14.487 7.7998 13.3213 8.29285C12.1959 8.76888 11.1854 9.4501 10.3178 10.3177C9.45029 11.1852 8.76904 12.1957 8.29304 13.3211C7.79999 14.4868 7.54999 15.7245 7.54999 16.9998C7.54999 18.2751 7.79999 19.5128 8.29304 20.6785C8.76906 21.8039 9.45029 22.8144 10.3178 23.682C11.1854 24.5495 12.1959 25.2308 13.3213 25.7068C14.487 26.1998 15.7247 26.4498 17 26.4498C18.2753 26.4498 19.513 26.1998 20.6787 25.7068C21.8041 25.2308 22.8146 24.5495 23.6821 23.682C24.5497 22.8144 25.2309 21.8039 25.7069 20.6785C26.2 19.5128 26.45 18.2751 26.45 16.9998C26.45 15.863 26.25 14.7509 25.8555 13.6945Z" fill="white"/>
<path id="Vector_2" d="M19.7956 13.336L18.9992 14.0517C16.7056 16.2247 14.878 18.9029 14.878 18.9029L13.5386 16.311L10.4957 17.7904C11.783 18.2492 13.7526 19.8856 15.0521 21.4877L15.0557 21.4884C15.8186 20.0947 18.484 17.602 20.3872 16.3296L21.1351 15.8729C21.4298 15.7137 21.6874 15.6045 21.8929 15.5589C21.3063 14.2215 21.8209 13.1347 21.9044 11.8809C21.1971 12.2427 20.4836 12.7536 19.7956 13.336Z" fill="white"/>
</g>
</g>
<defs>
<clipPath id="clip0_6828_20675">
<rect width="20" height="20" fill="white" transform="translate(7 7)"/>
</clipPath>
</defs>
</svg>
