<svg width="193" height="17" viewBox="0 0 193 17" fill="none" xmlns="http://www.w3.org/2000/svg">
<g id="Frame 1000006090">
<line id="Line 1" x1="26" y1="8.5" y2="8.5" stroke="url(#paint0_linear_6812_3274)"/>
<line id="Line 2" y1="-0.5" x2="26" y2="-0.5" transform="matrix(1 0 0 -1 167 8)" stroke="url(#paint1_linear_6812_3274)"/>
<path id="Invited successfully" d="M37.5703 3.04688V13H36.251V3.04688H37.5703ZM41.043 7.18262V13H39.7783V5.60352H40.9746L41.043 7.18262ZM40.7422 9.02148L40.2158 9.00098C40.2204 8.49512 40.2956 8.02799 40.4414 7.59961C40.5872 7.16667 40.7923 6.79069 41.0566 6.47168C41.321 6.15267 41.6354 5.90658 42 5.7334C42.3691 5.55566 42.777 5.4668 43.2236 5.4668C43.5882 5.4668 43.9163 5.51693 44.208 5.61719C44.4997 5.71289 44.748 5.86784 44.9531 6.08203C45.1628 6.29622 45.3223 6.57422 45.4316 6.91602C45.541 7.25326 45.5957 7.66569 45.5957 8.15332V13H44.3242V8.13965C44.3242 7.75228 44.2673 7.44238 44.1533 7.20996C44.0394 6.97298 43.873 6.80208 43.6543 6.69727C43.4355 6.58789 43.1667 6.5332 42.8477 6.5332C42.5332 6.5332 42.2461 6.59928 41.9863 6.73145C41.7311 6.86361 41.5101 7.0459 41.3232 7.27832C41.141 7.51074 40.9974 7.77734 40.8926 8.07812C40.7923 8.37435 40.7422 8.6888 40.7422 9.02148ZM49.7656 11.8584L51.7891 5.60352H53.0811L50.4219 13H49.5742L49.7656 11.8584ZM48.0771 5.60352L50.1621 11.8926L50.3057 13H49.458L46.7783 5.60352H48.0771ZM55.6719 5.60352V13H54.4004V5.60352H55.6719ZM54.3047 3.6416C54.3047 3.43652 54.3662 3.26335 54.4893 3.12207C54.6169 2.98079 54.8037 2.91016 55.0498 2.91016C55.2913 2.91016 55.4759 2.98079 55.6035 3.12207C55.7357 3.26335 55.8018 3.43652 55.8018 3.6416C55.8018 3.83757 55.7357 4.00618 55.6035 4.14746C55.4759 4.28418 55.2913 4.35254 55.0498 4.35254C54.8037 4.35254 54.6169 4.28418 54.4893 4.14746C54.3662 4.00618 54.3047 3.83757 54.3047 3.6416ZM60.7988 5.60352V6.57422H56.7998V5.60352H60.7988ZM58.1533 3.80566H59.418V11.168C59.418 11.4186 59.4567 11.6077 59.5342 11.7354C59.6117 11.863 59.7119 11.9473 59.835 11.9883C59.958 12.0293 60.0902 12.0498 60.2314 12.0498C60.3363 12.0498 60.4456 12.0407 60.5596 12.0225C60.6781 11.9997 60.7669 11.9814 60.8262 11.9678L60.833 13C60.7327 13.0319 60.6006 13.0615 60.4365 13.0889C60.277 13.1208 60.0833 13.1367 59.8555 13.1367C59.5456 13.1367 59.2607 13.0752 59.001 12.9521C58.7412 12.8291 58.5339 12.624 58.3789 12.3369C58.2285 12.0452 58.1533 11.6533 58.1533 11.1611V3.80566ZM65.3516 13.1367C64.8366 13.1367 64.3695 13.0501 63.9502 12.877C63.5355 12.6992 63.1777 12.4508 62.877 12.1318C62.5807 11.8128 62.3529 11.4346 62.1934 10.9971C62.0339 10.5596 61.9541 10.0811 61.9541 9.56152V9.27441C61.9541 8.67285 62.043 8.13737 62.2207 7.66797C62.3984 7.19401 62.64 6.79297 62.9453 6.46484C63.2507 6.13672 63.597 5.88835 63.9844 5.71973C64.3717 5.55111 64.7728 5.4668 65.1875 5.4668C65.7161 5.4668 66.1719 5.55794 66.5547 5.74023C66.9421 5.92253 67.2588 6.17773 67.5049 6.50586C67.751 6.82943 67.9333 7.21224 68.0518 7.6543C68.1702 8.0918 68.2295 8.57031 68.2295 9.08984V9.65723H62.7061V8.625H66.9648V8.5293C66.9466 8.20117 66.8783 7.88216 66.7598 7.57227C66.6458 7.26237 66.4635 7.00716 66.2129 6.80664C65.9622 6.60612 65.6204 6.50586 65.1875 6.50586C64.9004 6.50586 64.6361 6.56738 64.3945 6.69043C64.153 6.80892 63.9456 6.98665 63.7725 7.22363C63.5993 7.46061 63.4648 7.75 63.3691 8.0918C63.2734 8.43359 63.2256 8.8278 63.2256 9.27441V9.56152C63.2256 9.91243 63.2734 10.2428 63.3691 10.5527C63.4694 10.8581 63.613 11.127 63.7998 11.3594C63.9912 11.5918 64.2214 11.7741 64.4902 11.9062C64.7637 12.0384 65.0736 12.1045 65.4199 12.1045C65.8665 12.1045 66.2448 12.0133 66.5547 11.8311C66.8646 11.6488 67.1357 11.4049 67.3682 11.0996L68.1338 11.708C67.9743 11.9495 67.7715 12.1797 67.5254 12.3984C67.2793 12.6172 66.9762 12.7949 66.6162 12.9316C66.2607 13.0684 65.8392 13.1367 65.3516 13.1367ZM74.3682 11.5645V2.5H75.6396V13H74.4775L74.3682 11.5645ZM69.3916 9.38379V9.24023C69.3916 8.67513 69.46 8.16243 69.5967 7.70215C69.738 7.2373 69.9362 6.83854 70.1914 6.50586C70.4512 6.17318 70.7588 5.91797 71.1143 5.74023C71.4743 5.55794 71.8753 5.4668 72.3174 5.4668C72.7822 5.4668 73.1878 5.54883 73.5342 5.71289C73.8851 5.8724 74.1813 6.1071 74.4229 6.41699C74.6689 6.72233 74.8626 7.09147 75.0039 7.52441C75.1452 7.95736 75.2432 8.44727 75.2979 8.99414V9.62305C75.2477 10.1654 75.1497 10.653 75.0039 11.0859C74.8626 11.5189 74.6689 11.888 74.4229 12.1934C74.1813 12.4987 73.8851 12.7334 73.5342 12.8975C73.1833 13.057 72.7731 13.1367 72.3037 13.1367C71.8708 13.1367 71.4743 13.0433 71.1143 12.8564C70.7588 12.6696 70.4512 12.4076 70.1914 12.0703C69.9362 11.7331 69.738 11.3366 69.5967 10.8809C69.46 10.4206 69.3916 9.92155 69.3916 9.38379ZM70.6631 9.24023V9.38379C70.6631 9.75293 70.6995 10.0993 70.7725 10.4229C70.8499 10.7464 70.9684 11.0312 71.1279 11.2773C71.2874 11.5234 71.4902 11.7171 71.7363 11.8584C71.9824 11.9951 72.2764 12.0635 72.6182 12.0635C73.0374 12.0635 73.3815 11.9746 73.6504 11.7969C73.9238 11.6191 74.1426 11.3844 74.3066 11.0928C74.4707 10.8011 74.5983 10.4844 74.6895 10.1426V8.49512C74.6348 8.24447 74.555 8.00293 74.4502 7.77051C74.3499 7.53353 74.2178 7.32389 74.0537 7.1416C73.8942 6.95475 73.696 6.80664 73.459 6.69727C73.2266 6.58789 72.9508 6.5332 72.6318 6.5332C72.2855 6.5332 71.987 6.60612 71.7363 6.75195C71.4902 6.89323 71.2874 7.08919 71.1279 7.33984C70.9684 7.58594 70.8499 7.87305 70.7725 8.20117C70.6995 8.52474 70.6631 8.87109 70.6631 9.24023ZM85.3877 11.0381C85.3877 10.8558 85.3467 10.6872 85.2646 10.5322C85.1872 10.3727 85.0254 10.2292 84.7793 10.1016C84.5378 9.9694 84.1732 9.85547 83.6855 9.75977C83.2754 9.67318 82.904 9.57064 82.5713 9.45215C82.2432 9.33366 81.9629 9.1901 81.7305 9.02148C81.5026 8.85286 81.3271 8.65462 81.2041 8.42676C81.0811 8.19889 81.0195 7.93229 81.0195 7.62695C81.0195 7.33529 81.0833 7.05957 81.2109 6.7998C81.3431 6.54004 81.5277 6.3099 81.7646 6.10938C82.0062 5.90885 82.2956 5.75163 82.6328 5.6377C82.9701 5.52376 83.346 5.4668 83.7607 5.4668C84.3532 5.4668 84.859 5.57161 85.2783 5.78125C85.6976 5.99089 86.0189 6.27116 86.2422 6.62207C86.4655 6.96842 86.5771 7.35352 86.5771 7.77734H85.3125C85.3125 7.57227 85.251 7.37402 85.1279 7.18262C85.0094 6.98665 84.834 6.82487 84.6016 6.69727C84.3737 6.56966 84.0934 6.50586 83.7607 6.50586C83.4098 6.50586 83.125 6.56055 82.9062 6.66992C82.6921 6.77474 82.5348 6.90918 82.4346 7.07324C82.3389 7.2373 82.291 7.41048 82.291 7.59277C82.291 7.72949 82.3138 7.85254 82.3594 7.96191C82.4095 8.06673 82.4961 8.16471 82.6191 8.25586C82.7422 8.34245 82.9154 8.42448 83.1387 8.50195C83.362 8.57943 83.6468 8.6569 83.9932 8.73438C84.5993 8.87109 85.0983 9.03516 85.4902 9.22656C85.8822 9.41797 86.1738 9.65267 86.3652 9.93066C86.5566 10.2087 86.6523 10.5459 86.6523 10.9424C86.6523 11.266 86.584 11.5622 86.4473 11.8311C86.3151 12.0999 86.1214 12.3324 85.8662 12.5283C85.6156 12.7197 85.3148 12.8701 84.9639 12.9795C84.6175 13.0843 84.2279 13.1367 83.7949 13.1367C83.1432 13.1367 82.5918 13.0205 82.1406 12.7881C81.6895 12.5557 81.3477 12.2549 81.1152 11.8857C80.8828 11.5166 80.7666 11.127 80.7666 10.7168H82.0381C82.0563 11.0632 82.1566 11.3389 82.3389 11.5439C82.5212 11.7445 82.7445 11.888 83.0088 11.9746C83.2731 12.0566 83.5352 12.0977 83.7949 12.0977C84.1413 12.0977 84.4307 12.0521 84.6631 11.9609C84.9001 11.8698 85.0801 11.7445 85.2031 11.585C85.3262 11.4255 85.3877 11.2432 85.3877 11.0381ZM92.8389 11.291V5.60352H94.1104V13H92.9004L92.8389 11.291ZM93.0781 9.73242L93.6045 9.71875C93.6045 10.2109 93.5521 10.6667 93.4473 11.0859C93.347 11.5007 93.1829 11.8607 92.9551 12.166C92.7272 12.4714 92.4287 12.7106 92.0596 12.8838C91.6904 13.0524 91.2415 13.1367 90.7129 13.1367C90.3529 13.1367 90.0225 13.0843 89.7217 12.9795C89.4255 12.8747 89.1702 12.7129 88.9561 12.4941C88.7419 12.2754 88.5755 11.9906 88.457 11.6396C88.3431 11.2887 88.2861 10.8672 88.2861 10.375V5.60352H89.5508V10.3887C89.5508 10.7214 89.5872 10.9971 89.6602 11.2158C89.7376 11.43 89.8402 11.6009 89.9678 11.7285C90.0999 11.8516 90.2458 11.9382 90.4053 11.9883C90.5693 12.0384 90.738 12.0635 90.9111 12.0635C91.4489 12.0635 91.875 11.9609 92.1895 11.7559C92.5039 11.5462 92.7295 11.266 92.8662 10.915C93.0075 10.5596 93.0781 10.1654 93.0781 9.73242ZM98.998 12.0977C99.2988 12.0977 99.5768 12.0361 99.832 11.9131C100.087 11.79 100.297 11.6214 100.461 11.4072C100.625 11.1885 100.718 10.9401 100.741 10.6621H101.944C101.922 11.0996 101.773 11.5075 101.5 11.8857C101.231 12.2594 100.878 12.5625 100.44 12.7949C100.003 13.0228 99.5221 13.1367 98.998 13.1367C98.4421 13.1367 97.9567 13.0387 97.542 12.8428C97.1318 12.6468 96.79 12.3779 96.5166 12.0361C96.2477 11.6943 96.0449 11.3024 95.9082 10.8604C95.776 10.4137 95.71 9.94206 95.71 9.44531V9.1582C95.71 8.66146 95.776 8.19206 95.9082 7.75C96.0449 7.30339 96.2477 6.90918 96.5166 6.56738C96.79 6.22559 97.1318 5.95671 97.542 5.76074C97.9567 5.56478 98.4421 5.4668 98.998 5.4668C99.5768 5.4668 100.083 5.58529 100.516 5.82227C100.949 6.05469 101.288 6.3737 101.534 6.7793C101.785 7.18034 101.922 7.63607 101.944 8.14648H100.741C100.718 7.84115 100.632 7.56543 100.481 7.31934C100.336 7.07324 100.135 6.87728 99.8799 6.73145C99.6292 6.58105 99.3353 6.50586 98.998 6.50586C98.6107 6.50586 98.2848 6.58333 98.0205 6.73828C97.7607 6.88867 97.5534 7.09375 97.3984 7.35352C97.248 7.60872 97.1387 7.89355 97.0703 8.20801C97.0065 8.5179 96.9746 8.83464 96.9746 9.1582V9.44531C96.9746 9.76888 97.0065 10.0879 97.0703 10.4023C97.1341 10.7168 97.2412 11.0016 97.3916 11.2568C97.5465 11.512 97.7539 11.7171 98.0137 11.8721C98.278 12.0225 98.6061 12.0977 98.998 12.0977ZM106.326 12.0977C106.627 12.0977 106.905 12.0361 107.16 11.9131C107.415 11.79 107.625 11.6214 107.789 11.4072C107.953 11.1885 108.047 10.9401 108.069 10.6621H109.272C109.25 11.0996 109.102 11.5075 108.828 11.8857C108.559 12.2594 108.206 12.5625 107.769 12.7949C107.331 13.0228 106.85 13.1367 106.326 13.1367C105.77 13.1367 105.285 13.0387 104.87 12.8428C104.46 12.6468 104.118 12.3779 103.845 12.0361C103.576 11.6943 103.373 11.3024 103.236 10.8604C103.104 10.4137 103.038 9.94206 103.038 9.44531V9.1582C103.038 8.66146 103.104 8.19206 103.236 7.75C103.373 7.30339 103.576 6.90918 103.845 6.56738C104.118 6.22559 104.46 5.95671 104.87 5.76074C105.285 5.56478 105.77 5.4668 106.326 5.4668C106.905 5.4668 107.411 5.58529 107.844 5.82227C108.277 6.05469 108.616 6.3737 108.862 6.7793C109.113 7.18034 109.25 7.63607 109.272 8.14648H108.069C108.047 7.84115 107.96 7.56543 107.81 7.31934C107.664 7.07324 107.463 6.87728 107.208 6.73145C106.957 6.58105 106.663 6.50586 106.326 6.50586C105.939 6.50586 105.613 6.58333 105.349 6.73828C105.089 6.88867 104.882 7.09375 104.727 7.35352C104.576 7.60872 104.467 7.89355 104.398 8.20801C104.335 8.5179 104.303 8.83464 104.303 9.1582V9.44531C104.303 9.76888 104.335 10.0879 104.398 10.4023C104.462 10.7168 104.569 11.0016 104.72 11.2568C104.875 11.512 105.082 11.7171 105.342 11.8721C105.606 12.0225 105.934 12.0977 106.326 12.0977ZM113.764 13.1367C113.249 13.1367 112.782 13.0501 112.362 12.877C111.948 12.6992 111.59 12.4508 111.289 12.1318C110.993 11.8128 110.765 11.4346 110.605 10.9971C110.446 10.5596 110.366 10.0811 110.366 9.56152V9.27441C110.366 8.67285 110.455 8.13737 110.633 7.66797C110.811 7.19401 111.052 6.79297 111.357 6.46484C111.663 6.13672 112.009 5.88835 112.396 5.71973C112.784 5.55111 113.185 5.4668 113.6 5.4668C114.128 5.4668 114.584 5.55794 114.967 5.74023C115.354 5.92253 115.671 6.17773 115.917 6.50586C116.163 6.82943 116.345 7.21224 116.464 7.6543C116.582 8.0918 116.642 8.57031 116.642 9.08984V9.65723H111.118V8.625H115.377V8.5293C115.359 8.20117 115.29 7.88216 115.172 7.57227C115.058 7.26237 114.876 7.00716 114.625 6.80664C114.374 6.60612 114.033 6.50586 113.6 6.50586C113.312 6.50586 113.048 6.56738 112.807 6.69043C112.565 6.80892 112.358 6.98665 112.185 7.22363C112.011 7.46061 111.877 7.75 111.781 8.0918C111.686 8.43359 111.638 8.8278 111.638 9.27441V9.56152C111.638 9.91243 111.686 10.2428 111.781 10.5527C111.882 10.8581 112.025 11.127 112.212 11.3594C112.403 11.5918 112.633 11.7741 112.902 11.9062C113.176 12.0384 113.486 12.1045 113.832 12.1045C114.279 12.1045 114.657 12.0133 114.967 11.8311C115.277 11.6488 115.548 11.4049 115.78 11.0996L116.546 11.708C116.386 11.9495 116.184 12.1797 115.938 12.3984C115.691 12.6172 115.388 12.7949 115.028 12.9316C114.673 13.0684 114.251 13.1367 113.764 13.1367ZM122.425 11.0381C122.425 10.8558 122.384 10.6872 122.302 10.5322C122.224 10.3727 122.062 10.2292 121.816 10.1016C121.575 9.9694 121.21 9.85547 120.723 9.75977C120.312 9.67318 119.941 9.57064 119.608 9.45215C119.28 9.33366 119 9.1901 118.768 9.02148C118.54 8.85286 118.364 8.65462 118.241 8.42676C118.118 8.19889 118.057 7.93229 118.057 7.62695C118.057 7.33529 118.12 7.05957 118.248 6.7998C118.38 6.54004 118.565 6.3099 118.802 6.10938C119.043 5.90885 119.333 5.75163 119.67 5.6377C120.007 5.52376 120.383 5.4668 120.798 5.4668C121.39 5.4668 121.896 5.57161 122.315 5.78125C122.735 5.99089 123.056 6.27116 123.279 6.62207C123.503 6.96842 123.614 7.35352 123.614 7.77734H122.35C122.35 7.57227 122.288 7.37402 122.165 7.18262C122.047 6.98665 121.871 6.82487 121.639 6.69727C121.411 6.56966 121.131 6.50586 120.798 6.50586C120.447 6.50586 120.162 6.56055 119.943 6.66992C119.729 6.77474 119.572 6.90918 119.472 7.07324C119.376 7.2373 119.328 7.41048 119.328 7.59277C119.328 7.72949 119.351 7.85254 119.396 7.96191C119.447 8.06673 119.533 8.16471 119.656 8.25586C119.779 8.34245 119.952 8.42448 120.176 8.50195C120.399 8.57943 120.684 8.6569 121.03 8.73438C121.636 8.87109 122.135 9.03516 122.527 9.22656C122.919 9.41797 123.211 9.65267 123.402 9.93066C123.594 10.2087 123.689 10.5459 123.689 10.9424C123.689 11.266 123.621 11.5622 123.484 11.8311C123.352 12.0999 123.159 12.3324 122.903 12.5283C122.653 12.7197 122.352 12.8701 122.001 12.9795C121.655 13.0843 121.265 13.1367 120.832 13.1367C120.18 13.1367 119.629 13.0205 119.178 12.7881C118.727 12.5557 118.385 12.2549 118.152 11.8857C117.92 11.5166 117.804 11.127 117.804 10.7168H119.075C119.093 11.0632 119.194 11.3389 119.376 11.5439C119.558 11.7445 119.782 11.888 120.046 11.9746C120.31 12.0566 120.572 12.0977 120.832 12.0977C121.178 12.0977 121.468 12.0521 121.7 11.9609C121.937 11.8698 122.117 11.7445 122.24 11.585C122.363 11.4255 122.425 11.2432 122.425 11.0381ZM129.657 11.0381C129.657 10.8558 129.616 10.6872 129.534 10.5322C129.457 10.3727 129.295 10.2292 129.049 10.1016C128.807 9.9694 128.443 9.85547 127.955 9.75977C127.545 9.67318 127.174 9.57064 126.841 9.45215C126.513 9.33366 126.232 9.1901 126 9.02148C125.772 8.85286 125.597 8.65462 125.474 8.42676C125.351 8.19889 125.289 7.93229 125.289 7.62695C125.289 7.33529 125.353 7.05957 125.48 6.7998C125.613 6.54004 125.797 6.3099 126.034 6.10938C126.276 5.90885 126.565 5.75163 126.902 5.6377C127.24 5.52376 127.616 5.4668 128.03 5.4668C128.623 5.4668 129.129 5.57161 129.548 5.78125C129.967 5.99089 130.288 6.27116 130.512 6.62207C130.735 6.96842 130.847 7.35352 130.847 7.77734H129.582C129.582 7.57227 129.521 7.37402 129.397 7.18262C129.279 6.98665 129.104 6.82487 128.871 6.69727C128.643 6.56966 128.363 6.50586 128.03 6.50586C127.679 6.50586 127.395 6.56055 127.176 6.66992C126.962 6.77474 126.804 6.90918 126.704 7.07324C126.608 7.2373 126.561 7.41048 126.561 7.59277C126.561 7.72949 126.583 7.85254 126.629 7.96191C126.679 8.06673 126.766 8.16471 126.889 8.25586C127.012 8.34245 127.185 8.42448 127.408 8.50195C127.632 8.57943 127.916 8.6569 128.263 8.73438C128.869 8.87109 129.368 9.03516 129.76 9.22656C130.152 9.41797 130.443 9.65267 130.635 9.93066C130.826 10.2087 130.922 10.5459 130.922 10.9424C130.922 11.266 130.854 11.5622 130.717 11.8311C130.585 12.0999 130.391 12.3324 130.136 12.5283C129.885 12.7197 129.584 12.8701 129.233 12.9795C128.887 13.0843 128.497 13.1367 128.064 13.1367C127.413 13.1367 126.861 13.0205 126.41 12.7881C125.959 12.5557 125.617 12.2549 125.385 11.8857C125.152 11.5166 125.036 11.127 125.036 10.7168H126.308C126.326 11.0632 126.426 11.3389 126.608 11.5439C126.791 11.7445 127.014 11.888 127.278 11.9746C127.543 12.0566 127.805 12.0977 128.064 12.0977C128.411 12.0977 128.7 12.0521 128.933 11.9609C129.17 11.8698 129.35 11.7445 129.473 11.585C129.596 11.4255 129.657 11.2432 129.657 11.0381ZM134.47 13H133.205V4.82422C133.205 4.29102 133.301 3.84212 133.492 3.47754C133.688 3.1084 133.968 2.8304 134.333 2.64355C134.698 2.45215 135.131 2.35645 135.632 2.35645C135.778 2.35645 135.924 2.36556 136.069 2.38379C136.22 2.40202 136.366 2.42936 136.507 2.46582L136.438 3.49805C136.343 3.47526 136.233 3.45931 136.11 3.4502C135.992 3.44108 135.873 3.43652 135.755 3.43652C135.486 3.43652 135.254 3.49121 135.058 3.60059C134.866 3.7054 134.72 3.86035 134.62 4.06543C134.52 4.27051 134.47 4.52344 134.47 4.82422V13ZM136.042 5.60352V6.57422H132.036V5.60352H136.042ZM141.976 11.291V5.60352H143.247V13H142.037L141.976 11.291ZM142.215 9.73242L142.741 9.71875C142.741 10.2109 142.689 10.6667 142.584 11.0859C142.484 11.5007 142.32 11.8607 142.092 12.166C141.864 12.4714 141.565 12.7106 141.196 12.8838C140.827 13.0524 140.378 13.1367 139.85 13.1367C139.49 13.1367 139.159 13.0843 138.858 12.9795C138.562 12.8747 138.307 12.7129 138.093 12.4941C137.879 12.2754 137.712 11.9906 137.594 11.6396C137.48 11.2887 137.423 10.8672 137.423 10.375V5.60352H138.688V10.3887C138.688 10.7214 138.724 10.9971 138.797 11.2158C138.874 11.43 138.977 11.6009 139.104 11.7285C139.237 11.8516 139.382 11.9382 139.542 11.9883C139.706 12.0384 139.875 12.0635 140.048 12.0635C140.586 12.0635 141.012 11.9609 141.326 11.7559C141.641 11.5462 141.866 11.266 142.003 10.915C142.144 10.5596 142.215 10.1654 142.215 9.73242ZM146.549 2.5V13H145.277V2.5H146.549ZM149.953 2.5V13H148.682V2.5H149.953ZM154.062 12.2344L156.119 5.60352H157.473L154.506 14.1416C154.438 14.3239 154.346 14.5199 154.232 14.7295C154.123 14.9437 153.982 15.1465 153.809 15.3379C153.635 15.5293 153.426 15.6842 153.18 15.8027C152.938 15.9258 152.649 15.9873 152.312 15.9873C152.211 15.9873 152.084 15.9736 151.929 15.9463C151.774 15.9189 151.664 15.8962 151.601 15.8779L151.594 14.8525C151.63 14.8571 151.687 14.8617 151.765 14.8662C151.847 14.8753 151.904 14.8799 151.936 14.8799C152.223 14.8799 152.466 14.8411 152.667 14.7637C152.868 14.6908 153.036 14.5654 153.173 14.3877C153.314 14.2145 153.435 13.9753 153.535 13.6699L154.062 12.2344ZM152.551 5.60352L154.472 11.3457L154.8 12.6787L153.891 13.1436L151.17 5.60352H152.551Z" fill="#7000FF"/>
</g>
<defs>
<linearGradient id="paint0_linear_6812_3274" x1="0" y1="7.5" x2="26" y2="7.5" gradientUnits="userSpaceOnUse">
<stop stop-color="white"/>
<stop offset="1" stop-color="#7000FF"/>
</linearGradient>
<linearGradient id="paint1_linear_6812_3274" x1="26" y1="0.5" x2="0" y2="0.5" gradientUnits="userSpaceOnUse">
<stop stop-color="white"/>
<stop offset="1" stop-color="#7000FF"/>
</linearGradient>
</defs>
</svg>
