<svg width="34" height="34" viewBox="0 0 34 34" fill="none" xmlns="http://www.w3.org/2000/svg">
<g id="Frame 1000006112">
<rect id="Rectangle 34625525" width="34" height="34" rx="8" fill="#7000FF"/>
<g id="Frame">
<path id="Vector" d="M21.5382 18.8182C21.7468 18.7567 21.7938 18.4726 21.6179 18.3411C20.9389 17.8364 20.1801 17.4399 19.3661 17.1749C20.9553 16.2822 22.0311 14.5329 22.0147 12.5227C21.9902 9.64114 19.7444 7.33203 16.9649 7.33203C14.1751 7.33203 11.9151 9.67506 11.9151 12.5673C11.9151 14.5583 12.9889 16.2907 14.5678 17.177C11.5633 18.1566 9.32782 20.9237 9.01694 24.2803V24.2846C9.01694 24.2952 9.01489 24.3036 9.01489 24.3142V25.0097C9.01489 25.1878 9.15397 25.332 9.32578 25.332H18.7954C18.9897 25.332 19.1165 25.1179 19.0245 24.9398C18.7177 24.3418 18.5459 23.6612 18.5459 22.936C18.548 20.9789 19.8119 19.3292 21.5382 18.8182Z" fill="white"/>
<path id="Vector_2" d="M22.5149 19.332C20.5815 19.332 19.0149 20.8986 19.0149 22.832C19.0149 24.7655 20.5815 26.332 22.5149 26.332C24.4483 26.332 26.0149 24.7655 26.0149 22.832C26.0149 20.8986 24.4483 19.332 22.5149 19.332ZM24.7309 23.3296H23.0104V25.0501C23.0104 25.3242 22.789 25.5477 22.5128 25.5477C22.2387 25.5477 22.0152 25.3263 22.0152 25.0501V23.3296H20.2947C20.0206 23.3296 19.7971 23.1082 19.7971 22.832C19.7971 22.5579 20.0185 22.3344 20.2947 22.3344H22.0173V20.614C22.0173 20.3399 22.2387 20.1164 22.5149 20.1164C22.789 20.1164 23.0125 20.3378 23.0125 20.614V22.3344H24.733C25.0071 22.3344 25.2306 22.5558 25.2306 22.832C25.2284 23.1061 25.005 23.3296 24.7309 23.3296Z" fill="white"/>
</g>
</g>
</svg>
