<?xml version="1.0" standalone="no"?><!DOCTYPE svg PUBLIC "-//W3C//DTD SVG 1.1//EN" "http://www.w3.org/Graphics/SVG/1.1/DTD/svg11.dtd"><svg t="1758685896691" class="icon" viewBox="0 0 1024 1024" version="1.1" xmlns="http://www.w3.org/2000/svg" p-id="2912" xmlns:xlink="http://www.w3.org/1999/xlink" width="48" height="48"><path d="M795.769 342.896c-0.007 0 0.005 0 0 0H685.4c-0.849 0-1.489-0.69-1.262-1.508 4.144-14.865 21.546-84.656 4.471-153.887C668.02 104.026 601.913 64.003 542.469 64c-32.186-0.002-62.412 11.729-82.415 34.647-56.944 65.247-19.396 88.469-52.796 175.756-28.589 74.718-96.736 94.832-115.814 99.091l-5.188 1.037h-93.46c-70.692 0-128 57.308-128 128V816c0 70.692 57.308 128 128 128h511.09c88.992 0 166.321-61.153 186.831-147.751l60.745-256.479c23.799-100.487-52.431-196.874-155.693-196.874zM144.795 816V502.531c0-26.467 21.532-48 48-48h48V864h-48c-26.468 0-48-21.533-48-48z m728.82-294.667l-60.746 256.479C800.851 828.559 756.034 864 703.885 864h-383.09V448.497c38.811-11.046 123.048-45.847 161.181-145.505 18.542-48.459 20.521-83.044 21.966-108.297 1.396-24.407 1.511-26.401 16.385-43.444 3.904-4.473 12.387-7.252 22.139-7.251 24.457 0.001 57.065 16.412 68.472 62.659 9.14 37.052 3.955 76.38-0.277 97.734-5.33 22.173-17.249 50.663-28.257 74.365-9.891 21.296 5.923 45.558 29.402 45.32l116.708-1.184h67.256c24.607 0 47.478 11.072 62.745 30.379 15.267 19.308 20.771 44.115 15.1 68.06z" fill="#cdcdcd" p-id="2913"></path></svg>