<?xml version="1.0" standalone="no"?><!DOCTYPE svg PUBLIC "-//W3C//DTD SVG 1.1//EN" "http://www.w3.org/Graphics/SVG/1.1/DTD/svg11.dtd"><svg t="1730339260573" class="icon" viewBox="0 0 1024 1024" version="1.1" xmlns="http://www.w3.org/2000/svg" p-id="6384" xmlns:xlink="http://www.w3.org/1999/xlink" width="128" height="128"><path d="M348.768 449.7568c9.3744 9.3728 9.3744 24.568 0 33.9408L183.552 648.9168c-53.112 53.1104-53.112 139.2208 0 192.3328 53.112 53.112 139.2224 53.112 192.3328 0l165.096-165.096c9.3728-9.3728 24.568-9.3728 33.9408 0 9.3728 9.3728 9.3728 24.5696 0 33.9424L409.824 875.1904c-71.856 71.856-188.3584 71.856-260.2144 0-71.856-71.856-71.856-188.3584 0-260.2144l165.2192-165.2192c9.3712-9.3728 24.568-9.3728 33.9408 0zM602.512 421.488c9.3712 9.3728 9.3712 24.5696 0 33.9424l-147.0784 147.0784c-9.3728 9.3712-24.5696 9.3712-33.9424 0-9.3712-9.3728-9.3712-24.5696 0-33.9424l147.0784-147.0784c9.3728-9.3712 24.5696-9.3712 33.9424 0zM873.6864 151.1136c71.856 71.856 71.856 188.3584 0 260.2144L709.488 575.528c-9.3728 9.3728-24.5696 9.3728-33.9424 0-9.3728-9.3728-9.3728-24.568 0-33.9408l164.2-164.2c53.1104-53.1104 53.1104-139.2208 0-192.3328-53.112-53.1104-139.2224-53.1104-192.3328 0L483.208 349.2592c-9.3728 9.3728-24.568 9.3728-33.9408 0-9.3728-9.3728-9.3728-24.5696 0-33.9408L613.472 151.1136c71.856-71.856 188.3584-71.856 260.2144 0z" p-id="6385"></path></svg>
