<svg fill="none" xmlns="http://www.w3.org/2000/svg" viewBox="0 0 173 42" class="design-iconfont">
  <path d="M163.329 31.1545C161.849 31.1545 160.456 31.1612 159.064 31.1411C158.959 31.1411 158.809 30.9632 158.764 30.839C158.709 30.6897 158.745 30.5084 158.745 30.3406C158.745 25.308 158.748 20.277 158.745 15.2443C158.745 13.927 158.219 13.1064 157.195 12.7741C155.865 12.3412 154.508 13.1181 154.25 14.4741C154.193 14.7795 154.188 15.1 154.188 15.4121C154.184 20.3391 154.186 25.266 154.186 30.1946C154.186 30.4833 154.186 30.7736 154.186 31.1109H149.642C149.629 30.9162 149.605 30.7165 149.605 30.5152C149.605 25.3566 149.593 20.1998 149.61 15.0413C149.622 11.586 151.873 8.83224 155.205 8.22476C157.173 7.86565 158.999 8.26336 160.597 9.50013C160.868 9.7099 161.05 9.84247 161.406 9.57397C163.65 7.87907 166.106 7.58876 168.629 8.81546C171.207 10.069 172.447 12.2438 172.474 15.0648C172.506 18.5452 172.481 22.0256 172.481 25.506C172.481 27.1841 172.481 28.8605 172.481 30.5387C172.481 30.7216 172.459 30.9062 172.445 31.1226H167.912C167.912 30.8474 167.912 30.6024 167.912 30.3591C167.912 25.3482 167.924 20.3374 167.898 15.3265C167.895 14.8013 167.781 14.2291 167.545 13.7642C167.091 12.8648 166.034 12.4754 165.046 12.7154C164.13 12.9369 163.443 13.734 163.353 14.6956C163.328 14.9658 163.329 15.2393 163.329 15.5128C163.329 20.4616 163.329 25.4087 163.329 30.3574C163.329 30.6024 163.329 30.8457 163.329 31.1596V31.1545Z" fill="#fff"/>
  <path d="M163.329 31.1545C161.849 31.1545 160.456 31.1612 159.064 31.1411C158.959 31.1411 158.809 30.9632 158.764 30.839C158.709 30.6897 158.745 30.5084 158.745 30.3406C158.745 25.308 158.748 20.277 158.745 15.2443C158.745 13.927 158.219 13.1064 157.195 12.7741C155.865 12.3412 154.508 13.1181 154.25 14.4741C154.193 14.7795 154.188 15.1 154.188 15.4121C154.184 20.3391 154.186 25.266 154.186 30.1946C154.186 30.4833 154.186 30.7736 154.186 31.1109H149.642C149.629 30.9162 149.605 30.7165 149.605 30.5152C149.605 25.3566 149.593 20.1998 149.61 15.0413C149.622 11.586 151.873 8.83224 155.205 8.22476C157.173 7.86565 158.999 8.26336 160.597 9.50013C160.868 9.7099 161.05 9.84247 161.406 9.57397C163.65 7.87907 166.106 7.58876 168.629 8.81546C171.207 10.069 172.447 12.2438 172.474 15.0648C172.506 18.5452 172.481 22.0256 172.481 25.506C172.481 27.1841 172.481 28.8605 172.481 30.5387C172.481 30.7216 172.459 30.9062 172.445 31.1226H167.912C167.912 30.8474 167.912 30.6024 167.912 30.3591C167.912 25.3482 167.924 20.3374 167.898 15.3265C167.895 14.8013 167.781 14.2291 167.545 13.7642C167.091 12.8648 166.034 12.4754 165.046 12.7154C164.13 12.9369 163.443 13.734 163.353 14.6956C163.328 14.9658 163.329 15.2393 163.329 15.5128C163.329 20.4616 163.329 25.4087 163.329 30.3574C163.329 30.6024 163.329 30.8457 163.329 31.1596V31.1545Z" fill="#fff"/>
  <path d="M138.142 16.1857C138.606 15.6353 139.007 15.0916 139.485 14.6251C139.711 14.4053 140.072 14.2945 140.392 14.2089C140.732 14.12 140.886 14.3063 140.871 14.6654C140.849 15.1671 140.864 15.6722 140.864 16.174C140.862 20.4716 140.908 24.771 140.845 29.0686C140.774 33.9519 136.922 37.6371 131.987 37.6488C131.458 37.6488 130.925 37.6522 130.399 37.6035C130.247 37.5901 129.987 37.4021 129.984 37.2897C129.955 35.9757 129.965 34.6601 129.965 33.3025C130.871 33.3025 131.695 33.321 132.519 33.2991C134.202 33.2522 135.513 32.3242 136.067 30.8088C136.108 30.6981 136.117 30.5772 136.147 30.4245C133.2 32.3175 128.02 31.5724 125.606 28.6659C123.174 25.7376 122.772 22.4099 124.131 18.9748C125.471 15.59 128.134 13.7441 131.839 13.541C134.059 13.4202 135.903 14.3801 137.575 15.7259C137.752 15.8686 137.928 16.0112 138.14 16.1857H138.142ZM127.852 22.4753C127.849 24.5058 128.827 26.1302 130.449 26.7797C133.417 27.9695 136.646 25.5815 136.471 22.3276C136.32 19.5252 133.919 17.5198 131.258 17.9746C129.168 18.3321 127.857 20.0672 127.852 22.4753Z" fill="#fff"/>
  <path d="M138.142 16.1857C138.606 15.6353 139.007 15.0916 139.485 14.6251C139.711 14.4053 140.072 14.2945 140.392 14.2089C140.732 14.12 140.886 14.3063 140.871 14.6654C140.849 15.1671 140.864 15.6722 140.864 16.174C140.862 20.4716 140.908 24.771 140.845 29.0686C140.774 33.9519 136.922 37.6371 131.987 37.6488C131.458 37.6488 130.925 37.6522 130.399 37.6035C130.247 37.5901 129.987 37.4021 129.984 37.2897C129.955 35.9757 129.965 34.6601 129.965 33.3025C130.871 33.3025 131.695 33.321 132.519 33.2991C134.202 33.2522 135.513 32.3242 136.067 30.8088C136.108 30.6981 136.117 30.5772 136.147 30.4245C133.2 32.3175 128.02 31.5724 125.606 28.6659C123.174 25.7376 122.772 22.4099 124.131 18.9748C125.471 15.59 128.134 13.7441 131.839 13.541C134.059 13.4202 135.903 14.3801 137.575 15.7259C137.752 15.8686 137.928 16.0112 138.14 16.1857H138.142ZM127.852 22.4753C127.849 24.5058 128.827 26.1302 130.449 26.7797C133.417 27.9695 136.646 25.5815 136.471 22.3276C136.32 19.5252 133.919 17.5198 131.258 17.9746C129.168 18.3321 127.857 20.0672 127.852 22.4753Z" fill="#fff"/>
  <path d="M105.995 14.2307C107.412 13.8381 107.612 15.2544 108.438 15.7209C108.945 15.397 109.438 15.0362 109.971 14.7476C114.857 12.113 120.953 15.4809 121.149 20.9835C121.265 24.2306 121.187 27.4828 121.192 30.7333C121.192 30.8525 121.156 30.9716 121.131 31.121H116.879C116.867 30.8541 116.845 30.6091 116.845 30.3641C116.841 27.3855 116.862 24.4085 116.835 21.4298C116.816 19.4195 115.1 17.9729 113.11 18.2314C111.509 18.4394 110.315 19.8004 110.308 21.4668C110.297 24.4454 110.303 27.4224 110.303 30.401C110.303 30.6259 110.303 30.8508 110.303 31.1159H105.995V14.2307Z" fill="#fff"/>
  <path d="M105.995 14.2307C107.412 13.8381 107.612 15.2544 108.438 15.7209C108.945 15.397 109.438 15.0362 109.971 14.7476C114.857 12.113 120.953 15.4809 121.149 20.9835C121.265 24.2306 121.187 27.4828 121.192 30.7333C121.192 30.8525 121.156 30.9716 121.131 31.121H116.879C116.867 30.8541 116.845 30.6091 116.845 30.3641C116.841 27.3855 116.862 24.4085 116.835 21.4298C116.816 19.4195 115.1 17.9729 113.11 18.2314C111.509 18.4394 110.315 19.8004 110.308 21.4668C110.297 24.4454 110.303 27.4224 110.303 30.401C110.303 30.6259 110.303 30.8508 110.303 31.1159H105.995V14.2307Z" fill="#fff"/>
  <path d="M59.7791 31.1243H55.2405V12.9604H48.331C48.331 11.4987 48.3242 10.1193 48.3479 8.73993C48.3496 8.6275 48.5599 8.49828 48.6973 8.41773C48.777 8.37074 48.9042 8.40766 49.0111 8.40766C54.6486 8.40766 60.2862 8.41605 65.9237 8.39759C66.4648 8.39592 66.67 8.51506 66.6513 9.08898C66.6089 10.3425 66.6378 11.5978 66.6378 12.9503C66.3291 12.9503 66.0849 12.9503 65.8389 12.9503C64.0581 12.9503 62.2773 12.9788 60.4982 12.9335C59.8808 12.9184 59.7689 13.1316 59.7706 13.682C59.7876 19.2382 59.7808 24.7961 59.7808 30.3524C59.7808 30.5974 59.7808 30.8441 59.7808 31.1226L59.7791 31.1243Z" fill="#fff"/>
  <path d="M59.7791 31.1243H55.2405V12.9604H48.331C48.331 11.4987 48.3242 10.1193 48.3479 8.73993C48.3496 8.6275 48.5599 8.49828 48.6973 8.41773C48.777 8.37074 48.9042 8.40766 49.0111 8.40766C54.6486 8.40766 60.2862 8.41605 65.9237 8.39759C66.4648 8.39592 66.67 8.51506 66.6513 9.08898C66.6089 10.3425 66.6378 11.5978 66.6378 12.9503C66.3291 12.9503 66.0849 12.9503 65.8389 12.9503C64.0581 12.9503 62.2773 12.9788 60.4982 12.9335C59.8808 12.9184 59.7689 13.1316 59.7706 13.682C59.7876 19.2382 59.7808 24.7961 59.7808 30.3524C59.7808 30.5974 59.7808 30.8441 59.7808 31.1226L59.7791 31.1243Z" fill="#fff"/>
  <path d="M81.2608 14.1972V31.1075C79.6733 31.4582 79.7055 29.8003 78.7507 29.2498C78.6048 29.3656 78.4132 29.5167 78.2232 29.6694C75.8946 31.5354 73.3217 32.0053 70.5555 30.8189C67.786 29.6308 66.2884 27.4073 66.134 24.4924C65.9593 21.2083 66.0628 17.9091 66.0679 14.6184C66.0679 14.4707 66.3002 14.1972 66.4308 14.1938C67.7198 14.1619 69.0088 14.1737 70.391 14.1737C70.391 14.4657 70.391 14.709 70.391 14.9523C70.391 17.8471 70.391 20.7401 70.3927 23.6349C70.3927 24.6871 70.7184 25.6251 71.5206 26.3417C73.3302 27.9594 76.11 27.0129 76.8071 24.5394C76.919 24.1417 76.9597 23.7137 76.9614 23.2976C76.975 20.5287 76.9699 17.7615 76.9699 14.9926C76.9699 14.7459 76.9699 14.4992 76.9699 14.1972H81.2608Z" fill="#fff"/>
  <path d="M81.2608 14.1972V31.1075C79.6733 31.4582 79.7055 29.8003 78.7507 29.2498C78.6048 29.3656 78.4132 29.5167 78.2232 29.6694C75.8946 31.5354 73.3217 32.0053 70.5555 30.8189C67.786 29.6308 66.2884 27.4073 66.134 24.4924C65.9593 21.2083 66.0628 17.9091 66.0679 14.6184C66.0679 14.4707 66.3002 14.1972 66.4308 14.1938C67.7198 14.1619 69.0088 14.1737 70.391 14.1737C70.391 14.4657 70.391 14.709 70.391 14.9523C70.391 17.8471 70.391 20.7401 70.3927 23.6349C70.3927 24.6871 70.7184 25.6251 71.5206 26.3417C73.3302 27.9594 76.11 27.0129 76.8071 24.5394C76.919 24.1417 76.9597 23.7137 76.9614 23.2976C76.975 20.5287 76.9699 17.7615 76.9699 14.9926C76.9699 14.7459 76.9699 14.4992 76.9699 14.1972H81.2608Z" fill="#fff"/>
  <path d="M96.1552 14.2156C96.1552 15.5782 96.1705 16.8519 96.1331 18.1256C96.1297 18.2582 95.8211 18.4881 95.6498 18.4948C94.6135 18.5301 93.5739 18.5049 92.5359 18.5149C90.3853 18.5334 89.0184 19.8977 89.0116 22.0356C89.0048 24.8028 89.0099 27.5701 89.0099 30.3373C89.0099 30.5839 89.0099 30.8306 89.0099 31.1176H84.719V14.2408C85.3482 14.0579 85.8044 14.1636 86.1402 14.7392C86.4218 15.2208 86.7898 15.6538 87.1748 16.1874C89.7731 13.7457 92.9582 14.2173 96.1552 14.2156Z" fill="#fff"/>
  <path d="M96.1552 14.2156C96.1552 15.5782 96.1705 16.8519 96.1331 18.1256C96.1297 18.2582 95.8211 18.4881 95.6498 18.4948C94.6135 18.5301 93.5739 18.5049 92.5359 18.5149C90.3853 18.5334 89.0184 19.8977 89.0116 22.0356C89.0048 24.8028 89.0099 27.5701 89.0099 30.3373C89.0099 30.5839 89.0099 30.8306 89.0099 31.1176H84.719V14.2408C85.3482 14.0579 85.8044 14.1636 86.1402 14.7392C86.4218 15.2208 86.7898 15.6538 87.1748 16.1874C89.7731 13.7457 92.9582 14.2173 96.1552 14.2156Z" fill="#fff"/>
  <path d="M98.2684 31.1562V14.177C99.6269 14.177 100.953 14.1686 102.278 14.1921C102.391 14.1938 102.53 14.3985 102.603 14.5378C102.656 14.6368 102.617 14.7845 102.617 14.9104C102.617 20.084 102.609 25.2593 102.627 30.4329C102.629 31.0035 102.48 31.1948 101.884 31.1713C100.704 31.1243 99.5201 31.1579 98.2667 31.1579L98.2684 31.1562Z" fill="#fff"/>
  <path d="M98.2684 31.1562V14.177C99.6269 14.177 100.953 14.1686 102.278 14.1921C102.391 14.1938 102.53 14.3985 102.603 14.5378C102.656 14.6368 102.617 14.7845 102.617 14.9104C102.617 20.084 102.609 25.2593 102.627 30.4329C102.629 31.0035 102.48 31.1948 101.884 31.1713C100.704 31.1243 99.5201 31.1579 98.2667 31.1579L98.2684 31.1562Z" fill="#fff"/>
  <path d="M100.399 12.4251C98.8027 12.415 97.5052 11.1044 97.5171 9.51858C97.5306 7.95457 98.8841 6.65236 100.473 6.67585C102.074 6.69934 103.358 8.00156 103.35 9.59241C103.339 11.1631 102.015 12.4351 100.4 12.4251H100.399Z" fill="#fff"/>
  <path d="M100.399 12.4251C98.8027 12.415 97.5052 11.1044 97.5171 9.51858C97.5306 7.95457 98.8841 6.65236 100.473 6.67585C102.074 6.69934 103.358 8.00156 103.35 9.59241C103.339 11.1631 102.015 12.4351 100.4 12.4251H100.399Z" fill="#fff"/>
  <path d="M3.54905 14.4478C4.76405 12.9328 6.16551 11.6968 8.15349 11.314C4.92087 14.6886 3.02057 18.5966 3.249 23.3492C3.38729 26.2275 4.33065 28.8625 5.8988 31.2801C5.19128 29.4453 4.87569 27.5104 4.82506 25.5101C5.78077 27.3807 6.76684 29.0613 8.73383 30.0355C8.73383 29.9367 8.74494 29.8984 8.73259 29.8861C6.82241 28.087 6.04204 25.762 5.64444 23.2591C5.60123 22.985 5.58764 22.7047 5.53084 22.4343C4.96162 19.719 6.268 17.557 7.60155 15.4035C7.6213 15.3727 7.66946 15.3591 7.80528 15.2751V18.7584C7.84973 18.7646 7.89419 18.7707 7.93864 18.7757C8.67703 15.5727 10.4674 13.0155 12.7999 10.7929C12.9703 10.6312 13.1938 10.5262 13.4877 10.3311C13.4556 10.688 13.4296 10.9238 13.4136 11.1609C13.1926 14.254 14.0334 17.0865 15.5349 19.7524C16.766 21.9391 18.3798 23.8184 20.2221 25.5101C21.3988 26.5917 22.4484 27.7796 23.2337 29.1823C24.7771 31.9358 24.8475 34.7288 23.451 37.5577C22.7533 38.9703 21.7692 40.1741 20.6851 41.3015C20.3023 41.6991 19.8615 41.8596 19.2763 41.8077C9.39072 40.9311 1.60923 33.5694 0.204067 23.7431C-1.42953 12.3067 6.93724 1.46426 18.407 0.151701C23.0003 -0.374309 27.3183 0.462861 31.3498 2.7373C31.4572 2.7978 31.5622 2.86201 31.6671 2.92745C31.719 2.95956 31.7659 2.9966 31.819 3.03364C30.6484 2.56073 29.5088 2.00755 28.311 1.64453C27.0763 1.2704 25.797 0.983932 24.5178 0.836995C23.2534 0.691293 21.9545 0.669067 20.6864 0.775257C19.4022 0.881447 18.1242 1.15927 16.866 1.45561C15.625 1.74825 14.4496 2.25327 13.3234 2.90276C15.0237 2.86201 16.6573 3.03241 18.202 4.06097C10.97 4.33755 5.65926 7.14788 3.54905 14.449V14.4478Z" fill="#fff"/>
  <path d="M23.5748 41.6484C23.9737 41.3471 24.3021 41.1064 24.6232 40.8569C26.1172 39.6963 27.4545 38.3887 28.5855 36.8612C30.4216 34.3806 30.8106 31.6925 29.8339 28.7995C29.5289 27.8956 29.1473 27.0128 28.7287 26.1558C28.3534 25.3903 28.2756 24.626 28.483 23.8197C28.809 22.5503 29.4449 21.4884 30.5957 20.7797C28.8214 20.1166 25.0245 21.4613 23.7181 23.2344C24.0416 23.1714 24.333 23.1158 24.6232 23.059C23.8588 24.0678 23.4304 25.1865 23.2229 26.4102C21.1609 24.7852 20.9423 21.2859 22.8093 19.3955C23.3205 18.8781 23.9514 18.4521 24.5861 18.0866C26.4234 17.0284 27.9718 15.6665 29.1523 13.9033C30.0228 12.603 30.5278 11.1843 30.4019 9.53589C30.5685 9.61244 30.692 9.6606 30.8069 9.72234C33.2986 11.0744 34.1296 11.451 35.7348 13.3032C36.7708 14.4984 37.2844 15.8826 37.34 16.0196C38.0809 17.8718 37.9549 20.3907 37.482 22.7787C37.4499 22.943 37.4042 23.1047 37.4511 23.3085C37.6265 22.9356 37.8129 22.5676 37.9747 22.1885C38.1438 21.7922 38.3006 21.3884 38.4451 20.9809C38.5859 20.5809 38.7044 20.1722 38.9254 19.7585C38.9884 19.9721 39.0563 20.1833 39.1131 20.3994C39.5366 22.0379 39.9157 23.7196 39.6725 25.3952C39.5638 26.1447 39.491 26.5361 39.3169 26.8856C38.9464 27.6264 37.9302 29.7329 36.8374 31.2073C36.814 31.2394 36.8091 31.285 36.8535 31.3863C37.5092 30.8245 38.1661 30.2614 38.9378 29.5996C38.8476 29.8749 38.8192 30.0318 38.7501 30.1676C38.2797 31.0862 37.8351 32.0197 37.3165 32.9112C36.9733 33.5027 36.6103 34.083 36.2423 34.6597C35.4051 35.971 34.3358 37.1243 33.0677 38.0244C30.3833 39.9321 27.3705 41.1422 24.0292 41.646C23.9156 41.6632 23.7971 41.6484 23.5773 41.6484H23.5748Z" fill="#fff"/>
  <path d="M26.668 22.0599L26.7172 22.0348C27.2459 21.7649 27.8119 21.5757 28.3966 21.4734L28.0439 21.7821L27.7509 22.1198C27.5727 22.04 27.3774 22.0059 27.1828 22.0207L26.668 22.0599Z" fill="#fff"/>
</svg>
