<?xml version="1.0" standalone="no"?><!DOCTYPE svg PUBLIC "-//W3C//DTD SVG 1.1//EN" "http://www.w3.org/Graphics/SVG/1.1/DTD/svg11.dtd"><svg t="1730708247226" class="icon" viewBox="0 0 1024 1024" version="1.1" xmlns="http://www.w3.org/2000/svg" p-id="4288" xmlns:xlink="http://www.w3.org/1999/xlink" width="128" height="128"><path d="M775.757576 868.848485c0-9.309091 6.206061-15.515152 15.515151-15.515152h155.151515c9.309091 0 15.515152 6.206061 15.515152 15.515152s-6.206061 15.515152-15.515152 15.515151h-155.151515c-9.309091 0-15.515152-6.206061-15.515151-15.515151z" p-id="4289"></path><path d="M946.424242 899.878788h-155.151515c-18.618182 0-31.030303-12.412121-31.030303-31.030303s12.412121-31.030303 31.030303-31.030303h155.151515c18.618182 0 31.030303 12.412121 31.030303 31.030303s-12.412121 31.030303-31.030303 31.030303z m-170.666666-31.030303h15.515151-15.515151z" p-id="4290"></path><path d="M62.060606 868.848485c0-9.309091 6.206061-15.515152 15.515152-15.515152h155.151515c9.309091 0 15.515152 6.206061 15.515151 15.515152s-6.206061 15.515152-15.515151 15.515151H77.575758c-9.309091 0-15.515152-6.206061-15.515152-15.515151z" p-id="4291"></path><path d="M232.727273 899.878788H77.575758c-18.618182 0-31.030303-12.412121-31.030303-31.030303s12.412121-31.030303 31.030303-31.030303h155.151515c18.618182 0 31.030303 12.412121 31.030303 31.030303s-12.412121 31.030303-31.030303 31.030303zM62.060606 868.848485H77.575758 62.060606z" p-id="4292"></path><path d="M403.393939 992.969697c0-9.309091 6.206061-15.515152 15.515152-15.515152h186.181818c9.309091 0 15.515152 6.206061 15.515152 15.515152s-6.206061 15.515152-15.515152 15.515151h-186.181818c-9.309091 0-15.515152-6.206061-15.515152-15.515151z" p-id="4293"></path><path d="M605.090909 1024h-186.181818c-18.618182 0-31.030303-12.412121-31.030303-31.030303s12.412121-31.030303 31.030303-31.030303h186.181818c18.618182 0 31.030303 12.412121 31.030303 31.030303s-12.412121 31.030303-31.030303 31.030303z m-201.69697-31.030303h15.515152-15.515152z" p-id="4294"></path><path d="M512 15.515152c9.309091 0 15.515152 6.206061 15.515152 15.515151v62.060606c0 9.309091-6.206061 15.515152-15.515152 15.515152s-15.515152-6.206061-15.515152-15.515152V31.030303c0-9.309091 6.206061-15.515152 15.515152-15.515151z" p-id="4295"></path><path d="M512 124.121212c-18.618182 0-31.030303-12.412121-31.030303-31.030303V31.030303c0-18.618182 12.412121-31.030303 31.030303-31.030303s31.030303 12.412121 31.030303 31.030303v62.060606c0 18.618182-12.412121 31.030303-31.030303 31.030303z m0-108.60606V31.030303 15.515152z" p-id="4296"></path><path d="M884.363636 899.878788H139.636364V465.454545C139.636364 260.654545 307.2 93.090909 512 93.090909s372.363636 167.563636 372.363636 372.363636v434.424243zM201.69697 837.818182h620.60606V465.454545c0-170.666667-139.636364-310.30303-310.30303-310.30303S201.69697 294.787879 201.69697 465.454545v372.363637z" p-id="4297"></path></svg>
