<?xml version="1.0" standalone="no"?><!DOCTYPE svg PUBLIC "-//W3C//DTD SVG 1.1//EN" "http://www.w3.org/Graphics/SVG/1.1/DTD/svg11.dtd"><svg t="1729668879623" class="icon" viewBox="0 0 1024 1024" version="1.1" xmlns="http://www.w3.org/2000/svg" p-id="77024" xmlns:xlink="http://www.w3.org/1999/xlink" width="128" height="128"><path d="M506.24 85.333333a42.666667 42.666667 0 0 1 42.666667 42.666667v218.88a42.666667 42.666667 0 1 1-85.333334 0V128a42.666667 42.666667 0 0 1 42.666667-42.666667zM506.24 640a42.666667 42.666667 0 0 1 42.666667 42.666667v218.88a42.666667 42.666667 0 1 1-85.333334 0V682.666667a42.666667 42.666667 0 0 1 42.666667-42.666667zM935.68 514.773333a42.666667 42.666667 0 0 1-42.666667 42.666667H674.133333a42.666667 42.666667 0 1 1 0-85.333333h218.88a42.666667 42.666667 0 0 1 42.666667 42.666666z" p-id="77025"></path><path d="M506.154667 514.688m-42.666667 0a42.666667 42.666667 0 1 0 85.333333 0 42.666667 42.666667 0 1 0-85.333333 0Z" p-id="77026"></path><path d="M381.013333 514.773333a42.666667 42.666667 0 0 1-42.666666 42.666667H119.466667a42.666667 42.666667 0 1 1 0-85.333333h218.88a42.666667 42.666667 0 0 1 42.666666 42.666666z" p-id="77027"></path></svg>
