<?xml version="1.0" standalone="no"?><!DOCTYPE svg PUBLIC "-//W3C//DTD SVG 1.1//EN" "http://www.w3.org/Graphics/SVG/1.1/DTD/svg11.dtd"><svg t="1758877359969" class="icon" viewBox="0 0 1024 1024" version="1.1" xmlns="http://www.w3.org/2000/svg" p-id="65891" xmlns:xlink="http://www.w3.org/1999/xlink" width="48" height="48"><path d="M323.339 427.111c-5.032 9.994-10.064 19.988-15.103 29.982-4.763-0.634-10.125-1.241-14.881-1.875 5.133-10.695 10.874-21.418 16.008-32.113l13.976 4.006z" fill="#61321B" p-id="65892"></path><path d="M312.363 416.243l16.331 5.595-5.354 5.272c-4.66-1.333-9.318-2.669-13.977-4.004 0.999-2.289 2-4.576 3-6.863z" fill="#BD503B" p-id="65893"></path><path d="M230.359 417.581h15.33v13.681h-15.33z" fill="#61321B" p-id="65894"></path><path d="M204.787 722.915a366.107 23.362 0 1 0 732.214 0 366.107 23.362 0 1 0-732.214 0Z" fill="#ECEBEC" opacity=".5" p-id="65895"></path><path d="M937 722.915s-25.207-94.561-45.282-94.771c-19.971-0.21-48.062 31.592-71.278 32.29-23.202 0.696-36.637-21.562-50.892-61.399-14.256-39.837-19.182-65.695-44.654-65.625-42.067 0.117-36.792 70.973-65.878 108.573-19.245 24.877-58.28 48.644-86.372 35.645-28.092-12.999-43.605 7.129-43.605 7.129v38.16H778.51l158.49-0.002z" fill="#4ABBBF" p-id="65896"></path><path d="M87 850.918a252.035 16.082 0 1 0 504.07 0 252.035 16.082 0 1 0-504.07 0Z" fill="#ECEBEC" p-id="65897"></path><path d="M135.189 734.167l-27.134-13.744c-7.433-3.764-10.407-12.843-6.642-20.277L372 165.795c3.764-7.434 12.841-10.408 20.274-6.643l27.134 13.744c7.433 3.764 10.407 12.843 6.642 20.277l-270.587 534.35c-3.765 7.435-12.841 10.409-20.274 6.644z" fill="#F4A300" p-id="65898"></path><path d="M421 204.307l-54.985-27.852 5.893-11.637c3.557-7.024 12.134-9.835 19.159-6.277l29.55 14.968c7.023 3.558 9.834 12.136 6.276 19.162L421 204.307z" fill="#AFAFAF" p-id="65899"></path><path d="M117.03 755.544l21.708-14.175c6.449-4.212 5.922-13.826-0.949-17.307l-23.128-11.715c-6.872-3.481-14.934 1.784-14.511 9.475l1.419 25.889c0.423 7.694 9.012 12.045 15.461 7.833z" fill="#DADADC" p-id="65900"></path><path d="M130.794 746.558l22.456-14.664-54.049-27.379 1.469 26.783z" fill="#DADADC" p-id="65901"></path><path d="M100.529 729.787l1.043 17.958c0.446 7.691 9.05 12.013 15.486 7.782l15.028-9.882-31.557-15.858z" fill="#AFAFAF" p-id="65902"></path><path d="M779.753 630.608c4.098 12.295 7.928 24.719 12.84 36.693 4.106 10.008 12.957 15.664 23.35 14.416 13.02-1.563 26.051-4.745 38.503-8.935 19.236-6.471 37.206-4.933 50.619 10.159 10.384 11.684 17.269 26.479 25.71 39.89-18.935 0.062-37.87 0.14-56.805 0.183-55.328 0.125-110.656 0.235-165.984 0.35l-103.317-0.223c4.267-7.052 7.167-14.606 11.433-21.659 0.213-0.025 1.487-0.08 2.869 0.247 19.718 4.663 36.673 11.921 50.064-7.417 16.413-23.703 21.507-51.267 28.594-78.351 4.128-15.778 9.334-31.71 16.965-46.022 9.246-17.343 22.135-17.287 35.217-2.326 4.365 4.992 7.437 10.807 10.8 16.523 6.473 11.001 19.142 46.472 19.142 46.472z" fill="#2CADAE" p-id="65903"></path><path d="M355.543 410.813c13.985-1.489 21.48 7.836 26.771 18.101 13.112 25.431 25.253 51.367 37.512 77.23 4.29 9.051 7.811 18.467 11.637 27.736 1.56 3.779 3.467 7.656-1.078 10.858l-13.407 3.397-64.958 22.688-14.343 4.247-28.223 8.582c-2.221-1.942-6.363-3.878-6.369-5.826-0.061-21.251 0.525-42.504 0.937-63.756 11.183-3.616 22.69-6.467 33.465-11.043 12.928-5.49 24.351-13.473 30.199-27.147 3.916-9.156 2.313-16.451-4.375-21.395-6.938-5.129-15.002-4.251-22.78 1.412-5.372 3.911-11.501 6.78-17.287 10.113-2.195-9.613 1.78-17.898 7.048-25.03 7.778-10.529 16.774-20.156 25.251-30.167z" fill="#D2D1D2" p-id="65904"></path><path d="M323.24 466.012c5.791-3.334 11.921-6.202 17.291-10.114 7.777-5.663 15.841-6.542 22.78-1.412 6.688 4.944 8.29 12.239 4.375 21.395-5.848 13.674-17.27 21.658-30.199 27.147-10.775 4.575-21.891 8.998-33.465 11.043-13.488 2.383-27.477 3.277-41.059 1.522-20.699-2.675-39.952-12.094-59.927-18.148-3.981-4.444-5.86-8.858-1.433-14.391 1.686-2.106 1.938-5.339 2.926-8.028 2.435-6.635 6.064-11.77 14.233-11.025 8.711 11.88 22.232 11.177 34.532 12.208 10.174 0.853 20.558-0.812 30.852-1.36 7.414-1.25 14.825-2.502 22.237-3.753 5.617-1.696 11.237-3.39 16.857-5.084z" fill="#BD503B" p-id="65905"></path><path d="M569.487 517.668c-8.934 21.892-17.868 43.785-26.799 65.678-1.179 2.017-2.599 3.931-3.507 6.063-14.878 34.925-29.69 69.878-44.518 104.824l-21.417-50.858c-1.399-11.212 2.782-20.86 8.572-29.985 8.516-13.424 17.959-26.333 25.521-40.267 7.49-13.802 13.137-28.604 19.592-42.968 6.961-7.029 13.36-14.775 21.073-20.85 5.654-4.452 12.303-3.283 16.997 3.226 1.324 1.838 2.982 3.432 4.486 5.137z" fill="#8FA8BE" p-id="65906"></path><path d="M241.474 428.318c10.257-2.397 15.901 5.909 16.758 12.549 0.392 3.041-1.961 9.757-4.628 13.976-1.206 1.909-6.219 2.754-8.995 2.055-6.217-1.568-12.113-4.407-18.14-6.727-8.882-3.462-15.975-9.531-17.704-18.767-2.254-12.045 5.525-21.274 16.693-23.535 7.966-1.613 16.401-0.911 24.626-1.242l-6.191 12.195c-3.132-0.531-8.969-2.458-10.259 0.718-1.476 3.634 5.226 5.852 7.84 8.778zM309.731 373.22c5-2.314 10.17-4.325 14.956-7.02 5.587-3.148 10.203-1.666 13.2 3.965 1.201 2.257 4.168 3.666 6.5 5.204 2.511 1.657 6.951 2.609 7.416 4.6 0.629 2.694-1.354 6.292-2.915 9.116-1.413 2.556-6.267 4.292-0.776 7.451l2.748 12.567c-4.156 1.713-8.311 3.427-12.466 5.142 2.533-8.233-0.808-11.423-9.075-11.436-3.067-0.005-6.856-0.655-9.196-2.878-6.927-6.579-6.928-17.808-10.392-26.711z" fill="#BD503B" p-id="65907"></path><path d="M526.931 530.156c-6.455 14.363-12.102 29.165-19.592 42.968-7.562 13.935-17.006 26.843-25.521 40.267-5.79 9.126-9.97 18.773-8.572 29.985-3.016-6.7-6.033-13.401-9.051-20.101 17.166-26.628 34.239-53.317 51.586-79.827 3.144-4.806 7.405-8.881 11.15-13.292zM457.352 608.264l-22.728-51.515-0.432-3.42c9.939-1.879 15.231 2.848 16.747 12.247 2.291 14.204 4.29 28.456 6.413 42.688z" fill="#C0DAF1" p-id="65908"></path><path d="M389.03 715.441l-2.285-39.398 29.41-1.715 30.492 49.991-56.651 0.295-0.966-9.173z" fill="#8FA8BE" p-id="65909"></path><path d="M416.156 674.328l-29.41 1.715c-1.23-18.094-2.496-36.186-3.623-54.286-0.084-1.338 0.82-2.739 1.264-4.11l31.769 56.681z" fill="#C0DAF1" p-id="65910"></path><path d="M409.238 560.46l1.968-0.14-1.968 0.14zM339.035 859.888c5.702-5.461 11.727-10.635 16.965-16.51 2.453-2.751 3.387-6.855 5.01-10.343l24.774 1.782 2.394 12.1-49.143 12.971z" fill="#2F2E7D" p-id="65911"></path><path d="M306.69 374.894c-8.835 2.518-18.153-0.727-24.665-6.742-6.648-6.141-5.65-16.952 1.336-22.094 8.27-6.087 17.579-6.757 27.359-2.575 5.2 2.223 5.355 2.72 12.785 0.125 9.305-3.25 9.774-1.891 15.172 9.435 3.224 6.762 11.871-4.56 16.382-0.144 4.51 4.416-2.828 7.802-2.516 15.253 0.268 6.372 3.853 4.055 4.294 12.96 0.158 3.176-0.779 7.256-2.751 10.772-2.188 3.899-6.287 4.932-11.519 6.506-2.874 0.865-1.502-5.392 2.62-6.474 4.98-1.307 5.44-7.795 4.81-10.489-0.465-1.992-5.031-4.325-9.984-4.325-2.794 0-6.132-1.18-6.289-5.425-0.246-6.64-4.754-6.704-10.699-3.152-4.714 2.817-11.036 4.859-16.335 6.369z" fill="#1B1B1B" p-id="65912"></path><path d="M717.417 291.031c75.245 25.361-110.869 432.334-110.869 432.334h-133.38c0.001-0.001 165.594-458.846 244.249-432.334z" fill="#388ECC" p-id="65913"></path><path d="M747.098 466.893c2.562 0.013 3.686 0.009 10.297 0 37.355-0.051 74.71 0 112.065 0h10.499c-7.997-7.573-39.984-37.463-58.108-43.828-3.573-1.254-6.266-1.475-7.918-0.137-5.768 4.675 5.656 24.76 1.557 27.502-2.701 1.807-10.282-5.155-11.418-6.212-26.582-24.718-47.828-55.603-72.699-68.232-2.93-1.487-9.338-4.65-13.08-2.036-3.166 2.211-3.261 7.746-1.649 18.814 3.851 26.441 10.959 39.948 6.74 43.06-1.729 1.274-4.681 0.092-10.584-2.273-8.772-3.515-10.147-5.946-17.164-9.21-5.054-2.351-9.716-2.269-13.177-0.171-3.668 2.224-4.773 6.353-5.91 10.991-1.47 5.999 0.096 31.729 0.096 31.729s7.808-0.31 70.453 0.003z" fill="#7AC9D6" p-id="65914"></path><path d="M309.455 583.653l28.226-8.583c2.779 15.36 5.454 30.741 8.352 46.079 5.574 29.5 11.337 58.964 16.863 88.473 0.859 4.584 2.148 8.089 7.682 7.587 6.154-0.559 12.302-1.176 18.453-1.768l0.967 9.174-0.589 28.268c-1.69 7.774-3.429 15.539-5.053 23.328-1.199 5.751-3.536 11.63-3.108 17.281 1.048 13.834 3.403 27.569 5.233 41.345l-0.695-0.019-24.774-1.781a1.994 1.994 0 0 0-1.217-0.159l-14.663-81.781-11.533-51.846-24.144-115.598z" fill="#283F96" p-id="65915"></path><path d="M389.03 715.441c-6.151 0.591-12.299 1.209-18.453 1.768-5.532 0.502-6.823-3.002-7.682-7.587-5.526-29.509-11.288-58.973-16.863-88.473-2.898-15.338-5.573-30.719-8.352-46.079l14.335-4.245 9.995-0.161c3.39 6.338 7.051 12.55 10.105 19.046 4.325 9.202 8.202 18.613 12.27 27.936-0.445 1.371-1.348 2.772-1.264 4.11 1.127 18.1 2.393 36.192 3.623 54.286l2.286 39.399z" fill="#2F2E7D" p-id="65916"></path><path d="M434.191 553.329l-3.805-8.589-13.399 3.395c0.371 3.232 4.493 6.757 2.345 9.792 2.148-3.036-1.976-6.56-2.353-9.79l-64.962 22.689 9.995-0.161 47.226-10.205 1.968-0.14 4.835-0.054 18.582-3.518-0.432-3.419z" fill="#252728" p-id="65917"></path><path d="M528.474 758.52c8.803 16.089 17.584 32.193 26.423 48.262 2.961 5.382 6.072 10.682 9.57 16.82l-32.176 18.701-11.844 5.852 2.216-6.403 10.028-20.362-62.845-66.749-23.199-30.322-30.491-49.991-31.768-56.682c-4.068-9.322-7.945-18.734-12.271-27.936-3.054-6.496-6.715-12.708-10.105-19.046l47.227-10.205 1.969-0.141 4.832-0.054 18.584-3.517 22.727 51.515 6.843 15.011 9.051 20.103c7.139 16.952 14.277 33.904 21.417 50.855 4.771 10.224 9.539 20.449 14.308 30.675l17.342 29.914c0.722 1.233 1.442 2.467 2.162 3.7z" fill="#283F96" p-id="65918"></path><path d="M555.898 808.576l-23.33 13.067-9.905 20.109-2.216 6.403 11.843-5.852 32.176-18.701c-3.108-5.455-5.904-10.248-8.568-15.026z" fill="#2F2E7D" p-id="65919"></path><path d="M338.393 414.244l12.466-5.142 4.685 1.71c-8.478 10.011-17.475 19.638-25.252 30.166-5.269 7.133-9.243 15.418-7.048 25.03l-16.868 5.085c0-4.922-0.312-6.81 1.866-14.002 3.242-10.71 8.505-20.939 15.097-29.983 1.476-2.026 3.571-3.515 5.356-5.272 3.233-2.529 6.466-5.06 9.698-7.592z" fill="#8FA8BE" p-id="65920"></path></svg>