<svg width="42" height="56" viewBox="0 0 42 56" fill="none" xmlns="http://www.w3.org/2000/svg">
<g id="Frame 1000006111">
<rect id="Rectangle 34625520" width="42" height="56" rx="6" fill="#E2CCFF"/>
<g id="Frame">
<path id="Vector" d="M21.7287 17.3876L24.3567 22.7145C24.4734 22.9532 24.702 23.1182 24.966 23.1563L30.844 24.0095C31.5067 24.1059 31.7733 24.921 31.2934 25.3907L27.0404 29.5395C26.85 29.7249 26.7637 29.994 26.8068 30.2555L27.8098 36.1106C27.924 36.7708 27.2283 37.2761 26.6367 36.9637L21.3783 34.1987C21.1422 34.0743 20.8604 34.0743 20.6242 34.1987L15.3684 36.9637C14.7742 37.2761 14.0811 36.7708 14.1953 36.1106L15.1983 30.2555C15.244 29.994 15.1551 29.7249 14.9647 29.5395L10.7117 25.3932C10.2318 24.9261 10.4959 24.1085 11.1611 24.012L17.0391 23.1589C17.3031 23.1208 17.5316 22.9557 17.6484 22.7171L20.2764 17.3901C20.5734 16.7884 21.4316 16.7884 21.7287 17.3876Z" fill="white"/>
</g>
</g>
</svg>
