<svg xmlns="http://www.w3.org/2000/svg" xmlns:xlink="http://www.w3.org/1999/xlink" width="28" height="28"><defs><linearGradient id="b" x1="-18.275%" x2="84.959%" y1="8.219%" y2="71.393%"><stop offset="0%" stop-color="#a229c5"/><stop offset="100%" stop-color="#7b3fe4"/></linearGradient><circle id="a" cx="14" cy="14" r="14"/></defs><g fill-rule="evenodd"><mask id="c" fill="#fff"><use xlink:href="#a"/></mask><g fill-rule="nonzero"><path fill="url(#b)" d="M-1.326-1.326h30.651v30.651H-1.326z" mask="url(#c)"/><path fill="#fff" d="m18.049 17.021 3.96-2.287a.68.68 0 0 0 .34-.589V9.572a.68.68 0 0 0-.34-.59l-3.96-2.286a.68.68 0 0 0-.68 0l-3.96 2.287a.68.68 0 0 0-.34.589v8.173L10.29 19.35l-2.777-1.604v-3.207l2.777-1.604 1.832 1.058V11.84l-1.492-.861a.68.68 0 0 0-.68 0l-3.96 2.287a.68.68 0 0 0-.34.589v4.573c0 .242.13.468.34.59l3.96 2.286a.68.68 0 0 0 .68 0l3.96-2.286a.68.68 0 0 0 .34-.589v-8.174l.05-.028 2.728-1.575 2.777 1.603v3.208l-2.777 1.603-1.83-1.056v2.151l1.49.86a.68.68 0 0 0 .68 0z"/></g></g></svg>