<svg width="20" height="20" viewBox="0 0 20 20" xmlns="http://www.w3.org/2000/svg">
<g id="Frame 1316">
<path id="Union" fill-rule="evenodd" clip-rule="evenodd" d="M2 13V7C2.39397 7 2.78407 6.9224 3.14805 6.77164C3.51203 6.62087 3.84274 6.3999 4.12132 6.12132C4.3999 5.84274 4.62087 5.51203 4.77164 5.14805C4.9224 4.78407 5 4.39397 5 4H15C15 4.39397 15.0776 4.78407 15.2284 5.14805C15.3791 5.51203 15.6001 5.84274 15.8787 6.12132C16.1573 6.3999 16.488 6.62087 16.8519 6.77164C17.2159 6.9224 17.606 7 18 7V13C17.606 13 17.2159 13.0776 16.8519 13.2284C16.488 13.3791 16.1573 13.6001 15.8787 13.8787C15.6001 14.1573 15.3791 14.488 15.2284 14.8519C15.0776 15.2159 15 15.606 15 16H5C5 15.606 4.9224 15.2159 4.77164 14.8519C4.62087 14.488 4.3999 14.1573 4.12132 13.8787C3.84274 13.6001 3.51203 13.3791 3.14805 13.2284C2.78407 13.0776 2.39397 13 2 13ZM0 2H2H18H20V4V16V18H18H2H0V16V4V2ZM12 10C12 11.1046 11.1046 12 10 12C8.89543 12 8 11.1046 8 10C8 8.89543 8.89543 8 10 8C11.1046 8 12 8.89543 12 10ZM14 10C14 12.2091 12.2091 14 10 14C7.79086 14 6 12.2091 6 10C6 7.79086 7.79086 6 10 6C12.2091 6 14 7.79086 14 10Z"/>
</g>
</svg>
