<?xml version="1.0" standalone="no"?><!DOCTYPE svg PUBLIC "-//W3C//DTD SVG 1.1//EN" "http://www.w3.org/Graphics/SVG/1.1/DTD/svg11.dtd"><svg t="1729587300716" class="icon" viewBox="0 0 1024 1024" version="1.1" xmlns="http://www.w3.org/2000/svg" p-id="6539" xmlns:xlink="http://www.w3.org/1999/xlink" width="128" height="128"><path d="M554.666667 722.346667V896h-85.333334v-173.653333a299.008 299.008 0 0 1-227.456-168.106667A213.333333 213.333333 0 0 1 42.666667 341.333333V170.666667h170.666666V85.333333h597.333334v85.333334h170.666666v170.666666a213.333333 213.333333 0 0 1-199.210666 212.906667A299.008 299.008 0 0 1 554.666667 722.346667zM213.333333 256H128v85.333333c0 56.533333 36.693333 104.533333 87.466667 121.472A301.696 301.696 0 0 1 213.333333 426.666667V256z m597.333334 0v170.666667c0 12.245333-0.725333 24.32-2.133334 36.138666A128.042667 128.042667 0 0 0 896 341.333333V256h-85.333333zM298.666667 170.666667v256a213.333333 213.333333 0 0 0 426.666666 0V170.666667H298.666667z" p-id="6540"></path><path d="M298.666667 938.666667v-85.333334h426.666666v85.333334z" p-id="6541"></path></svg>
