<?xml version="1.0" standalone="no"?><!DOCTYPE svg PUBLIC "-//W3C//DTD SVG 1.1//EN" "http://www.w3.org/Graphics/SVG/1.1/DTD/svg11.dtd"><svg t="1730686018938" class="icon" viewBox="0 0 1024 1024" version="1.1" xmlns="http://www.w3.org/2000/svg" p-id="15041" xmlns:xlink="http://www.w3.org/1999/xlink" width="128" height="128"><path d="M582.44 678.35a110.93 110.93 0 0 1-1 13.87l1.08-8a104.82 104.82 0 0 1-6.7 24.64l3-7.18a102.73 102.73 0 0 1-9.34 17.42c-0.73 1.09-1.5 2.14-2.25 3.22-2.85 4.09 5.36-6.55 0.67-0.92q-2.94 3.52-6.18 6.76t-6.72 6.19c-5.63 4.69 5-3.51 0.92-0.67-1.08 0.74-2.13 1.52-3.22 2.25a102.73 102.73 0 0 1-17.42 9.34l7.18-3a104.82 104.82 0 0 1-24.64 6.7l8-1.08a106.37 106.37 0 0 1-27.73 0l8 1.08a104.82 104.82 0 0 1-24.64-6.7l7.18 3a102.73 102.73 0 0 1-17.42-9.34c-1.09-0.73-2.14-1.5-3.22-2.25-4.08-2.84 6.55 5.36 0.92 0.67q-3.53-2.94-6.76-6.18t-6.15-6.76c-4.69-5.63 3.51 5 0.68 0.92-0.75-1.08-1.53-2.13-2.26-3.22a103.45 103.45 0 0 1-9.34-17.42l3 7.18a104.8 104.8 0 0 1-6.69-24.64l1.07 8a106.37 106.37 0 0 1 0-27.73l-1.07 8a104.8 104.8 0 0 1 6.69-24.64l-3 7.18a103.84 103.84 0 0 1 9.34-17.42c0.73-1.09 1.51-2.14 2.26-3.22 2.84-4.08-5.37 6.55-0.68 0.92q2.94-3.52 6.18-6.76t6.76-6.18c5.63-4.69-5 3.51-0.92 0.68 1.08-0.75 2.13-1.53 3.22-2.26a103.45 103.45 0 0 1 17.42-9.34l-7.18 3a104.8 104.8 0 0 1 24.64-6.69l-8 1.07a106.37 106.37 0 0 1 27.73 0l-8-1.07a104.8 104.8 0 0 1 24.64 6.69l-7.18-3a103.45 103.45 0 0 1 17.42 9.34c1.09 0.73 2.14 1.51 3.22 2.26 4.09 2.84-6.55-5.37-0.92-0.68q3.53 2.94 6.76 6.18t6.18 6.76c4.69 5.63-3.51-5-0.67-0.92 0.74 1.08 1.52 2.13 2.25 3.22A103.45 103.45 0 0 1 578.9 655l-3-7.18a104.82 104.82 0 0 1 6.7 24.64l-1.08-8a110.64 110.64 0 0 1 1 13.86c0.11 15.72 13.75 30.78 30 30s30.17-13.2 30-30c-0.18-26.09-7.87-53.1-23.34-74.32-16.57-22.73-38-39.22-64.44-49-48.94-18.06-109.19-1.8-142.11 38.75-18 22.23-28.52 47.55-30.89 76.17-2.15 26.13 4.9 53.88 18.61 76.16 13.06 21.21 32.62 39.77 55.49 50 26.68 11.91 54.6 15.46 83.37 9.88 27-5.25 53.62-20.94 71.25-42.09 20.27-24.32 31.84-53.7 32.06-85.56 0.11-15.72-13.9-30.77-30-30.05-16.4 0.74-29.96 13.24-30.08 30.09z" p-id="15042"></path><path d="M811.83 898.89H282.51c-23.27 0-46.55 0.16-69.82 0a74.51 74.51 0 0 1-8.83-0.57l8 1.08a65 65 0 0 1-15.43-4.29l7.18 3a64 64 0 0 1-9.23-5c-0.73-0.48-1.42-1-2.15-1.48-3.43-2.28 3.12 2.22 3 2.32s-4.12-3.73-4.33-3.94c-1.22-1.22-2.28-2.63-3.51-3.83-2.3-2.23 4 5.72 2.28 3-0.46-0.73-1-1.42-1.5-2.13a63.31 63.31 0 0 1-5.32-9.77l3 7.18a64.22 64.22 0 0 1-4.29-15.43l1.07 8c-1.81-14.39-0.56-29.56-0.56-44V532.61c0-14.84-0.12-29.69 0-44.52a72.91 72.91 0 0 1 0.56-8.49l-1.07 8a64.09 64.09 0 0 1 4.29-15.43l-3 7.17a62.47 62.47 0 0 1 5-9.22c0.47-0.73 1-1.43 1.47-2.15 2.29-3.43-2.22 3.11-2.31 3s3.72-4.12 3.93-4.33c1.22-1.22 2.64-2.28 3.83-3.52 2.23-2.3-5.72 4-3 2.29 0.73-0.47 1.41-1 2.13-1.5a63.29 63.29 0 0 1 9.77-5.33l-7.18 3a65 65 0 0 1 15.43-4.29l-8 1.08c7.46-0.94 15.15-0.57 22.66-0.57h513.53c23.71 0 47.44-0.16 71.16 0a74.51 74.51 0 0 1 8.83 0.57l-8-1.08a65 65 0 0 1 15.43 4.29l-7.18-3a64 64 0 0 1 9.23 5c0.73 0.48 1.43 1 2.15 1.48 3.43 2.28-3.12-2.22-3-2.32s4.12 3.73 4.33 3.94c1.22 1.22 2.28 2.63 3.51 3.83 2.31 2.23-4-5.72-2.28-3 0.47 0.73 1 1.42 1.5 2.14a62.75 62.75 0 0 1 5.32 9.76l-3-7.17a64.09 64.09 0 0 1 4.29 15.43l-1.07-8c1.81 14.39 0.56 29.55 0.56 44v300.42c0 14.84 0.12 29.69 0 44.52a71.08 71.08 0 0 1-0.56 8.5l1.07-8a64.22 64.22 0 0 1-4.29 15.43l3-7.18a62.47 62.47 0 0 1-5 9.22c-0.47 0.73-1 1.43-1.47 2.15-2.29 3.43 2.22-3.11 2.31-3s-3.72 4.12-3.93 4.32c-1.22 1.23-2.63 2.28-3.83 3.52-2.23 2.3 5.72-4 3-2.29-0.73 0.47-1.41 1-2.13 1.5a63.29 63.29 0 0 1-9.77 5.33l7.18-3a65 65 0 0 1-15.43 4.29l8-1.08a71.35 71.35 0 0 1-8.27 0.57c-15.71 0.18-30.78 13.69-30.05 30.05 0.72 16.13 13.21 30.24 30.05 30 24.24-0.28 48.4-10 65.11-27.81a92.24 92.24 0 0 0 25-62.37c0.07-7.09 0-14.19 0-21.29V570.74c0-27.41 0.1-54.83 0-82.25-0.16-40.72-28.26-78.84-68.57-88.16-10.56-2.44-20.75-2.62-31.36-2.62h-586.7c-25.8 0-51.55 9.21-69.1 28.77A92.57 92.57 0 0 0 122 487.92v372.01c0 19.58 2.53 38.83 13.21 55.9 17.14 27.42 46.74 43.13 78.9 43.16h597.75c15.72 0 30.78-13.82 30-30s-13.18-30.1-30.03-30.1zM300 332.63q0.6-10 1.91-20l-1.08 8A263.12 263.12 0 0 1 318.66 255l-3 7.18A261 261 0 0 1 332.57 229q4.86-8.06 10.33-15.73c1.68-2.36 3.55-4.61 5.16-7 0 0-5 6.41-2.24 2.92l1.25-1.57q1.68-2.08 3.39-4.14a252.17 252.17 0 0 1 25.43-26.25q3.21-2.87 6.52-5.62 1.79-1.49 3.6-2.93c0.51-0.42 1-0.82 1.55-1.24 2.46-2-6.62 5-2.41 1.87 4.78-3.55 9.61-7 14.61-10.25a243.34 243.34 0 0 1 36.77-19.55l-7.18 3a237.41 237.41 0 0 1 59.16-16.33l-8 1.07a236.67 236.67 0 0 1 62.86 0l-8-1.07a237.35 237.35 0 0 1 59.17 16.32l-7.17-3a243.71 243.71 0 0 1 32.3 16.71q7.88 4.88 15.37 10.33c1.25 0.9 2.48 1.84 3.72 2.76 3.87 2.86-5.63-4.49-1.89-1.46 2.57 2.08 5.15 4.16 7.66 6.32a250 250 0 0 1 25.9 25.76q2.85 3.27 5.58 6.64a21.46 21.46 0 0 1 2.91 3.66c0.3 0.63-4.49-5.91-2.65-3.43 0.66 0.9 1.34 1.79 2 2.68q5.4 7.29 10.25 15a259.12 259.12 0 0 1 19.78 37.83l-3-7.18a263 263 0 0 1 17.86 65.63l-1.07-8q1.3 9.94 1.9 20c0.93 15.67 13.15 30.81 30 30.05 15.48-0.69 31.05-13.24 30.05-30.05-3.23-55-21.04-109.25-53.85-153.67-33.17-44.9-77.08-79-129.52-98.49C550.11 61.8 492.79 60.14 441 74.81a272.19 272.19 0 0 0-131.75 84.59c-17.4 20.46-32.38 42.9-43.34 67.46a304.85 304.85 0 0 0-24.22 86.52q-1.24 9.58-1.81 19.25c-0.94 15.72 14.49 30.75 30.05 30.05C287 361.92 299 349.47 300 332.63z" p-id="15043"></path></svg>