<svg width="42" height="56" viewBox="0 0 42 56" fill="none" xmlns="http://www.w3.org/2000/svg">
<g id="&#232;&#161;&#165;">
<rect id="Rectangle 34625518" x="0.5" y="0.5" width="41" height="55" rx="5.5" fill="#E2CCFF" stroke="#7000FF" stroke-dasharray="2 2"/>
<path id="Rectangle 34625522" d="M0 38H42V50C42 53.3137 39.3137 56 36 56H6C2.68629 56 0 53.3137 0 50V38Z" fill="#7000FF"/>
<path id="repair" d="M7.136 42.3C8.126 42.3 8.88867 42.531 9.424 42.993C9.96667 43.4477 10.238 44.0893 10.238 44.918C10.238 45.7833 9.96667 46.458 9.424 46.942C8.88867 47.4187 8.126 47.657 7.136 47.657H5.31V50H4.012V42.3H7.136ZM7.136 46.546C7.73 46.546 8.18833 46.4177 8.511 46.161C8.841 45.897 9.006 45.4937 9.006 44.951C9.006 44.4303 8.841 44.0453 8.511 43.796C8.18833 43.5393 7.73 43.411 7.136 43.411H5.31V46.546H7.136ZM7.18 47.151H8.456L10.37 50H8.896L7.18 47.151ZM15.9322 46.656C15.9176 46.326 15.8406 46.0473 15.7012 45.82C15.5692 45.5853 15.3822 45.4057 15.1402 45.281C14.8982 45.149 14.6196 45.083 14.3042 45.083C13.9522 45.083 13.6442 45.1637 13.3802 45.325C13.1236 45.4863 12.9219 45.7137 12.7752 46.007C12.6286 46.293 12.5552 46.6303 12.5552 47.019C12.5552 47.437 12.6322 47.8 12.7862 48.108C12.9476 48.416 13.1676 48.6543 13.4462 48.823C13.7322 48.9917 14.0586 49.076 14.4252 49.076C15.0779 49.076 15.6279 48.845 16.0752 48.383L16.7462 49.054C16.4602 49.3693 16.1119 49.615 15.7012 49.791C15.2906 49.9597 14.8322 50.044 14.3262 50.044C13.7249 50.044 13.2006 49.9193 12.7532 49.67C12.3059 49.4207 11.9576 49.076 11.7082 48.636C11.4589 48.1887 11.3342 47.6717 11.3342 47.085C11.3342 46.4983 11.4589 45.985 11.7082 45.545C11.9576 45.0977 12.3059 44.7493 12.7532 44.5C13.2006 44.2507 13.7139 44.1223 14.2932 44.115C14.9826 44.115 15.5362 44.258 15.9542 44.544C16.3722 44.8227 16.6692 45.2187 16.8452 45.732C17.0212 46.2453 17.0836 46.854 17.0322 47.558H12.3572V46.656H15.9322ZM21.717 44.115C22.2743 44.115 22.762 44.2397 23.18 44.489C23.598 44.7383 23.9243 45.0867 24.159 45.534C24.3937 45.9813 24.511 46.502 24.511 47.096C24.511 47.6753 24.3937 48.1887 24.159 48.636C23.9317 49.076 23.609 49.4207 23.191 49.67C22.7803 49.9193 22.2963 50.044 21.739 50.044C21.2037 50.044 20.7453 49.9267 20.364 49.692C19.99 49.4573 19.704 49.12 19.506 48.68C19.308 48.2327 19.209 47.7047 19.209 47.096C19.209 46.4653 19.308 45.93 19.506 45.49C19.704 45.0427 19.99 44.7017 20.364 44.467C20.7453 44.2323 21.1963 44.115 21.717 44.115ZM21.453 45.116C21.1083 45.116 20.8003 45.2003 20.529 45.369C20.2577 45.5377 20.045 45.7687 19.891 46.062C19.7443 46.348 19.671 46.6817 19.671 47.063C19.671 47.4443 19.7443 47.7853 19.891 48.086C20.045 48.3793 20.2577 48.6103 20.529 48.779C20.8003 48.9403 21.1083 49.021 21.453 49.021C21.805 49.021 22.113 48.9367 22.377 48.768C22.6483 48.5993 22.8573 48.3683 23.004 48.075C23.158 47.7817 23.235 47.4443 23.235 47.063C23.235 46.689 23.158 46.3553 23.004 46.062C22.8573 45.7687 22.6483 45.5377 22.377 45.369C22.113 45.2003 21.805 45.116 21.453 45.116ZM18.406 44.159H19.671V52.134H18.406V44.159ZM27.7416 47.393C27.3309 47.393 27.0266 47.4553 26.8286 47.58C26.6306 47.7047 26.5316 47.91 26.5316 48.196C26.5316 48.4673 26.6306 48.6837 26.8286 48.845C27.0339 49.0063 27.3126 49.087 27.6646 49.087C27.9799 49.087 28.2622 49.032 28.5116 48.922C28.7609 48.812 28.9589 48.6653 29.1056 48.482C29.2522 48.2913 29.3292 48.0787 29.3366 47.844L29.5786 48.911C29.3952 49.2923 29.1166 49.5783 28.7426 49.769C28.3686 49.9597 27.9212 50.055 27.4006 50.055C26.9826 50.055 26.6196 49.9743 26.3116 49.813C26.0036 49.6517 25.7652 49.4353 25.5966 49.164C25.4279 48.8853 25.3436 48.5773 25.3436 48.24C25.3436 47.712 25.5342 47.2903 25.9156 46.975C26.3042 46.6597 26.8506 46.4983 27.5546 46.491H29.4906V47.393H27.7416ZM29.3256 46.293C29.3256 45.9117 29.2082 45.6147 28.9736 45.402C28.7389 45.1893 28.3906 45.083 27.9286 45.083C27.6499 45.083 27.3639 45.1343 27.0706 45.237C26.7846 45.3397 26.4949 45.49 26.2016 45.688L25.6846 44.874C25.9559 44.7053 26.2126 44.566 26.4546 44.456C26.6966 44.346 26.9532 44.2617 27.2246 44.203C27.5032 44.1443 27.8296 44.115 28.2036 44.115C28.9589 44.115 29.5382 44.2983 29.9416 44.665C30.3522 45.0243 30.5612 45.523 30.5686 46.161L30.5796 50H29.3366L29.3256 46.293ZM32.2729 44.159H33.5269V50H32.2729V44.159ZM32.8999 41.75C33.1126 41.75 33.2886 41.8197 33.4279 41.959C33.5672 42.0983 33.6369 42.2743 33.6369 42.487C33.6369 42.6923 33.5672 42.8683 33.4279 43.015C33.2886 43.1543 33.1126 43.224 32.8999 43.224C32.6946 43.224 32.5186 43.1543 32.3719 43.015C32.2326 42.8683 32.1629 42.6923 32.1629 42.487C32.1629 42.2743 32.2326 42.0983 32.3719 41.959C32.5186 41.8197 32.6946 41.75 32.8999 41.75ZM38.6879 45.259C38.2699 45.237 37.9069 45.3103 37.5989 45.479C37.2982 45.6403 37.0635 45.8677 36.8949 46.161C36.7335 46.4543 36.6529 46.7917 36.6529 47.173L36.3009 47.129C36.3009 46.4763 36.3962 45.9263 36.5869 45.479C36.7775 45.0317 37.0525 44.6943 37.4119 44.467C37.7712 44.2323 38.1965 44.115 38.6879 44.115V45.259ZM35.3989 44.159H36.6639V50H35.3989V44.159Z" fill="white"/>
<g id="Frame">
<path id="Vector" d="M21.7287 17.3876L24.3567 22.7145C24.4734 22.9532 24.702 23.1182 24.966 23.1563L30.844 24.0095C31.5067 24.1059 31.7733 24.921 31.2934 25.3907L27.0404 29.5395C26.85 29.7249 26.7637 29.994 26.8068 30.2555L27.8098 36.1106C27.924 36.7708 27.2283 37.2761 26.6367 36.9637L21.3783 34.1987C21.1422 34.0743 20.8604 34.0743 20.6242 34.1987L15.3684 36.9637C14.7742 37.2761 14.0811 36.7708 14.1953 36.1106L15.1983 30.2555C15.244 29.994 15.1551 29.7249 14.9647 29.5395L10.7117 25.3932C10.2318 24.9261 10.4959 24.1085 11.1611 24.012L17.0391 23.1589C17.3031 23.1208 17.5316 22.9557 17.6484 22.7171L20.2764 17.3901C20.5734 16.7884 21.4316 16.7884 21.7287 17.3876Z" fill="white"/>
</g>
</g>
</svg>
