<?xml version="1.0" standalone="no"?><!DOCTYPE svg PUBLIC "-//W3C//DTD SVG 1.1//EN" "http://www.w3.org/Graphics/SVG/1.1/DTD/svg11.dtd"><svg t="1731576825675" class="icon" viewBox="0 0 1024 1024" version="1.1" xmlns="http://www.w3.org/2000/svg" p-id="9449" xmlns:xlink="http://www.w3.org/1999/xlink" width="128" height="128"><path d="M173.501566 398.859173 173.501566 398.859173c16.452717 16.452717 43.129286 16.452717 59.582003 0l236.785891-236.785891 0 818.941718c0 23.267936 18.862603 42.130539 42.130539 42.130539l0 0c23.267936 0 42.130539-18.862603 42.130539-42.130539l0-818.941718 236.785891 236.785891c16.452717 16.452717 43.129286 16.452717 59.582003 0l0 0c16.452717-16.452717 16.452717-43.128263 0-59.582003L512.074701 0.854461l-0.074701 0.075725-0.074701-0.075725L173.501566 339.27717C157.047826 355.73091 157.047826 382.406456 173.501566 398.859173z" p-id="9450"></path></svg>