<?xml version="1.0" standalone="no"?><!DOCTYPE svg PUBLIC "-//W3C//DTD SVG 1.1//EN" "http://www.w3.org/Graphics/SVG/1.1/DTD/svg11.dtd"><svg t="1758422403509" class="icon" viewBox="0 0 1024 1024" version="1.1" xmlns="http://www.w3.org/2000/svg" p-id="125933" xmlns:xlink="http://www.w3.org/1999/xlink" width="48" height="48"><path d="M0 0h1024v1024H0V0z" fill="#202425" opacity=".01" p-id="125934"></path><path d="M102.4 170.666667a34.133333 34.133333 0 0 1 34.133333-34.133334h750.933334a34.133333 34.133333 0 0 1 34.133333 34.133334v785.066666a34.133333 34.133333 0 0 1-34.133333 34.133334H136.533333a34.133333 34.133333 0 0 1-34.133333-34.133334V170.666667z" fill="#11AA66" p-id="125935"></path><path d="M273.066667 68.266667a34.133333 34.133333 0 0 1 34.133333-34.133334h409.6a34.133333 34.133333 0 0 1 34.133333 34.133334v136.533333a34.133333 34.133333 0 0 1-34.133333 34.133333H307.2a34.133333 34.133333 0 0 1-34.133333-34.133333V68.266667z" fill="#FFAA44" p-id="125936"></path><path d="M238.933333 512a34.133333 34.133333 0 0 1 34.133334-34.133333h477.866666a34.133333 34.133333 0 1 1 0 68.266666H273.066667a34.133333 34.133333 0 0 1-34.133334-34.133333z m0 204.8a34.133333 34.133333 0 0 1 34.133334-34.133333h273.066666a34.133333 34.133333 0 1 1 0 68.266666H273.066667a34.133333 34.133333 0 0 1-34.133334-34.133333z" fill="#FFFFFF" p-id="125937"></path></svg>