<?xml version="1.0" standalone="no"?><!DOCTYPE svg PUBLIC "-//W3C//DTD SVG 1.1//EN" "http://www.w3.org/Graphics/SVG/1.1/DTD/svg11.dtd"><svg t="1730339424785" class="icon" viewBox="0 0 1024 1024" version="1.1" xmlns="http://www.w3.org/2000/svg" p-id="14775" xmlns:xlink="http://www.w3.org/1999/xlink" width="128" height="128"><path d="M353.536 394.154667H126.72a34.133333 34.133333 0 0 1-34.133333-34.133334V133.205333a34.133333 34.133333 0 0 1 68.266666 0v192.682667h192.682667a34.133333 34.133333 0 1 1 0 68.266667z" p-id="14776"></path><path d="M512 946.176A432.981333 432.981333 0 0 1 108.544 674.133333a34.133333 34.133333 0 0 1 63.402667-25.6 366.506667 366.506667 0 1 0 8.533333-292.437333 34.133333 34.133333 0 1 1-61.781333-29.013333A434.773333 434.773333 0 1 1 512 946.176z" p-id="14777"></path><path d="M696.917333 731.050667a34.133333 34.133333 0 0 1-24.149333-9.984L487.850667 536.149333A34.133333 34.133333 0 0 1 477.866667 512V320.768a34.133333 34.133333 0 0 1 68.266666 0v177.066667l174.933334 174.933333a34.133333 34.133333 0 0 1-24.149334 58.282667z" p-id="14778"></path></svg>