<?xml version="1.0" standalone="no"?><!DOCTYPE svg PUBLIC "-//W3C//DTD SVG 1.1//EN" "http://www.w3.org/Graphics/SVG/1.1/DTD/svg11.dtd"><svg t="1729844071559" class="icon" viewBox="0 0 1024 1024" version="1.1" xmlns="http://www.w3.org/2000/svg" p-id="29775" xmlns:xlink="http://www.w3.org/1999/xlink" width="128" height="128"><path d="M990.31872 632.704l-79.232-46.208c4.352-24.192 7.296-48.96 7.296-74.496 0-25.536-2.944-50.304-7.296-74.56l79.232-46.144c32.384-18.816 43.456-60.608 24.768-93.248L947.37472 179.84a67.392 67.392 0 0 0-92.48-24.96l-80.064 46.592a407.168 407.168 0 0 0-127.232-75.264v-57.92A68.096 68.096 0 0 0 579.88672 0H444.39872c-37.376 0-67.712 30.592-67.712 68.288v57.92a406.976 406.976 0 0 0-127.232 75.2l-80.064-46.592A67.392 67.392 0 0 0 76.91072 179.84L9.19872 298.048a68.544 68.544 0 0 0 24.768 93.248l79.296 46.144A408.96 408.96 0 0 0 105.90272 512c0 25.536 2.88 50.304 7.36 74.496l-79.296 46.208a68.544 68.544 0 0 0-24.768 93.248L76.91072 844.16c18.688 32.704 60.096 43.84 92.48 24.96l80.064-46.592c37.44 32.064 80 58.368 127.232 75.264v57.92c0 37.696 30.336 68.288 67.712 68.288h135.488c37.376 0 67.712-30.592 67.712-68.224v-57.92a407.168 407.168 0 0 0 127.232-75.264l80.064 46.592a67.328 67.328 0 0 0 92.48-24.96l67.712-118.272a68.608 68.608 0 0 0-24.768-93.248z m-50.752 88.64l-33.856 59.136a33.664 33.664 0 0 1-46.272 12.48l-94.08-54.72a337.536 337.536 0 0 1-185.472 108.224V921.6a34.048 34.048 0 0 1-33.92 34.112H478.25472a33.92 33.92 0 0 1-33.856-34.112v-75.136a337.728 337.728 0 0 1-185.472-108.224l-94.08 54.72a33.664 33.664 0 0 1-46.208-12.48l-33.856-59.136a34.304 34.304 0 0 1 12.352-46.656l94.464-54.976C180.33472 585.856 173.61472 549.76 173.61472 512s6.72-73.792 17.984-107.776l-94.464-54.912a34.24 34.24 0 0 1-12.352-46.656l33.856-59.136a33.664 33.664 0 0 1 46.208-12.48l94.08 54.784a337.088 337.088 0 0 1 185.472-108.288V102.4a33.92 33.92 0 0 1 33.856-34.112h67.712c18.688 0 33.92 15.232 33.92 34.112v75.136a337.344 337.344 0 0 1 185.472 108.224l94.08-54.784a33.792 33.792 0 0 1 46.272 12.48l33.856 59.136a34.304 34.304 0 0 1-12.416 46.656l-94.464 54.912c11.264 34.048 17.984 70.08 17.984 107.84s-6.72 73.856-17.984 107.776l94.464 54.976a34.368 34.368 0 0 1 12.416 46.592zM512.11072 341.312C418.67072 341.312 342.83072 417.728 342.83072 512A169.984 169.984 0 0 0 512.11072 682.624 169.984 169.984 0 0 0 681.45472 512 170.048 170.048 0 0 0 512.11072 341.312zM512.11072 614.4A102.016 102.016 0 0 1 410.54272 512c0-56.512 45.504-102.4 101.568-102.4 56.128 0 101.632 45.888 101.632 102.4 0 56.576-45.568 102.4-101.632 102.4z" p-id="29776"></path></svg>
