<?xml version="1.0" standalone="no"?><!DOCTYPE svg PUBLIC "-//W3C//DTD SVG 1.1//EN" "http://www.w3.org/Graphics/SVG/1.1/DTD/svg11.dtd"><svg t="1758685536956" class="icon" viewBox="0 0 1024 1024" version="1.1" xmlns="http://www.w3.org/2000/svg" p-id="2474" xmlns:xlink="http://www.w3.org/1999/xlink" width="48" height="48"><path d="M864 64H682.283c-20.924 0-39.99 15.054-42.075 35.873C637.81 123.816 656.547 144 680 144h151.431L556 419.432c-15.621 15.62-15.621 40.947 0 56.568s40.947 15.621 56.568 0L880 208.568v133.149c0 20.924 15.056 39.991 35.876 42.074C939.819 386.189 960 367.45 960 344V160c0-53.02-42.98-96-96-96z" fill="#cdcdcd" p-id="2475"></path><path d="M920 608c-22.092 0-40 17.908-40 40v120c0 61.855-50.145 112-112 112H256c-61.855 0-112-50.145-112-112V256c0-61.856 50.145-112 112-112h120c22.092 0 40-17.909 40-40 0-22.092-17.908-40-40-40H256C149.961 64 64 149.961 64 256v512c0 106.038 85.961 192 192 192h512c106.039 0 192-85.962 192-192V648c0-22.092-17.908-40-40-40z" fill="#cdcdcd" p-id="2476"></path></svg>