<?xml version="1.0" standalone="no"?><!DOCTYPE svg PUBLIC "-//W3C//DTD SVG 1.1//EN" "http://www.w3.org/Graphics/SVG/1.1/DTD/svg11.dtd"><svg t="1758421442311" class="icon" viewBox="0 0 1024 1024" version="1.1" xmlns="http://www.w3.org/2000/svg" p-id="58854" xmlns:xlink="http://www.w3.org/1999/xlink" width="48" height="48"><path d="M139.950507 520.533333h796.586666v454.4H139.950507z" fill="#94D5F4" p-id="58855"></path><path d="M139.950507 624.64c15.786667 0.426667 31.146667-1.706667 46.08-5.973333 64.426667 26.026667 110.08 30.293333 158.293333-3.413334 50.346667 34.56 117.76 30.293333 163.84-9.813333 46.506667 38.4 113.066667 41.386667 162.56 7.253333 48.64 35.84 115.626667 32.853333 161.28-7.253333 24.32 22.613333 29.44 22.186667 29.44 22.186667l0.426667 347.306666h74.24V537.6H139.950507v87.04z" fill="#779CCC" p-id="58856"></path><path d="M987.310507 465.066667c12.373333 40.533333-7.253333 84.053333-46.08 101.546666-43.946667 18.346667-94.293333-2.133333-113.066667-45.653333-0.426667-0.426667-0.426667-0.853333-0.853333-1.706667a86.058667 86.058667 0 0 1-111.786667 48.213334c-21.76-8.96-39.253333-26.026667-48.213333-48.213334a86.058667 86.058667 0 0 1-111.786667 48.213334c-21.76-8.96-39.253333-26.026667-48.213333-48.213334a86.058667 86.058667 0 0 1-111.786667 48.213334c-21.76-8.96-39.253333-26.026667-48.213333-48.213334a86.058667 86.058667 0 0 1-111.786667 48.213334c-21.76-8.96-39.253333-26.026667-48.213333-48.213334-5.973333 18.773333-17.92 34.986667-34.133334 46.08-53.76-3.84-75.093333-50.346667-59.306666-101.546666L155.737173 260.266667c3.84-12.373333 14.933333-20.48 27.733334-20.48h715.52c12.8 0 24.32 8.533333 27.733333 20.906666l60.586667 204.373334z" fill="#E86E6B" p-id="58857"></path><path d="M233.390507 246.186667l-42.666667 229.12h161.706667l23.893333-226.986667-142.933333-2.133333z m694.186666 0l66.133334 229.12H832.00384l-47.36-226.986667 142.933333-2.133333z m-420.266666 3.84v225.28h163.413333l-22.613333-229.12-140.8 3.84z" fill="#FFFFFF" p-id="58858"></path><path d="M950.190507 561.92c1.28-0.853333 2.986667-1.706667 4.266666-2.56l2.56-1.706667 3.413334-2.56c0.853333-0.853333 1.706667-1.706667 2.56-2.133333s1.706667-1.706667 2.986666-2.56 1.706667-1.706667 2.56-2.56l2.56-2.56c0.853333-0.853333 1.706667-2.133333 2.56-2.986667l1.706667-2.56c0.853333-1.28 1.706667-2.133333 2.56-3.413333l1.28-2.133333c0.853333-1.28 1.706667-2.56 2.133333-3.84 0.426667-0.853333 0.426667-1.28 0.853334-2.133334 0.853333-1.706667 1.706667-2.986667 2.133333-4.693333l0.426667-1.28c5.973333-14.933333 7.68-31.146667 5.12-46.933333H91.737173c-11.946667 35.84 7.68 74.24 43.52 86.186666 3.84 1.28 7.68 2.133333 11.52 2.56 18.773333-9.386667 33.706667-25.6 41.386667-45.226666 9.813333 23.893333 29.44 42.24 53.76 50.346666 8.533333 2.56 17.066667 4.266667 26.026667 3.84 4.266667 0 8.96-0.426667 13.226666-0.853333l6.4-1.28c27.306667-6.4 49.92-26.026667 60.16-52.053333 4.693333 11.946667 11.946667 22.613333 21.333334 31.146666a85.674667 85.674667 0 0 0 112.64 4.266667c11.52-9.386667 20.48-21.333333 26.026666-35.413333 5.546667 13.653333 14.506667 26.026667 26.026667 35.413333 15.36 12.373333 34.133333 19.2 53.76 19.2 2.133333 0 4.693333 0 6.826667-0.426667a87.04 87.04 0 0 0 67.84-42.666666c2.133333-3.84 3.84-7.68 5.546666-11.52 1.706667 3.84 3.413333 7.68 5.546667 11.52 14.08 24.32 39.68 40.533333 67.84 42.666666 2.133333 0 4.266667 0.426667 6.826667 0.426667s4.693333 0 6.826666-0.426667a86.186667 86.186667 0 0 0 73.386667-54.186666c4.693333 11.946667 11.946667 22.613333 21.333333 31.146666 2.986667 2.986667 6.4 5.546667 9.813334 8.106667 24.32 16.64 55.466667 20.053333 82.346666 8.533333 2.56-0.853333 4.693333-2.133333 6.826667-3.413333 0.426667 0 0.853333-0.426667 1.706667-1.28" fill="#E94B27" p-id="58859"></path><path d="M190.72384 474.88v37.973333c12.373333 32.426667 42.666667 54.613333 77.226667 57.6 55.04 0 84.053333-63.146667 84.053333-63.146666l0.426667-32.426667H190.72384z m317.013333-0.426667l0.426667 42.666667c18.346667 31.573333 51.626667 50.773333 87.893333 51.2 36.266667-0.853333 66.986667-26.453333 74.666667-61.866667v-32H507.737173z m324.266667 0.426667v40.106667c15.36 31.573333 46.933333 51.2 81.92 51.2 59.733333 0 79.786667-91.306667 79.786667-91.306667H832.00384z" fill="#D7E0F0" p-id="58860"></path><path d="M65.454507 358.826667c-9.813333 0-17.92-8.106667-17.92-17.92 0-1.706667 0.426667-3.413333 0.853333-5.12l2.56-8.96c2.133333-9.813333 11.946667-15.786667 21.333333-13.226667 9.813333 2.133333 15.786667 11.946667 13.226667 21.333333 0 0.853333 0 1.28-0.426667 2.133334l-2.56 8.96c-2.56 7.68-9.386667 12.8-17.066666 12.8m19.626666 388.266666c9.813333 0 17.92-8.106667 17.92-17.92v-23.04c0-9.813333-8.106667-17.92-17.92-17.92-9.813333 0-17.92 8.106667-17.92 17.92v23.04c0 10.24 8.106667 17.92 17.92 17.92" fill="#323333" p-id="58861"></path><path d="M1005.82784 957.013333h-51.2V580.266667a101.930667 101.930667 0 0 0 50.346667-120.32l-60.16-204.8c-5.973333-20.053333-24.32-33.706667-44.8-33.706667H118.361173c-20.48 0-38.826667 13.226667-44.8 33.28l-5.973333 18.773333a18.133333 18.133333 0 0 0 34.56 10.666667l5.973333-19.2c0.853333-4.693333 5.12-7.68 10.24-7.68h781.226667c4.693333 0 9.386667 3.413333 10.666667 7.68l60.16 205.226667c10.24 32-5.546667 66.133333-35.84 80.213333-34.56 14.506667-74.666667-1.706667-89.6-36.266667 0-0.426667-0.426667-0.853333-0.426667-1.28a17.706667 17.706667 0 0 0-23.466667-9.813333 17.066667 17.066667 0 0 0-9.813333 9.813333 68.266667 68.266667 0 0 1-88.746667 37.973334 66.56 66.56 0 0 1-37.973333-37.973334 17.706667 17.706667 0 0 0-23.466667-9.813333 17.066667 17.066667 0 0 0-9.813333 9.813333 68.266667 68.266667 0 0 1-88.746667 37.973334 66.56 66.56 0 0 1-37.973333-37.973334 17.706667 17.706667 0 0 0-23.466667-9.813333 17.066667 17.066667 0 0 0-9.813333 9.813333 68.266667 68.266667 0 0 1-88.746667 37.973334 66.56 66.56 0 0 1-37.973333-37.973334 17.706667 17.706667 0 0 0-23.466667-9.813333 17.066667 17.066667 0 0 0-9.813333 9.813333 68.266667 68.266667 0 0 1-88.746667 37.973334 66.56 66.56 0 0 1-37.973333-37.973334 17.706667 17.706667 0 0 0-23.466667-9.813333 17.066667 17.066667 0 0 0-10.24 9.386667c-10.24 26.026667-35.413333 43.093333-63.573333 43.093333H102.574507c-19.2-1.28-37.12-11.52-47.786667-27.733333-11.946667-17.066667-15.36-38.826667-9.386667-58.88l16.213334-52.906667a17.024 17.024 0 0 0-10.24-22.613333 17.322667 17.322667 0 0 0-23.04 10.24c-0.426667 0.853333-0.426667 1.706667-0.853334 2.133333l-16.213333 52.906667a102.997333 102.997333 0 0 0 55.466667 124.16v55.466666c-0.426667 9.813333 7.253333 18.346667 17.066666 18.773334s18.346667-7.253333 18.773334-17.066667V591.36h5.12c31.146667 0 60.16-13.653333 80.213333-37.546667a103.808 103.808 0 0 0 160 0 103.808 103.808 0 0 0 160 0 103.808 103.808 0 0 0 160 0 103.808 103.808 0 0 0 160 0c19.626667 23.893333 49.066667 37.546667 80.213333 37.546667 3.413333 0 7.253333 0 10.666667-0.426667v366.08H103.001173v-170.24c0-9.813333-8.106667-17.92-17.92-17.92s-17.92 8.106667-17.92 17.92v170.24H18.094507a17.152 17.152 0 0 0-17.92 17.493334c0 9.813333 8.106667 17.92 17.92 17.92h987.733333c9.813333 0 17.92-8.106667 17.92-17.92 0-9.813333-8.106667-17.92-17.92-17.493334" fill="#323333" p-id="58862"></path><path d="M202.24384 435.2c-9.813333 0-17.92-8.106667-17.92-17.92 0-1.28 0-2.56 0.426667-3.413333l21.333333-116.053334a17.749333 17.749333 0 1 1 34.986667 6.4l-21.333334 116.053334c-1.706667 8.533333-8.96 14.506667-17.493333 14.933333m156.16-0.426667h-1.706667a18.133333 18.133333 0 0 1-16.213333-19.626666l11.52-116.053334c0.853333-9.813333 9.386667-17.493333 19.2-16.64 9.813333 0.426667 17.493333 8.96 17.066667 18.773334v1.28l-11.946667 116.48c-0.853333 8.96-8.533333 16.213333-17.92 15.786666m149.76 0.426667c-9.813333 0-17.92-8.106667-17.92-17.92V298.24c0.426667-9.813333 8.96-17.493333 18.773333-17.066667 9.386667 0.426667 16.64 7.68 17.066667 17.066667v118.613333c0 10.24-8.106667 18.346667-17.92 18.346667m155.306667 0c-9.386667 0-17.066667-7.253333-17.92-16.213333l-10.666667-116.053334c-0.853333-9.813333 6.4-18.346667 16.213333-19.626666s18.346667 6.4 19.626667 16.213333l10.666667 116.053333a18.346667 18.346667 0 0 1-16.213334 19.626667h-1.706666m156.16-0.426667c-8.533333 0-15.786667-5.973333-17.493334-14.506666l-23.04-116.053334c-1.706667-9.813333 4.693333-19.2 14.506667-20.906666 9.386667-1.706667 18.346667 4.266667 20.48 13.653333l23.04 116.053333c1.706667 9.813333-4.266667 19.2-14.08 20.906667-1.28 0.853333-2.133333 0.853333-3.413333 0.853333" fill="#323333" p-id="58863"></path><path d="M888.32384 174.506667H186.030507V90.453333c0-23.04 18.773333-41.813333 41.813333-41.813333h619.093333c23.04 0 41.813333 18.773333 41.813334 41.813333l-0.426667 84.053334z" fill="#F5A74B" p-id="58864"></path><path d="M850.350507 49.066667h-41.813334v40.96a32.426667 32.426667 0 0 1-31.146666 33.706666H186.030507v50.773334h702.72V90.026667a40.192 40.192 0 0 0-38.4-40.96" fill="#F29532" p-id="58865"></path><path d="M888.32384 192.426667H292.270507c-9.813333 0-17.92-8.106667-17.92-17.92 0-9.813333 8.106667-17.92 17.92-17.92H870.40384V90.453333a23.893333 23.893333 0 0 0-23.893333-23.893333H168.110507a23.893333 23.893333 0 0 0-23.893334 23.893333v66.133334h63.146667c9.813333 0 17.92 8.106667 17.92 17.92 0 9.813333-8.106667 17.92-17.92 17.92h-81.066667c-9.813333 0-17.92-8.106667-17.92-17.92V90.453333c0-32.853333 26.88-59.733333 59.733334-59.733333h678.4c32.853333 0 59.733333 26.88 59.733333 59.733333v84.053334c0 9.813333-8.106667 17.92-17.92 17.92" fill="#323333" p-id="58866"></path></svg>