<svg width="20" height="20" viewBox="0 0 20 20" xmlns="http://www.w3.org/2000/svg">
<g id="Frame 1293">
<path id="Union" clip-rule="evenodd" d="M11 2H15V4H11V2ZM16.7823 6.10884C15.6916 5.4071 14.3933 5 13 5C9.13401 5 6 8.13401 6 12C6 15.866 9.13401 19 13 19C16.866 19 20 15.866 20 12C20 10.2622 19.3667 8.67224 18.3183 7.44841L19.7319 5L17.9999 4L16.7823 6.10884ZM1 7H5V9H1V7ZM0 11H4V13H0V11ZM5 15H1V17H5V15ZM13 16.9C10.2938 16.9 8.1 14.7062 8.1 12C8.1 9.2938 10.2938 7.1 13 7.1C15.7062 7.1 17.9 9.2938 17.9 12C17.9 14.7062 15.7062 16.9 13 16.9ZM12 13H14V9H12V13Z"/>
</g>
</svg>
