<?xml version="1.0" standalone="no"?><!DOCTYPE svg PUBLIC "-//W3C//DTD SVG 1.1//EN" "http://www.w3.org/Graphics/SVG/1.1/DTD/svg11.dtd"><svg t="1732000958817" class="icon" viewBox="0 0 1024 1024" version="1.1" xmlns="http://www.w3.org/2000/svg" p-id="13965" xmlns:xlink="http://www.w3.org/1999/xlink" width="128" height="128"><path d="M511.023254 958.150246c-60.430324 0-119.069863-11.841699-174.289512-35.19764-53.319369-22.552645-101.199866-54.831816-142.309146-95.941096-41.10928-41.110303-73.388451-88.989777-95.941096-142.309146C75.12756 629.482715 63.284837 570.842153 63.284837 510.411829c0-60.430324 11.842723-119.069863 35.198663-174.289512 22.552645-53.319369 54.831816-101.199866 95.941096-142.309146s88.988754-73.388451 142.309146-95.941096c55.219649-23.355941 113.859187-35.198663 174.289512-35.198663 60.430324 0 119.069863 11.842723 174.289512 35.198663 53.319369 22.552645 101.199866 54.831816 142.309146 95.941096 41.10928 41.10928 73.388451 88.988754 95.941096 142.309146 23.355941 55.219649 35.19764 113.859187 35.19764 174.289512 0 60.430324-11.841699 119.069863-35.19764 174.289512-22.552645 53.319369-54.831816 101.199866-95.941096 142.309146-41.110303 41.10928-88.989777 73.388451-142.309146 95.941096C630.093117 946.308547 571.452555 958.150246 511.023254 958.150246zM511.023254 126.118396c-211.900108 0-384.293433 172.393325-384.293433 384.293433s172.393325 384.293433 384.293433 384.293433 384.293433-172.393325 384.293433-384.293433S722.923362 126.118396 511.023254 126.118396zM317.026912 561.03888 248.413208 485.09114 324.883857 338.550623 469.608006 371.239116 456.112644 484.403478ZM313.786101 580.349691l-83.921341-92.892667 86.87665-166.481685 169.746032 38.340213L470.421534 494.045069 313.786101 580.349691zM266.961656 482.725256l53.305043 59.002812 121.537054-66.966181 10.923794-91.599208-119.701243-27.03575L266.961656 482.725256zM686.838515 763.589039 587.12142 735.49212 577.564763 605.350085 711.400934 551.815821 789.965268 650.315182ZM691.80462 780.936125l-119.202892-33.586956L561.433364 595.270519l154.855904-61.941747 93.834108 117.644397L691.80462 780.936125zM601.641111 723.637118l80.231299 22.606881 87.932702-96.585779-63.293535-79.354326-112.816438 45.125757L601.641111 723.637118zM854.826508 274.185686 758.872109 317.042773 648.152425 251.7937 667.398768 134.691655ZM757.902014 334.287529 631.300618 259.679297 652.251789 132.202974 682.545746 137.181359 665.003208 243.908102 759.842203 299.796994 848.566944 260.170484 861.087095 288.199864ZM208.98829 792.974299 272.270569 745.051847 391.205355 818.805618 383.231753 900.834866ZM398.509714 902.319683 367.953791 899.349025 375.004371 826.820152 273.136286 763.650437 218.255351 805.210995 199.721229 780.737604 271.404852 726.453257 407.406339 810.791084ZM381.254725 99.647511 374.619608 154.47728 323.682495 228.16556 245.988995 214.508515ZM330.714655 244.986667 243.331469 229.626841 248.646522 199.391213 316.650335 211.344452 359.836927 148.868539 366.016673 97.803513 396.492778 101.491509 389.402289 160.086022Z" p-id="13966"></path></svg>
