<?xml version="1.0" standalone="no"?><!DOCTYPE svg PUBLIC "-//W3C//DTD SVG 1.1//EN" "http://www.w3.org/Graphics/SVG/1.1/DTD/svg11.dtd"><svg t="1759116118593" class="icon" viewBox="0 0 1024 1024" version="1.1" xmlns="http://www.w3.org/2000/svg" p-id="8492" xmlns:xlink="http://www.w3.org/1999/xlink" width="48" height="48"><path d="M512 0C230.4 0 0 230.4 0 512s230.4 512 512 512 512-230.4 512-512-230.4-512-512-512z m0 953.6c-243.2 0-441.6-198.4-441.6-441.6S268.8 70.4 512 70.4s441.6 198.4 441.6 441.6-198.4 441.6-441.6 441.6z" p-id="8493" data-spm-anchor-id="a313x.search_index.0.i5.2a503a819vTtFw" class="selected" fill="#ffffff"></path><path d="M409.6 736L224 582.4c-19.2-12.8-19.2-44.8-6.4-64 12.8-19.2 44.8-19.2 64-6.4l185.6 153.6c19.2 12.8 19.2 44.8 6.4 64-12.8 19.2-44.8 19.2-64 6.4z" p-id="8494" data-spm-anchor-id="a313x.search_index.0.i7.2a503a819vTtFw" class="selected" fill="#ffffff"></path><path d="M800 409.6l-320 320c-19.2 19.2-44.8 19.2-64 0-19.2-19.2-19.2-44.8 0-64l320-320c19.2-19.2 44.8-19.2 64 0 19.2 19.2 19.2 51.2 0 64z" p-id="8495" data-spm-anchor-id="a313x.search_index.0.i6.2a503a819vTtFw" class="selected" fill="#ffffff"></path></svg>