<?xml version="1.0" standalone="no"?><!DOCTYPE svg PUBLIC "-//W3C//DTD SVG 1.1//EN" "http://www.w3.org/Graphics/SVG/1.1/DTD/svg11.dtd"><svg t="1729738184742" class="icon" viewBox="0 0 1024 1024" version="1.1" xmlns="http://www.w3.org/2000/svg" p-id="28509" xmlns:xlink="http://www.w3.org/1999/xlink" width="128" height="128"><path d="M481.809067 126.589156a41.938489 41.938489 0 0 1 14.802489-9.790578c1.888711-0.762311 3.982222-0.762311 5.973333-1.297067 3.185778-0.728178 6.138311-1.723733 9.358222-1.723733 3.219911 0 6.138311 0.995556 9.255822 1.723733 1.991111 0.534756 4.084622 0.534756 5.973334 1.3312 5.614933 2.156089 10.706489 5.4784 14.933333 9.756445l355.544178 366.045866a43.605333 43.605333 0 0 1 0.864711 60.359111 40.686933 40.686933 0 0 1-58.641067-0.859022L512.005689 214.664533 184.137956 552.203378a40.721067 40.721067 0 0 1-29.138489 12.9024 40.721067 40.721067 0 0 1-29.496889-12.071822c-15.928889-16.930133-15.598933-43.906844 0.830578-60.336356l355.475911-366.108444z m358.064355 770.685155L512.005689 559.7696l-327.930311 337.504711a40.573156 40.573156 0 0 1-58.5728 0.898845A43.434667 43.434667 0 0 1 113.777778 867.805867c0.170667-11.281067 4.687644-22.101333 12.617955-29.969067l355.612445-366.108444a42.177422 42.177422 0 0 1 14.768355-9.756445c1.820444-0.898844 3.879822-0.898844 5.973334-1.3312 3.083378-0.762311 6.0416-1.757867 9.255822-1.757867 3.219911 0 6.109867 0.995556 9.227378 1.729423 1.991111 0.529067 4.078933 0.529067 5.973333 1.325511a41.910044 41.910044 0 0 1 14.933333 9.688178l355.578311 366.08a43.6736 43.6736 0 0 1 0.762312 60.3648 40.783644 40.783644 0 0 1-58.635378-0.796445h0.028444z" p-id="28510"></path></svg>
