<svg width="171" height="128" viewBox="0 0 171 128" fill="none" xmlns="http://www.w3.org/2000/svg">
<path d="M111.872 92.1611C102.592 100.929 90.112 104.193 78.464 102.081L73.984 104.513C87.744 108.353 103.04 105.089 114.176 94.6571C119.36 89.7931 123.2 83.6491 125.376 76.8651L120.896 79.2971C118.784 84.1611 115.712 88.5131 111.872 92.1611ZM122.176 96.5771L119.872 94.0811L118.72 97.4091L115.648 99.0091L118.336 101.057L118.72 104.513L121.536 102.465L124.864 103.041L123.904 99.7131L125.568 96.5771H122.176ZM100.032 114.881L102.912 116.673L103.36 113.217L106.048 111.041L102.976 109.697L101.824 106.497L99.392 109.057L96 109.313L97.6 112.321L96.64 115.649L100.032 114.881ZM69.248 114.433L72.448 115.713L73.792 118.849L76.096 116.225L79.616 115.969L77.824 113.089L78.656 109.825L75.2 110.657L72.192 108.865H72.256L71.936 112.257L69.248 114.433ZM48.256 28.2891H51.648L54.016 30.7851L55.168 27.4571L58.24 25.8571L55.552 23.8091L55.168 20.2891L52.352 22.3371L48.96 21.8251L49.92 25.1531L48.256 28.2891ZM49.728 48.7691C51.84 43.9051 54.912 39.4891 58.752 35.8411C68.032 27.0731 80.512 23.8091 92.16 25.9211L96.64 23.4891C82.88 19.6491 67.584 22.9131 56.448 33.4091C51.264 38.2731 47.424 44.4171 45.248 51.2011L49.728 48.7691Z" fill="#2CB360"/>
<path d="M126.849 108.098C106.433 127.298 76.225 129.602 53.505 115.586L50.113 117.442C74.305 133.442 107.137 131.33 129.153 110.594C142.529 97.9858 149.249 81.0258 149.249 64.0658L145.857 65.9218C145.409 81.2818 139.009 96.6418 126.849 108.098ZM43.777 19.9698C64.193 0.769808 94.401 -1.53419 117.121 12.5458L120.513 10.6898C96.321 -5.31019 63.489 -3.19819 41.473 17.5378C28.097 30.1458 21.377 47.1058 21.377 64.0658L24.769 62.2098C25.217 46.7218 31.617 31.4258 43.777 19.9698Z" fill="#2CB360"/>
<path d="M37.8246 49.4723L40.8326 51.1363L40.8966 47.6163L43.3286 45.1843L40.1926 43.9683L38.7206 40.8323L36.6726 43.6483L33.2806 44.1603L35.2006 47.0403L34.6246 50.5603L37.8246 49.4723ZM98.6246 15.6163L101.249 13.2483L97.8566 12.2243L96.3206 9.15233L94.2086 11.9043L90.6886 12.4163L92.7366 15.1683L92.0966 18.4963L95.4886 17.4723L98.5606 19.0083L98.6246 15.6163ZM75.2006 11.0723L72.3206 9.28032L71.8726 12.7363L69.1206 14.9763L72.2566 16.3203L73.4086 19.5203L75.7766 16.8323L79.2326 16.5763L77.6326 13.6323L78.5926 10.3043L75.2006 11.0723ZM167.425 42.7523L148.289 7.23233C146.497 3.96833 142.465 2.75233 139.201 4.48033L5.88858 76.2243C2.62458 77.9523 1.40858 82.0483 3.13658 85.3123L22.2726 120.896C24.0646 124.16 28.0966 125.376 31.3606 123.648L164.737 51.8403C168.001 50.0483 169.217 46.0163 167.425 42.7523ZM161.665 49.6643L31.3606 119.872C28.9286 121.216 25.8566 120.256 24.5126 117.824L6.97657 85.2483C5.63257 82.8163 6.59258 79.7443 9.02458 78.4003L139.329 8.19233C141.761 6.91233 144.833 7.80833 146.113 10.2403L163.649 42.8163C164.993 45.2483 164.097 48.3203 161.665 49.6643ZM134.913 76.6083L131.969 74.9443L131.841 78.4643L129.473 80.8963L132.609 82.0483L134.081 85.2483L136.065 82.4323L139.393 81.9203L137.537 79.0403L138.113 75.5843L134.913 76.6083Z" fill="#2CB360"/>
<path d="M54.9344 87.2187L51.3802 69.9741L55.691 67.6601L59.2347 89.9645L56.3952 91.4887L54.9344 87.2187ZM42.8748 74.5397L55.27 87.0386L58.0473 90.6019L55.182 92.14L38.5898 76.8398L42.8748 74.5397Z" fill="#2CB360"/>
<path d="M77.5099 67.486L77.9879 68.3765C78.7546 69.8049 79.2492 71.1908 79.4717 72.5345C79.6942 73.8781 79.6674 75.1393 79.3914 76.3183C79.1107 77.4886 78.5931 78.5479 77.8386 79.496C77.0926 80.4395 76.1259 81.23 74.9385 81.8674C73.7597 82.5001 72.5667 82.869 71.3595 82.9739C70.1609 83.0742 68.992 82.9202 67.853 82.512C66.7093 82.0952 65.6347 81.4251 64.6292 80.5018C63.6323 79.5738 62.7505 78.3957 61.9838 76.9674L61.5058 76.0768C60.7345 74.6399 60.2399 73.2539 60.022 71.9189C59.7995 70.5753 59.8263 69.314 60.1023 68.1351C60.3869 66.9515 60.9022 65.888 61.6482 64.9445C62.4028 63.9963 63.3695 63.2059 64.5483 62.5731C65.7357 61.9357 66.9287 61.5669 68.1273 61.4666C69.3345 61.3616 70.5056 61.5199 71.6407 61.9414C72.7844 62.3582 73.8547 63.0306 74.8516 63.9585C75.8525 64.8733 76.7385 66.0491 77.5099 67.486ZM74.0772 70.4758L73.5853 69.5594C73.0496 68.5613 72.4881 67.7321 71.901 67.072C71.3138 66.4118 70.7053 65.9182 70.0754 65.5913C69.4455 65.2644 68.8074 65.1082 68.1612 65.1226C67.5104 65.1283 66.858 65.3067 66.2041 65.6577C65.5501 66.0088 65.0409 66.4539 64.6765 66.9931C64.316 67.5192 64.0979 68.135 64.0222 68.8406C63.9552 69.5416 64.0346 70.3192 64.2603 71.1734C64.4861 72.0276 64.8668 72.9537 65.4026 73.9518L65.8945 74.8682C66.4257 75.8577 66.9871 76.6868 67.5789 77.3556C68.166 78.0158 68.7768 78.5136 69.4114 78.8491C70.0413 79.176 70.6816 79.3366 71.3325 79.3308C71.9833 79.3251 72.6357 79.1467 73.2896 78.7956C73.9435 78.4446 74.4528 77.9995 74.8172 77.4602C75.1817 76.921 75.3975 76.3009 75.4645 75.5999C75.5269 74.8902 75.4453 74.1083 75.2195 73.2542C74.9892 72.3914 74.6084 71.4653 74.0772 70.4758Z" fill="#2CB360"/>
<path d="M83.0141 52.9933L93.1014 71.7852L89.2423 73.8567L79.155 55.0648L83.0141 52.9933ZM88.7962 49.8895L90.4243 52.9226L75.0914 61.1531L73.4633 58.1201L88.7962 49.8895Z" fill="#2CB360"/>
<path d="M112.079 57.7078L113.7 60.728L103.698 66.0972L102.076 63.0771L112.079 57.7078ZM94.8752 46.6264L104.962 65.4183L101.091 67.4967L91.0032 48.7048L94.8752 46.6264ZM106.418 50.2894L107.997 53.2321L99.2983 57.9016L97.7187 54.9589L106.418 50.2894ZM103.6 41.943L105.228 44.976L95.2384 50.3384L93.6103 47.3054L103.6 41.943Z" fill="#2CB360"/>
<path d="M121.728 56.4187L117.637 58.6149L116.041 55.5809L120.107 53.3986C121.122 52.8536 121.856 52.166 122.308 51.3358C122.756 50.4971 122.918 49.5399 122.795 48.4643C122.681 47.384 122.286 46.2158 121.612 44.9596L121.12 44.0432C120.603 43.0795 120.045 42.2874 119.445 41.6669C118.855 41.0418 118.228 40.5859 117.564 40.2993C116.9 40.0127 116.213 39.8994 115.503 39.9593C114.788 40.0106 114.056 40.2372 113.308 40.6391L109.1 42.8976L107.472 39.8646L111.679 37.606C112.936 36.9317 114.2 36.5302 115.472 36.4015C116.748 36.2597 117.981 36.379 119.172 36.7595C120.363 37.1401 121.46 37.7702 122.464 38.6498C123.473 39.5163 124.337 40.6206 125.057 41.9629L125.536 42.8534C126.251 44.1871 126.694 45.5178 126.864 46.8455C127.042 48.1685 126.961 49.4314 126.62 50.634C126.283 51.8235 125.701 52.9174 124.873 53.9157C124.05 54.9008 123.001 55.7351 121.728 56.4187ZM109.743 38.6452L119.831 57.4371L115.959 59.5156L105.872 40.7237L109.743 38.6452Z" fill="#2CB360"/>
</svg>
